<svg width="1400" height="934" fill="none" xmlns="http://www.w3.org/2000/svg"><path d="m26.921 42.91-15.06 9.217L1.525 35.79l17.15-11.344 8.246 18.463Zm8.77 19.635-12.972 6.74-9.652-15.256 14.78-9.048 7.844 17.563Zm38.925-31.706 18.536 36.716L47.52 83.51 29.904 44.066 74.616 30.84Zm26.275 83.31a37691.92 37691.92 0 0 1-44.092-9.866l-8.357-18.71 45.672-15.969c.716 4.762 3.319 22.032 6.777 44.545Zm9.739 62.331-12.8 1.908-4.372-27.897h-.001l-5.42-34.599c4.36.973 8.912 1.992 13.59 3.035a11346.48 11346.48 0 0 0 9.003 57.553Zm1.992-113.347 5.943 54.964-5.871-1.311a14398.287 14398.287 0 0 1-7.612-49.95 5.65 5.65 0 0 0-.246-.98l7.786-2.723Zm29.571-10.34 19.363 48.057-3.235 26.119c-11.788-2.63-24.705-5.512-37.436-8.355l-6.079-56.245 27.387-9.576Zm21.797-7.621 37.298 91.378c-7.078-1.577-22.405-4.995-40.76-9.088l3.298-26.623a1.14 1.14 0 0 0-.073-.56l-19.432-48.23 19.669-6.877Zm-3.158-19.655 22.407-9.535 8.038 17.263-23.882 8.352-6.563-16.08Zm50.74 51.315-25.786 9.822-17.54-42.97 23.987-8.387 19.339 41.535Zm17.472-54.406 8.762 21.415-33.203 12.422c-.037.013-.061.043-.097.06L194.369 34.55l34.675-12.124Zm-17.071-11.568L237.27 2.18l5.115 13.196-24.53 8.575-5.882-13.093Zm48.005.75 8.508 20.752-28.571 10.69-8.743-21.369 28.806-10.072Zm21.312-7.45 17.373 39.494-19.99 7.616-16.565-40.404 19.182-6.707Zm36.448 11.164 9.629 19.079-24.441 7.76-7.069-16.069 21.881-10.77Zm30.009 46.295L318.291 77.09l-14.454-32.858 24.696-7.84 19.214 25.224Zm4.282-47.916 22.266 27.845 2.902 4.598-27.447 14.42-19.322-25.368 21.601-21.495Zm40.617 56.917-26.161 11.917-15.361-20.168 27.268-14.328 14.254 22.579Zm18.351-48.106 53.635 53.236 9.944 44.751-13.026 6.449-5.439-9.346c-.002-.002-.002-.006-.002-.006l-.006-.005-14.64-25.152v-.003h-.002l-5.809-9.98-.002-.004c0-.001-.002-.001-.002-.003l-6.933-11.908a1.127 1.127 0 0 0-1.528-.412l-23.688 13.475-23.212-36.771 30.71-24.321Zm94.157 85.379c-2.875 20.063-7.008 48.36-7.069 48.788-.019.123-.017.246.005.369l3.929 21.198-26.971 15.43-8.477-10.155-8.834-13.994 19.174-47.994c.011-.028.007-.058.017-.088.028-.093.048-.188.052-.287.002-.052-.004-.103-.007-.155-.006-.045.001-.088-.008-.131l-2.55-11.474 30.739-1.507Zm4.795-17.977 24.717 6.408 1.7 9.914c.064.369.308.683.652.836l30.673 13.64c-11.917 27.221-21.068 48.923-22.062 53.562-.101.47-.226 1.041-.368 1.669l-32.079-3.829c-.024-.002-.048.004-.075.004a1.228 1.228 0 0 0-.425.065c-.026.011-.054.008-.082.019-.015.005-.026.02-.041.028-.023.011-.047.013-.068.026l-8.401 4.805-3.751-20.24c.622-4.26 8.376-57.385 9.61-66.907Zm0-33.106c1.576-2.602 8.876-18.22 10.795-22.334l28.918 12.363-14.763 47.219-24.76-6.42c.012-1.665-.117-4.668-.28-8.316-.321-7.287-.918-20.85.09-22.512Zm82.43 8.283c-8.096 18.06-16.428 36.78-23.785 53.56l-30.111-13.392-1.674-9.768 14.935-47.764 40.635 17.364Zm4.137 1.766c32.644 13.947 59.836 25.558 65.327 27.904-7.377 17.963-15.754 38.581-22.351 55.418l-19.212-8.544 11.529-22.962a1.122 1.122 0 0 0-.5-1.51 1.128 1.128 0 0 0-1.512.5l-11.576 23.058-45.516-20.243c7.173-16.357 15.424-34.908 23.811-53.621Zm18.207-40.433 46.295 19.56-7.171 15.836h-.002l-10.274 22.688c-11.949-5.102-28.215-12.05-46.135-19.705 5.82-12.98 11.687-25.997 17.287-38.379ZM625.722 2.17l106.771 35.98 10.914 60.92-68.715-29.519c3.996-9.637 6.617-15.904 6.729-16.173a1.123 1.123 0 0 0-.599-1.47l-65.171-27.532c3.496-7.728 6.877-15.18 10.071-22.206Zm245.963 99.249-5.053 8.422c-.015.025-.015.054-.03.079-.013.024-.037.037-.049.063l-7.326 14.465-65.778-26.1a1.127 1.127 0 0 0-1.43.553l-10.069 20.667-33.689-18.214c.035-.238.045-.475.002-.712l-10.827-60.446 134.249 61.223Zm3.672 2.628c6.973 7.133 15.562 16.055 22.629 23.61l-26.381-17.351 3.752-6.259Zm17.903-29.839 96.148 56.652-14.273 47.533-69.356-45.61c-9.09-10.069-23.469-24.849-29.224-30.731l16.705-27.844Zm23.227 1.025-.659 7.047-14.263-8.404 14.922 1.357Zm-62.032-29.114 6.091-20.786 60.171 4.523-4.023 43.135-19.667-1.788-42.572-25.084Zm67.01-.008 22.449 2.37-.693 13.727a1.125 1.125 0 0 0 1.068 1.181h.056c.597 0 1.094-.466 1.125-1.067l.685-13.605 18.482 1.95-2.092 26.493-43.607-3.965 2.527-27.084Zm1.497-16.085 43.021 3.555-.685 8.693v.005l-.485 6.143-18.919-1.995a1.117 1.117 0 0 0-.733-.336 1.036 1.036 0 0 0-.661.188l-22.828-2.41 1.29-13.843Zm2.165-23.206c14.59 2.613 29.184 5.128 42.398 7.233l-1.363 17.282-42.989-3.55 1.954-20.965Zm43.19 25.823v-.002l1.441-18.235c11.728 1.85 22.278 3.354 30.632 4.286l-2.373 24.894-30.384-2.264.684-8.679Zm34.843 4.404 19.49.928-.84 44.574-22.779-2.07 4.129-43.432Zm1.71-17.892c2.22.209 4.23.368 6.01.463 3.34.18 7.67.437 12.78.752l-.92 15.355-19.36-.92 1.49-15.65Zm52.06 68.848-1.77 48.431-32.03-4.514.89-46.91 32.91 2.993Zm-32.01-51.062.99-16.43c18.47 1.15 45.93 2.995 73.73 4.9l-9.29 63.37-66.29-6.027.86-45.813Zm79.22-11.223c12.33.846 24.62 1.697 36.14 2.496l-9.53 64.241-35.9-3.265 9.29-63.472Zm38.39 2.653c24.37 1.694 44.94 3.143 54.35 3.806-.03 21.79-.22 45.826-.75 66.225l-27.84-2.533a1.116 1.116 0 0 0-.64-.268c-.23-.027-.43.046-.62.154l-34.04-3.096 9.54-64.288Zm2.97-20 51.37 5.208c.01 4.514.01 9.229.01 14.084-9.5-.67-29.73-2.094-53.69-3.76l2.31-15.532Zm67.49 239.073-18.63-.836c1.43-14.015 2.81-27.61 4.1-40.296l14.53 41.132Zm24.29-49.658 4.4 15.829-33.05 7.974-8.42-23.865 37.07.062Zm29 1.256 11.93 51.326-24.28-1.089-14.3-51.424 26.65 1.187Zm24.51 1.094v.016l12.69 51.349-22.93-1.027-11.94-51.328 22.18.99Zm18.76.836 14.67 51.458-18.4-.823-12.68-51.367 16.41.732Zm14.21.633 15.69 51.509-12.85-.575-14.68-51.463 11.84.529Zm37.22 63.743a59807.775 59807.775 0 0 1-93.63 32.237l-10.25-36.897 103.88 4.66Zm32.92 67.131-10.78 9.4-10.61-13.235-19.42-48.664c8.1-2.794 15.47-5.338 21.99-7.589 4.72 15.45 16.06 51.344 18.82 60.088Zm-26.88 23.443c-4.55-6.362-7.49-10.896-8-12.658-2.61-8.853-16.68-45.769-21.35-57.967l13.29-4.581 19.52 48.918c.04.104.1.201.16.287l10.78 13.44-14.4 12.561Zm11.79 19.58-9.73 7.853-10.75-13.881 9.66-8.42c3.16 4.328 6.83 9.221 10.82 14.448Zm8.82 11.431-9.33 8.323-7.84-10.121 9.72-7.845c2.4 3.125 4.89 6.354 7.45 9.643Zm-45.54 40.622-8.57-12.594 35.19-28.411 7.91 10.207-34.53 30.798Zm17.36 27.98-53.47 27.373-12.08-16.47-3.76-10.862 51.38-24.9 17.93 24.859Zm12.73 17.66-25.34 18.003-13.64-19.701 27.57-14.123 11.41 15.821Zm15.1 20.939c-7.99 5.988-16.6 12.314-25.43 18.719l-13.72-19.806 25.37-18.024 13.78 19.111Zm-8.83 46.648-19.88 16.494-16.43-24.825c6.81-4.846 13.67-9.763 20.4-14.639l15.91 22.97Zm14.32 20.675-20.25 16.873-12.69-19.167 19.91-16.524 13.03 18.818Zm-8.73 42.426-76.97 47.887-5.35-14.427 68.53-54.277 13.79 20.817Zm-73.28 64.306c.04.095.12.148.18.226l-29.16 11.435-10.23-29.422 27.84-11.303c.1-.041.2-.095.28-.16l.19-.153 10.9 29.377Zm48.87-16.449 15.14 45.524-77.75 26.39-14.5-41.676 77.11-30.238Zm18.4-7.214 17.25 45.776-18.38 6.238-15.17-45.623 16.3-6.391Zm-21.77 112.66-18.17 6.944-14.63-44.699 17.48-5.932 15.32 43.687Zm2.64 7.523-18.33 6.987-1.78-5.423 18.22-6.962 1.89 5.398Zm9.15 27.459-18.61 6.656-8.17-24.983 18.36-6.998 8.42 25.325Zm20.21 60.793-18.37 8.369-19.75-60.365 18.62-6.66 19.5 58.656Zm-43.43 16.783-1.36-1.045a5.91 5.91 0 0 0-.91-.556l-18.23-57.94 23.69-8.478 19.77 60.431-22.96 7.588Zm-4.89-2.2-13.43.259-17.6-52.084 13.29-4.758 17.81 56.586c-.02.002-.04-.003-.07-.003Zm-22.62.436-16.34-49.423 5.81-2.08 17.36 51.373-6.83.13Zm-10.45.204-15.42-46.217 7.41-2.652 16.11 48.712-8.1.157Zm-41.63.804-.82-12.579 32.3-11.521 7.8 23.341-39.28.759Zm-2.4-36.784 26.49-9.477 6.68 20.025-31.74 11.32-1.43-21.868Zm-1.82-27.782 19.69-7.504 7.9 23.673-25.93 9.278-1.66-25.447Zm-.53-8.215 34.94-13.356 1.81 5.359-36.37 13.862-.38-5.865Zm-1.57-23.955 29.47-10.235 6.32 18.699-34.38 13.139-1.41-21.603Zm-1.98-30.242 22.15-7.517 8.58 25.391-28.9 10.037-1.83-27.911Zm-57.55 172.577c-12.07 3.017-27.49 3.9-44.38 3.222-.06-2.975-.15-6.97-.28-11.497l101.03-9.912.51 7.878c-18.77 2.447-38.78 5.783-56.88 10.309Zm-45.24-24.656 1.68.365a2.053 2.053 0 0 0 .76.034l97.95-12.454.92 14.03-100.87 9.897c-.12-3.801-.27-7.829-.44-11.872Zm-1.04-18.462 28.17-10.082 6.87 20.392-31.74 4.036-2.47-.54c-.23-4.868-.51-9.604-.83-13.806Zm-1.42-12.329c-.23-1.128-1.49-5.191-3.6-11.672l25.25-9.627 7.22 21.413-27.64 9.893c-.36-4.17-.76-7.674-1.23-10.007Zm-147.18 18.853c-4.18-4.345-8.634-12.792-13.76-23.798l7.456 1.632c4.594 12.03 7.264 19.114 7.334 19.288.27.705.87 1.234 1.61 1.402l135.8 30.837a2.234 2.234 0 0 0 .71.045l6.57-.642c.12 4.228.21 7.98.27 10.834-57.9-3.205-130.7-23.694-145.99-39.598Zm-20.943-39.668c-13.679-30.615-32.282-72.203-63.45-110.333 4.8-4.352 10.252-8.578 16.225-12.533 12.384 20.709 23.449 41.651 30.442 59.401a8692.174 8692.174 0 0 1 29.497 75.934l-7.887-1.725a1945.556 1945.556 0 0 1-4.827-10.744Zm-25.902 4.024-70.537-45.935 13.053-40.984c1.981-6.211 6.138-12.839 11.94-19.397 29.855 36.839 47.887 77.163 61.166 106.884l1.412 3.156-17.034-3.724Zm-33.96 85.344-71.26-19.359 33.286-107.456 69.263 45.104-31.289 81.711Zm-75.607-20.539-11.073-3.009 33.96-106.588 10.554 1.635-33.441 107.962Zm-77.489-21.052 9.275-102.661 88.85 13.765-33.882 106.349-64.243-17.453Zm-36.522-9.919 11.98-47.772 27.228 2.934-4.893 54.158-34.315-9.32ZM729.743 875l-52.699-14.315 1.708-32.727 10.466-3.024a1.13 1.13 0 0 0 .786-.834l5.335-23.533 51.587 5.911L729.743 875Zm-14.067 56.082-52.093-13.544 11.734-45.657 51.686 14.041-11.327 45.16Zm-92.715-85.09 11.366-52.418 58.761 6.735-5.134 22.645-10.599 3.065a1.126 1.126 0 0 0-.812 1.023l-1.722 33.038-51.86-14.088Zm-12.022 2.317-37.038-11.413 14.36-54.509 34.997 9.11-12.319 56.812Zm-12.334 56.886-44.054-11.306 2.552-59.814 53.357 16.442-11.855 54.678Zm-69.19-82.008 11.25-53.191 45.416 11.822-14.334 54.413-42.332-13.044Zm101.744-68.137-7.425 34.255-35.988-9.372-.004-.002h-.003l-46.607-12.139 6.201-29.316 83.826 16.574Zm-102.986-87.17 119.26 12.117-15.32 70.653-84.76-16.761-19.18-66.009Zm-16.307-56.13a5.637 5.637 0 0 0-1.461-2.446l-1.587-1.557 1.622-85.911c10.703 3.155 20.608 10.593 31.061 18.501 10.381 7.853 21.116 15.971 33.8 20.783 5.117 1.939 10.114 3.526 14.946 5.064 19.584 6.22 36.499 11.592 56.294 37.33 3.724 4.838 8.758 8.76 14.851 12.101l-4.883 22.522-92.337-13.487a1.12 1.12 0 0 0-.838.215c-.241.181-.4.45-.439.746l-5.824 42.939-29.575-3.003-15.63-53.797Zm-56.713-154.267-.508-20.035 55.351-3.114-1.602 22.169-53.241.98Zm51.682 20.58-51.126 1.276-.498-19.609 53.021-.989-1.397 19.322Zm-.662 31.236c-20.282-3.664-62.649-6.214-88.753-7.511-.603-4.655-1.557-12.021-2.733-21.067l39.9.898h.025l.013-.002.015.002 52.08-1.301-.547 28.981Zm-1.777 94.107-39.583-38.863a5.639 5.639 0 0 0-1.9-1.23c-.388-.151-19.595-7.537-49.224-15.45l3.817-34.789c26.88 1.349 70.443 3.987 88.45 7.629l-1.56 82.703Zm-95.111-56.7c-26.124-6.78-59.539-13.691-95.112-16.604l-22.574-47.526 5.522-71.073a182501.12 182501.12 0 0 1 94.004 98.806 5.623 5.623 0 0 0 3.867 1.746c.252.011 7.372.285 18.008.797l-3.715 33.854ZM285.516 367.842l54.425-5.759c.1.03.199.058.308.058a1.094 1.094 0 0 0 .554-.15l52.767-5.581c1.486 10.285 3.856 27.757 6.546 47.949l-104.975-11.258-5.83-6.117c-.9-4.614-2.21-11.265-3.795-19.142Zm-3.619 94.302-23.793-50.092a5.633 5.633 0 0 0-2.477-2.574c-78.96-41.287-166.223-89.813-172.357-98.331-2.542-4.319-8.844-26.964-15.377-50.937 19.127-3.978 38.083-7.796 54.954-10.98 1.372 7.345 2.513 12.882 3.317 15.874 6.606 24.532 26.326 50.775 46.889 62.399 9.645 5.452 26.415 12.634 42.635 19.579 14 5.996 33.174 14.206 35.929 16.787 1.871 1.871 16.225 16.901 35.064 36.675l-4.784 61.6ZM54.738 212.283l18.997-3.304 6.638 37.141a3550.991 3550.991 0 0 0-15.449 3.185c-3.23-11.887-6.67-24.506-10.186-37.022Zm-6.962-24.155 21.657-3.229 3.908 21.864-19.215 3.342a1717.026 1717.026 0 0 0-6.35-21.977Zm-8.31-26.557 24.977-4.597 4.594 25.707-21.913 3.267c-2.576-8.607-5.145-16.845-7.657-24.377Zm-6.521-18.155 13.74-2.645 3.93 16.46-11.876 2.184c-1.977-5.842-3.914-11.226-5.794-15.999Zm31.102 11.342-11.215 2.064-3.933-16.477 12.154-2.339 2.994 16.752Zm.23-11.517-1.21-6.763v-.006l-.002-.004-4.87-27.257c6.97 1.564 16.539 3.707 27.48 6.153l3.667 23.406-25.065 4.471Zm1.984 11.11-1.59-8.897 25.02-4.459 1.378 8.79-24.808 4.566Zm5.003 27.998-4.607-25.782 24.761-4.557 4.185 26.71-24.34 3.629Zm28.026 19.899-23.733 4.129-3.896-21.81 24.291-3.622 3.338 21.303Zm6.089 38.866a3173.024 3173.024 0 0 0-22.8 4.556l-6.626-37.077 23.684-4.12 5.742 36.641Zm15.463-2.972c-4.299.808-8.726 1.657-13.251 2.54l-9.414-60.069 12.808-1.91c3.507 21.967 6.996 43.218 9.857 59.439Zm-4.384-97.059c-1.046-6.715-2.061-13.263-3.026-19.518l22.842 5.098 1.829 15.5-21.645-1.08Zm22.172 3.362 7.761 17.57-24.944 10.769c-1.566-9.848-3.128-19.786-4.635-29.43l21.818 1.091Zm24.737 10.242-4.613-12.917 1.217-9.819c15.619 3.485 29.003 6.468 36.962 8.243l-33.566 14.493Zm65.914 48.782-19.191 1.295-22.529-58.074 13.111-5.661c1.117.248 2.029.451 2.694.601 2.531 6.098 14.127 34.023 25.915 61.839Zm3.362-81.38-26.675 14.015-19.331-47.363 25.887-9.863 20.119 43.211Zm13.305-58.353-32.267 12.292-8.23-17.678 33.21-12.424 7.287 17.81Zm2.104-.803-7.284-17.797 28.573-10.69 7.226 17.623-28.515 10.864Zm36.075 7.577-28.056 12.02-7.166-17.512 28.517-10.866 6.705 16.358Zm15.214 16.538-4.936 2.593-14.879-36.29 4.353-1.66 15.462 35.357ZM301.338 86l-15.353-35.108 13.583-5.176 14.728 33.477-12.958 6.807Zm22.252 14.325-13.447 5.809-7.905-18.077 12.96-6.811 8.392 19.079Zm-.392-12.074-4.004-9.105 29.927-15.725 7.881 10.349-33.804 14.481Zm4.542 10.321-3.634-8.262 34.301-14.696 5.963 7.827-36.63 15.131Zm40.296-8.359-37.149 15.516-2.242-5.096 36.953-15.264 2.438 4.844Zm6.191 7.338-6.58-13.072 26.21-11.94 7.659 12.136-27.289 12.876Zm43.092 12.158-30.079 13.686-12.001-23.835 27.487-12.97 14.593 23.119Zm-6.509-14.521-6.111-9.679 22.631-12.87 5.793 9.95-22.313 12.599Zm6.256 9.91-5.053-8.004 22.243-12.56 4.685 8.05-21.875 12.514Zm6.203 9.826-5.001-7.922 21.804-12.473 5.13 8.809-21.933 11.586Zm9.548 15.126-8.343-13.216 21.861-11.547 7.267 12.482-20.785 12.281Zm5.351 8.476-4.149-6.57 20.716-12.24 4.794 8.234-21.361 10.576Zm17.207-6.007 18.355-9.088-9.688 24.248-8.667-15.16Zm-15.999 7.921 13.978-6.92 9.622 16.828-6.723 16.83-16.877-26.738Zm12.124 46.269-10.81-19.878 9.817-4.542 13.378 21.194-12.385 3.226Zm42.259 32.896c-3.266.082-26.517.678-59.208 1.557l-10.726-24.916 41.427-10.792 28.507 34.151Zm10.459-7.465-8.808 5.929-18.897-22.637 12.466-7.131 15.239 23.839Zm12.78-8.601-10.911 7.345-15.152-23.703 11.945-6.832 14.118 23.19Zm6.97-2.47-4.939 1.475-14.195-23.313 7.685-4.396 11.449 26.234Zm16.507-4.928-14.334 4.28-11.273-25.836 29.889 3.567c-.982 4.262-2.49 10.582-4.282 17.989Zm48.335 2.292L563 226.053l-20.584-18.823c2.772-11.383 5.206-21.48 6.632-27.647l39.762 18.849Zm1.363-1.848-40.61-19.251c.183-.804.348-1.54.471-2.115.913-4.265 9.721-25.172 21.767-52.677l45.409 20.194-27.037 53.849Zm37.695-14.037c-1.53 9.494-1.538 25.741-1.491 31.199l-34.17-16.197 27.062-53.9 19.402 8.628c-5.946 15.232-10.276 27.013-10.803 30.27Zm86.539 3.41-11.157 32.381-74.615-3.871c-.042-4.441-.102-21.898 1.456-31.562.503-3.113 4.766-14.681 10.639-29.711l73.677 32.763Zm14.37-41.705-13.635 39.57-73.591-32.727c4.598-11.72 10.076-25.326 15.478-38.597l71.748 31.754Zm34.833 12.955-29.967-13.263 13.925-40.413 33.395 18.062-17.353 35.614Zm64.553 28.569-62.49-27.656 27.914-57.296 64.619 25.639-30.043 59.313Zm62.885-33.773-10.887 21.065-31.707-17.388 10.765-21.254 31.829 17.577Zm1.032-2.001-31.842-17.586 9.194-18.15 30.688 20.183-8.04 15.553Zm29.365 26.915-20.019 9.544-12.629-25.196 13.214-25.573 7.845 5.161c.95 1.165 1.548 1.992 1.682 2.371.394 1.2 4.527 15.29 9.907 33.693Zm9.686 25.138c-7.861-26.937-15.434-52.841-17.129-58.477l58.933 38.758-41.804 19.719Zm26.706 33.946-17.03-.764c-2.803-9.62-5.93-20.341-9.038-30.994l41.479-19.566-15.411 51.324Zm27.92-29.729c.013.032.045.047.06.075.037.069.057.142.11.202.147.175 9.994 12.09 17.633 31.501l-41.086-1.842 14.836-49.399 8.447 19.463Zm97.043-65.942-25.4-3.58 1.77-48.544 30.86 2.807-7.23 49.317Zm34.16 1.053-29.81.336 7.37-50.297 35.72 3.248-13.28 46.713Zm46.94-.53-44.59.502 13.21-46.478 33.87 3.08-2.49 42.896Zm29.91-.34-27.66.314 2.48-42.666 27.44 2.495c-.39 14.469-.97 26.944-1.8 35.222-.14 1.404-.3 2.963-.46 4.635Zm37.18 157.877 3.61 10.433a55077.45 55077.45 0 0 1-48.33 16.544c2.27-21.974 4.65-45.122 6.94-67.543l23.83 1.068 13.95 39.498Zm-13.14-50.73-8.46-23.938 32.89-7.937 9.28 33.387-33.71-1.512Zm21.01 59.702-3.62-10.457-13.35-37.795 32.84 1.473 10.49 37.735c-8.75 3.001-17.54 6.02-26.36 9.044Zm35.63 24.313-22.46 13.739-9.49-27.399c8.77-3.009 17.35-5.953 25.7-8.824l6.25 22.484Zm25.82-8.865-23.74 7.939-6.19-22.29c7.64-2.626 15.08-5.184 22.29-7.666l7.64 22.017Zm30.68 6.899 4.02 8.253-23.92 8.756-8.28-23.568v-.002l-8.01-23.087c8.18-2.813 16.05-5.523 23.58-8.116l12.61 37.764Zm6.14 7.478-4.06-8.327-12.56-37.649 15.03-5.18c3.36 8.766 11.75 30.782 17.06 45.489l-15.47 5.667Zm6.44 13.205-5.45-11.17 15.25-5.583c1.42 3.978 2.56 7.268 3.23 9.404l-13.03 7.349Zm12 15.514-10.62-13.711 12.44-7.013c1.19 2.427 4.02 6.707 7.95 12.206l-9.77 8.518Zm-32.24 34.093 33.3-29.044 10.7 13.814-35.09 28.324-8.91-13.094Zm-28.6 15.48 24.03-11.605c.18-.086.35-.198.5-.329l2.36-2.057 18.6 27.317-32.4 15.702-13.09-29.028Zm-5.33 37.953-10.49-30.32 13.79-6.655 13.09 29.034-16.39 7.941Zm-39.22 32.644-3.3-9.533 39.18-18.991 3.41 9.846-39.29 18.678Zm6.28 18.081-5.53-15.94 39.56-18.812 11.32 15.432-45.35 19.32Zm79.49 27.236c-21.61 15.301-42.32 29.553-56.52 38.98l-14.68-42.321.19-.08c.58-.239.85-.9.61-1.473-.24-.575-.9-.848-1.47-.607l-.07.028-6.81-19.631 45.98-19.589 32.77 44.693Zm-11.98-23.949-16.64-22.699 23.84-12.215 13.84 19.971-21.04 14.943Zm1.33 1.814 20.99-14.907 13.73 19.822c-6.74 4.878-13.6 9.785-20.4 14.614l-14.32-19.529Zm-32.84 102.871-11.57-37.351c14.46-9.564 35.61-24.143 57.58-39.72l16.62 25.106-62.63 51.965Zm.76 2.297 63.12-52.373 12.67 19.13-68.12 53.937-7.67-20.694Zm-29.85 12.501 27.86-11.377 7.81 21.039-.64.51-27.59 11.2-7.44-21.372Zm-21.92 68.735-9.95-28.978 37.96-15.41 10.22 29.399-38.23 14.989Zm.74 2.13 21.63-8.482 13.83 40.915-21.78 7.392-13.68-39.825Zm-19.83 148.898 29.45-10.541 2.44 37.225-22.52 2.864-9.37-29.548Zm-2.13.758 9.23 29.077-39.03 4.964-7.03-20.86 36.83-13.181Zm-7.77-24.519 7.09 22.372-36.87 13.194-7.23-21.459 37.01-14.107Zm-2.37-7.461 1.69 5.313-37.05 14.121-1.77-5.241 37.13-14.193Zm-37.85 12.057-7.59-22.529 11.85-4.116 7.24 22.251-11.5 4.394Zm-26.58 12.574 25.2-9.632 1.76 5.236-25.24 9.621c-.53-1.621-1.1-3.358-1.72-5.225Zm-20.33 38.918-38.14-8.34 56.7-21.612c1.99 6.092 3.17 9.908 3.38 10.959.48 2.398.9 6.171 1.26 10.692l-23.2 8.301Zm4.15.907 19.23-6.882c.25 3.476.47 7.291.67 11.235l-19.9-4.353Zm20.11 9.009c.2 4.519.37 9.062.5 13.311l-6.5.638-134.26-30.49c-.84-2.21-2.87-7.575-5.87-15.418l146.13 31.959Zm-88.13-73.263 17.77 53.263-77.69-16.99c-1.44-3.778-3.053-7.978-4.818-12.57l64.738-23.703Zm-32.11-96.374 8.24 24.813v.002l23.16 69.422-64.839 23.736a8559.053 8559.053 0 0 0-24.936-64.06c-3.168-8.044-7.226-16.845-11.902-26.048l70.277-27.865Zm-78.448-12.393c3.635-1.882 12.274-5.57 24.441-10.528l11.142 37.204c.028.096.11.146.16.228l-28.604 11.344c-5.347-10.394-11.445-21.26-17.92-32.107a159.5 159.5 0 0 1 10.781-6.141Zm-28.313-21.82 5.419-17.012 74.082-30.804 12.81 38.535c-15.044 5.897-28.434 11.213-39.29 15.619a1.089 1.089 0 0 0-.575-.002 1.118 1.118 0 0 0-.622.487c-12.757 5.189-21.827 9.057-25.579 10.999a164.6 164.6 0 0 0-11.041 6.268 791.035 791.035 0 0 0-15.204-24.09Zm-1.766 5.544a770.47 770.47 0 0 1 13.179 20.944c-6.192 4.072-11.829 8.414-16.799 12.897a297.077 297.077 0 0 0-5.237-6.033l8.857-27.808Zm-24.522 27.457a271.72 271.72 0 0 1 8.207 8.929l-8.614 27.04c0 .006-.004.009-.006.015v.004l-12.986 40.773-10.536-1.631 23.935-75.13Zm-137.014 57.611.952-3.798 25.14-121.651c26.796 8.833 54.554 21.328 80.754 41.044 10.364 7.799 19.776 16.205 28.383 24.982l-24.401 76.591-110.828-17.168Zm-7.297 29.102 6.198-24.719 19.467 3.017-2.204 24.388-23.461-2.686Zm-.552 2.198 23.811 2.73-1.751 19.377-26.878-2.897 4.818-19.21Zm2.307-27.706-6.266 24.989-112.676-12.905 7.403-34.139 111.539 22.055Zm-102.706-62.791 112.394 17.696-7.582 36.7-1.01 4.023-111.681-22.083 7.879-36.336Zm-3.126-38.715-88.602-9.005 5.662-41.737 91.058 13.302-8.118 37.44ZM511.149 484.245l64.135 52.933c.224.185.48.325.756.411l43.677 13.774c2.8 1.335 30.633 14.562 52.274 23.598l-5.287 30.759c-4.722-2.607-8.543-5.566-11.239-9.072-21.948-28.532-42.213-34.97-61.811-41.195-4.687-1.488-9.535-3.03-14.36-4.859-11.174-4.239-21.254-11.863-31-19.236-11.288-8.536-22.958-17.364-36.351-20.838-.398-.102-.852-.201-1.285-.304l.491-25.971Zm.415-71.598-1.404 19.423-55.573 3.127-.509-20.032 57.486-2.518Zm-59.084-60.375 44.154.565-4.252 49.381-38.59 1.689-1.312-51.635Zm-46.232 64.067 5.669.607c.282.032.566.039.846.028l20.742-.907 6.336 42.967c.082.554.558.961 1.114.961h.021l11.984-.222.496 19.568-39.062-.881a28203.42 28203.42 0 0 0-8.146-62.121Zm6.603 85.227c-6.877-.327-12.244-.553-15.143-.668-9.363-9.849-54.378-57.197-90.557-95.187l94.492 10.134c3.827 28.898 8.055 61.337 11.208 85.721Zm11.196-149.658 7.808 52.963-19.161.838-7.971-.855c-3.065-23.016-5.85-43.51-7.323-53.288l26.647.342Zm100.55-91.097c-1.704 6.88-2.81 11.323-2.856 11.513-.03.125-.051.252-.062.381l-1.264 17.483-69.537-.894-1.454-57.271c21.478-.571 37.097-.973 42.728-1.116l32.445 29.904Zm3.084-12.468-29.576-27.261c-.151-.14-.323-.248-.485-.367l-.76-.909 22.146-14.906 20.855-6.227c-3.732 15.398-8.481 34.688-12.18 49.67Zm7.785 7.176-4.009-3.694c3.035-12.281 6.901-27.965 10.35-42.101l19.656 17.972-25.997 27.823Zm65.136 7.968-26.419 27.717-37.061-34.158 26.003-27.829 37.477 34.27Zm8.745 7.997-26.953 27.291-6.557-6.044 26.428-27.724 7.082 6.477Zm21.321 16.446-27.337-24.999-.161-16.755v-.002l-.393-41.123 23.661 11.217 4.23 71.662Zm.077-36.889-2.027-34.315 13.063.677 1.168 33.208-12.204.43Zm13.535 37.398-11.269.973-2.134-36.122 12.15-.428 1.253 35.577Zm.918-37.906-1.161-33.012 13.032.677 1.129 31.877-13 .458Zm14.312 36.59-12.984 1.122-1.249-35.463 13.001-.455 1.232 34.796Zm16.389-37.669-15.452.543-1.122-31.683 13.816.717 2.758 30.423Zm2.254-.079-2.741-30.226 27.638 1.435 2.923 27.813-27.82.978Zm31.438 33.425-28.187 2.432-3.048-33.611 27.854-.98 3.381 32.159Zm32.062-53.711-14.812 31.072-16.214-10.576-3.127-29.755 2.412-7 31.741 16.259Zm6.55-37.326 9.018 4.666-14.599 30.627-31.971-16.377 8.077-23.441 29.475 4.525Zm-.297-2.322-28.431-4.368 13.434-38.993 29.716 13.152-14.719 30.209Zm20.576-9.8a1.117 1.117 0 0 0-.076.884c.093.295.308.536.586.667l10.261 4.84-7.16 15.555-22.042-11.404 14.635-30.038 11.534 5.104-7.738 14.392Zm11.712 4.347-9.167-4.325 7.257-13.5 8.402 3.719-6.492 14.106Zm21.078 9.944-19.04-8.985 6.515-14.154 19.604 8.676-7.079 14.463Zm22.869 10.789-20.83-9.828 7.1-14.511 16.974 7.511-3.244 16.828Zm18.526 11.23-17.998 9.806 3.235-16.771 14.763 6.965Zm19.746-10.76-17.298 9.427-16.77-7.915 3.242-16.822 30.826 15.31Zm1.947-1.545-32.12-15.953 15.195-30.003 31.692 17.379-14.767 28.577Zm23.29-10.618-20.262 9.662 13.173-25.487 7.089 15.825Zm2.033-.969-7.802-17.414 5.635-10.907 11.878 23.692-9.711 4.629Zm21.713 19.306-10.78 5.086-10.011-22.336 9.798-4.671 10.993 21.921Zm2.037-.96-10.997-21.931 19.649-9.365c2.195 7.517 4.579 15.674 6.985 23.919l-15.637 7.377Zm-40.876 21.771 1.87-.883c.207.185.45.317.726.317a1.115 1.115 0 0 0 1.114-1.183l53.441-25.211c2.996 10.27 6.005 20.593 8.723 29.913l-65.874-2.953Zm73.819 30.221-16.985 5.703-7.401-22.439 19.769.886c1.835 6.297 3.42 11.736 4.617 15.85Zm2.93 2.009c-1.215-4.17-3.014-10.349-5.172-17.752l10.364.465-5.192 17.287Zm36.654 17.379-27.201 8.566-6.531-20.018 6.906-23.005 16.554.741 10.272 33.716Zm21.51-32.29c1.88 6.457 3.39 13.481 4.22 20.987.11 1.049.22 2.076.33 3.095l-23.913 7.53-10.033-32.93 29.396 1.318Zm-.48-41.041 10.16 30.207-11.13-.5c-6.035-15.669-13.575-26.698-16.795-31.026l17.765 1.319Zm-.77-2.314-18.669-1.387-8.13-18.73 20.979 2.811 5.82 17.306Zm62.66 4.655-60.23-4.474-5.77-17.155 69.9 9.369-3.9 12.26Zm91.78 9.078-1.76 25.144-94.83-4.254 8.72-27.42 87.87 6.53Zm1.55-22.212-1.4 19.966-87.31-6.488 4.33-13.618 84.38.14Zm20.88 48.44-21.94-.983 3.32-47.453 23.55.039c-1.51 14.941-3.19 31.36-4.93 48.397Zm29.43 112.85-30.78 10.093c1.03-9.873 2.13-20.394 3.26-31.314 7.97-2.727 15.87-5.43 23.67-8.103l3.85 29.324Zm2.17-.712-3.85-29.355c9.31-3.188 18.47-6.33 27.45-9.408l9.64 27.868-33.24 10.895Zm40.15 9.076-37.17 13.61-2.68-20.414 33.68-11.039 6.17 17.843Zm34.83-12.753-30.6 11.204-6.29-18.174 22.7-13.881 14.19 20.851Zm2.18-.797-14.28-20.978 23.48-7.851 7.93 22.557-17.13 6.272Zm12.69 18.633-11.38-16.714 42.84-15.686 5.6 11.503-37.06 20.897Zm1.27 1.863 37.16-20.95 10.9 14.077-33.09 28.861-14.97-21.988Zm-23.65 13.336 21.68-12.225 15.23 22.368-2.54 2.21-23.66 11.42-10.71-23.773Zm-13 7.326 11.02-6.218 10.67 23.645-13.42 6.478-8.27-23.905Zm-33.57 49.103 39.24-18.943 10.49 30.326-39.19 18.993-10.54-30.376Zm-54.8 75.045-2.73-7.937c-.04-.242-.11-.629-.2-1.146l66.98-32.457 3.3 9.518-67.35 32.022Zm5.19 15.106-4.45-12.963 67.35-32.026 5.5 15.854-68.4 29.135Zm46.78 4.735-6.53-18.777c-.07-.21-.21-.369-.38-.496l29.27-12.469 6.81 19.615-29.17 12.127Zm28.32 42.879c-.26.086-4.54 1.686-11.86 4.439l-15.72-45.186 29.17-12.126 14.83 42.737c-8.95 5.91-14.96 9.651-16.42 10.136Zm-10.38 8.692c7.28-2.741 11.54-4.333 11.8-4.419 1.69-.563 7.68-4.243 16.43-9.998l11.58 37.351-27.88 11.381-11.93-34.315Zm-27.26 52.744 37.84-15.448 7.44 21.367-37.95 15.408-7.33-21.327Zm-38.63 87.009-13.2-39.239 49.45-20.07 13.56 39.487-49.81 19.822Zm36.4 22.001c-.01-.045 0-.092-.02-.138l-10.76-29.637 24.92-9.914 10.33 30.066-24.47 9.623Zm-17.17 36.695-7.76-24.472 49.57-19.492 1.89 28.784-43.7 15.18Zm-16.22 8.017 14.77-5.131 6.82 21.5-14.66 5.607-6.93-21.976Zm-2.13.737 6.95 22.044-6.79 2.596-7.22-22.185 7.06-2.455Zm-17.49-22.189 16.21-6.372 7.2 24.124-15.38 5.339-8.03-23.091Zm-11.91 4.688 9.82-3.861 8 23.003-10.18 3.536-7.64-22.678Zm-27.24 10.709 25.14-9.886 7.97 23.656v.004c0 .002.01.002.01.002l7.97 23.661-25.19 9.629c-3.93-11.822-9.4-27.976-15.9-47.066Zm-4.22 1.575c8.04 23.582 14.47 42.614 18.36 54.454l-60.02 22.875-1.38-.303-18.21-54.6 61.25-22.426Zm-24.82-72.404c8.82 25.622 17.05 49.618 24.09 70.274l-61.23 22.419-22.8-68.357 59.94-24.336Zm-81.6-40.82c18.11-7.094 38.48-14.984 59.56-23.095a60050.89 60050.89 0 0 1 21.31 61.783l-59.93 24.328-20.94-63.016Zm10.23 37.91-39.992 15.859c-.005-.026.002-.052-.007-.079l-11.204-37.411c10.743-4.361 23.993-9.621 38.873-15.46l12.33 37.091Zm34.09-105.103c4.56 13.182 9.18 26.535 13.78 39.851-21.05 8.1-41.4 15.983-59.51 23.078l-12.82-38.582 58.55-24.347Zm-65.689 2.875 58.549-23.526c2.11 6.119 4.25 12.298 6.4 18.517l-58.53 24.338-6.419-19.329Zm-59.752 24.007 57.659-23.167 6.432 19.355-72.476 30.137 8.385-26.325Zm-18.086 7.269 12.667-5.091-12.471 39.148a775.845 775.845 0 0 0-7.517-11.077l7.321-22.98Zm-18.413 7.399 15.704-6.311-6.233 19.561a664.017 664.017 0 0 0-9.471-13.25Zm-110.201-51.076c36.32 7.68 69.903 14.898 73.237 15.613 6.524 3.134 24.814 25.411 44.697 54.163l-10.156 31.889c-7.831-7.639-16.283-14.988-25.465-21.896-28.429-21.394-58.358-34.565-86.981-43.736l4.668-36.033ZM676.258 576.72c9.072 3.688 16.553 6.365 19.781 6.658 5.564.508 50.385 9.817 92.342 18.682l-4.64 35.812c-21.217-6.666-41.678-11.187-60.228-15.283-21.323-4.706-39.656-8.771-52.603-14.754 1.03-6.001 2.912-16.944 5.348-31.115Zm-23.104-38.698 24.379 4.695-4.758 27.693c-7.402-3.117-15.628-6.749-23.513-10.313l3.892-22.075ZM623.5 532.31l27.442 5.286-3.797 21.542a1609.867 1609.867 0 0 1-25.577-11.88l1.932-14.948Zm-51.611-26.404 51.746 7.782-4.243 32.851-41.58-13.111-9.399-7.76 3.476-19.762Zm-17.67-2.656 15.443 2.322-3.244 18.452-23.748-19.6 11.549-1.174Zm-23.707-23.526 42.437 7.146-2.899 16.484-15.637-2.35a1.15 1.15 0 0 0-.282-.007l-13.903 1.409-26.962-22.251 17.246-.431Zm-17.789-20.657 63.356 9.996-2.74 15.591-42.56-7.166c-.071-.013-.136-.013-.214-.017l-19.207.48 1.365-18.884Zm3.145-105.983-3.487 48.259-17.731.774 4.241-49.25 16.977.217Zm25.822.33-1.223 18.723-21.203-3.564 1.116-15.431 21.31.272Zm2.247-34.412-2.1 32.167-21.295-.273 2.442-33.774 20.953 1.88Zm-1.515-24.016 10.352 10.354-8.183 11.459-21.445-1.922 1.6-22.126 17.676 2.235Zm11.726 8.541-10.407-10.406a1.117 1.117 0 0 0-.655-.321l-18.177-2.293 1.248-17.285c.2-.803 1.012-4.071 2.216-8.932l32.87 30.298-7.095 8.939Zm16.315 23.199-23.576-9.268 8.263-11.571 7.753-9.768 11.747 10.828-4.187 19.779Zm31.031-8.752-4.314 19.256-24.591-9.669 3.987-18.839 3.459 3.189a5.638 5.638 0 0 0 1.98 1.181c.723.249 7.738 2.612 19.479 4.882Zm11.461-21.833c-1.414 4.648-2.206 8.925-2.637 11.878-12.376-1.975-20.735-4.359-23.567-5.231l-2.701-2.486 26.959-27.3 17.699 16.184c-4.956-.252-13.72.284-15.753 6.955Zm-.406 12.219c.421-2.88 1.196-7.074 2.562-11.564 1.912-6.287 12.634-5.531 15.776-5.169l1.11 18.82a238.82 238.82 0 0 1-19.448-2.087Zm35.802 13.933-4.517 34.989-46.652-5.275 1.919-13.05 4.605-20.567c11.346 2.072 26.63 3.946 44.645 3.903Zm37.544-2.886c.669 4.939 1.54 11.193 1.906 13.009.404 1.992-2.966 18.573-5.323 29.236l-8.119-.919c-.005 0-.007-.003-.013-.005l-.018.002-28.258-3.196 4.555-35.261a253.523 253.523 0 0 0 35.27-2.866Zm25.704-17.504c-8.528 2.582-16.488 4.578-23.549 5.77-1.994.336-3.967.635-5.929.915l-.584-21.106 28.289-2.444 1.773 16.865Zm25.764-32.188-23.385 11.734-3.049-28.98 26.434 17.246Zm20.646-13.631-2.048 4.297-16.27 8.165-10.948-7.142 6.711-14.076 22.555 8.756Zm5.262-11.049-4.292 9.011-22.553-8.757 4.394-9.221 22.451 8.967Zm7.55-15.857-6.582 13.821-22.446-8.968 6.638-13.925 22.39 9.072Zm9.826-20.63-8.855 18.595-22.391-9.072 9.825-20.606 12.924 6.687h.002l8.495 4.396Zm11.742 3.539-18.294-9.464 7.195-15.63 18.993 8.962-7.894 16.132Zm27.582 14.267-25.583-13.233 7.931-16.204 21.383 10.087-3.731 19.35Zm34.596 11.82-35.522 16.757 5.072-26.309 20.531-11.187 9.919 20.739Zm21.62 29.327-22.086 10.593-11.34-20.07a1381.707 1381.707 0 0 0 25.637-13.278l7.789 22.755Zm31.364 7.929-21.429 7.195-13.411-39.174 25.036 1.123 9.804 30.856Zm2.137-.716-9.542-30.031 19.437.87 7.672 23.262-17.567 5.899Zm24.866 16.236-18.043 5.238-6.145-19.337 17.593-5.902 6.595 20.001Zm31.013 34.776-15.402 5.367-10.659-32.318 15.656-4.932 10.405 31.883Zm24.117-31.724v.002l6.422 21.078-26.287 9.162-10.362-31.754 27.16-8.553 3.067 10.065Zm23.486-8.531-21.668 6.784-2.74-8.994 23.498-7.399c.35 3.361.65 6.557.91 9.609Zm7.83-35.369 16.94 50.4-21.29 7.42c-.13-10.59-1.06-22.488-2.73-37.685-.8-7.356-2.26-14.265-4.07-20.636l11.15.501Zm38.41-9.547-39.85-1.786-10.13-30.134 58.75 4.365-8.77 27.555Zm17.31 46.434-14.57-35.043 101.99 4.573-87.42 30.47Zm101.67 4.986-57.21 18.857-10.7-33.227 59.72-20.813 11.75.526c-1.17 11.452-2.37 23.087-3.56 34.657Zm.62 103.105c.76-7.254 1.6-15.169 2.47-23.582l31.34-10.276 2.7 20.493-36.51 13.365Zm44.87 16.735-48.13 20.272c.54-9.072 1.33-18.904 2.46-29.486.17-1.63.35-3.315.53-5.025l37.25-13.634 7.89 27.873Zm40.46-17.041-38.37 16.163-7.87-27.768 37.48-13.724 8.76 25.329Zm-4.53-26.878 31.17-11.413 11.59 17.024-22.32 12.587h-.01v.005l-11.83 6.668-8.6-24.871Zm-33.22 45.22 38.49-16.216 8.26 23.899-39.21 18.93-7.54-26.613Zm-50.72 79.52c-.41-5.328-.77-11.773-.95-19.322l58.63-28.306 7 20.173-64.68 27.455Zm.2 2.365 65.22-27.688 2.8 8.078-66.59 32.275c-.4-2.744-.94-6.968-1.43-12.665Zm-41.82 84.872-6.24-18.557 48.32-20.582 6.51 18.937-48.59 20.202Zm64.28 25.493c-14.97 5.671-31.77 12.045-49.4 18.758l-14.16-42.11 48.6-20.207 14.96 43.559Zm-5.28-50.023-6.54-19.031 37.34-15.904c-.02.153 0 .312.05.467l6.58 18.903-37.43 15.565Zm15.82 46.037-15.08-43.906 37.43-15.564 15.69 45.114c-9.14 3.436-22.28 8.392-38.04 14.356Zm1.46 4.253c15.78-5.966 28.93-10.922 38.06-14.359l11.96 34.375-37.84 15.446-12.18-35.462Zm-46.93 61.536 49.39-19.719 7.33 21.343-49.42 20.065-7.3-21.689Zm-25.47 59.132-6.44-19.098 37.83-15.357 6.77 20.116-38.16 14.339Zm6.69 19.85-5.97-17.718 38.16-14.336 5.7 16.974-37.89 15.08Zm-1.38 2.968 10.03 29.753-25.15 9.89c-3.15-9.253-6.55-19.175-10.12-29.598l25.24-10.045Zm-13.84-41.066 13.12 38.931-25.25 10.048a23909.15 23909.15 0 0 0-13.28-38.664l25.41-10.315Zm-8.11-24.067 7.39 21.929-25.42 10.321c-2.49-7.231-5.02-14.584-7.58-22.023l25.61-10.227Zm-13.29-39.433 12.57 37.296-25.63 10.234c-4.26-12.353-8.59-24.927-12.95-37.551 8.61-3.314 17.31-6.651 26.01-9.979Zm-15.2-45.088 13.76 40.828c-8.7 3.334-17.42 6.677-26.04 9.992-4.61-13.358-9.24-26.749-13.82-39.969l26.1-10.851Zm-6.85-20.343 6.13 18.202-26.11 10.86c-2.15-6.203-4.28-12.365-6.4-18.465l26.38-10.597Zm-32.34-6.625 66.65-26.562 4.75 14.127-38.8 16.527-27.37 10.998c-1.76-5.077-3.5-10.111-5.23-15.09Zm-62.578 24.945 58.388-23.272c1.72 4.982 3.47 10.018 5.23 15.103l-58.52 23.511-5.098-15.342Zm-46.648 18.59 44.551-17.756 5.102 15.351-56.062 22.524 6.409-20.119Zm-18.062 7.198 12.648-5.04-6.415 20.139-12.666 5.089 6.433-20.188Zm-2.709 1.079-6.434 20.197-17.969 7.222c-3.6-4.872-7.08-9.423-10.371-13.559l34.774-13.86Zm3.495-10.971-2.61 8.195-37.13 14.799a308.432 308.432 0 0 0-4.088-4.977l43.828-18.017Zm-44.296-10.352c.461-.051.83-.376.95-.824l49.5-42.948 12.912-4.56a21668.043 21668.043 0 0 1-16.238 49.81l-1.934 6.074-46.249 19.01c-5.512-6.442-10.19-11.235-13.619-13.826l14.678-12.736Zm-45.248-26.565 45.046 8.947-.793 12.52-18.066 15.674c-3.888-.836-16.117-3.463-32.31-6.92l6.123-30.221Zm-42.693-8.48 40.484 8.041-6.115 30.19a24977.313 24977.313 0 0 0-38.27-8.129l3.901-30.102Zm-35.845 2.311 32.209 8.224-2.473 19.1a12730.265 12730.265 0 0 0-32.996-6.929l3.26-20.395Zm-15.931-38.571 19.345 2.91-8.88 55.597a6184.884 6184.884 0 0 0-19.316-3.995l8.851-54.512Zm-17.414-2.617 15.189 2.283-8.831 54.394a2877.284 2877.284 0 0 0-14.928-3.018l8.57-53.659Zm-10.716-1.613 8.489 1.277-8.553 53.556c-3.139-.623-5.964-1.172-8.431-1.641l8.495-53.192Zm-12.578-1.891 10.351 1.557-8.482 53.108c-4.043-.752-6.832-1.222-8.008-1.331-.669-.059-1.6-.263-2.711-.565l8.85-52.769Zm-17.095-2.57 14.868 2.236-8.797 52.461c-3.674-1.176-8.74-3.123-14.525-5.503l8.454-49.194Zm-28.92-4.35 24.466 3.679-3.124 18.178-24.37-4.693 3.028-17.164Zm-30.71-4.618 28.483 4.284-3.011 17.073-27.546-5.305 2.074-16.052Zm.084-18.226-2.022 15.659-51.645-7.765 2.89-16.445 50.777 8.551Zm-47.641-26.382 50.028 7.893-2.1 16.255-50.674-8.533 2.746-15.615Zm1.913-23.893-3.75 21.336-63.583-10.026 1.609-22.256 65.724 10.946Zm-20.532-67.872-5.979 28.254-13.068-1.857 1.911-29.275 17.136 2.878Zm5.067-23.938-4.6 21.734-17.455-2.933 1.245-19.068 20.81.267Zm.474-2.24-21.137-.273 2.065-31.608 23.835 9.371-4.763 22.51Zm29.702.381-27.406-.353 4.594-21.704 24.632 9.684-1.82 12.373Zm41.126 65.654c-16.1-2.251-32.099-4.5-47.523-6.677l8.323-56.599 46.69 5.281-7.49 57.995Zm32.368-26.2a85599.77 85599.77 0 0 1-26.153-4.337l3.513-27.206 27.096 3.065-4.456 28.478Zm39.337-24.534-5.184 30.195a124655.48 124655.48 0 0 1-31.931-5.294l4.472-28.593 32.643 3.692Zm108.377-70.469-1.036-24.141c.294-.217.524-.51.686-.851 9.074-4.353 17.51-8.522 24.96-12.272l11.319 20.03-35.929 17.234Zm45.106-.993-44.149 23.295-.855-19.867 36.936-17.708 8.068 14.28Zm1.991-1.051-8.026-14.205 21.711-10.408 5.044 14.731-18.729 9.882Zm31.002 25.97-26.587 8.821-3.655-32.659 18.702-9.871 11.54 33.709Zm-4.032-25.682-3.358-9.804 21.386-7.175 3.556 11.192-21.584 5.787Zm28.956 17.41-20.651 6.855-7.575-22.13 21.536-5.775 6.69 21.05Zm2.137-.709-4.103-12.912 18.068-5.245 4.02 12.189-17.985 5.968Zm8.557 26.925-7.876-24.78 18.008-5.975 8.053 24.416-18.185 6.339Zm40.217 60.467c-6.492 2.171-12.828 4.286-18.989 6.339l-20.547-64.661 18.21-6.345 21.326 64.667Zm17.386-5.826c-5.168 1.734-10.257 3.44-15.252 5.111l-21.334-64.693 15.394-5.367 21.192 64.949Zm17.473-48.778-24.951 11.346-9.462-28.997 26.244-9.147 8.169 26.798Zm-6.698-29.697-6.073-19.93 21.211-6.638c.63 7.737.98 14.573 1.03 20.935l-16.168 5.633Zm11.428 37.515-10.771-35.359 15.521-5.408c-.05 13.982-1.58 25.915-4.75 40.767Zm29.51-47.705-25.41 79.821c-4.01 1.351-8 2.695-11.93 4.017 4.9-16.085 8.38-28.099 9.52-33.317 3.62-16.428 5.32-29.159 5.31-44.368l22-7.667.51 1.514Zm1.46-4.584-.56.196-16.66-49.551 32.46 1.454-15.24 47.901Zm5.31-1.852 14.22-44.679 14.43 34.696-28.65 9.983Zm42.71 23.839-18.96 6.246-11.01-32.139 16.77-5.846 13.2 31.739Zm2.14-.706-13.21-31.776 30.77-10.724 10.69 33.189-28.25 9.311Zm34.29 9.431-26.63 8.997-6.79-16.343 28.07-9.253 5.35 16.599Zm49.46-.9c-14.32 4.893-28.58 9.757-42.7 14.568l-4.29-13.314v-.003l-5.68-17.653 56.27-18.548c-1.21 11.831-2.42 23.571-3.6 34.95Zm1.08 105.209 48.88-20.593 7.58 26.729-57.24 27.63c-.12-9.665.07-20.931.78-33.766Zm-56.61 99.958 48.36-19.878 3.07 8.928-48.6 19.369-2.83-8.419Zm-2.09.859 2.83 8.394-66.68 26.572c-.88-2.561-1.77-5.107-2.64-7.634l66.49-27.332Zm-74.43 4.43c.08-.01.16-.014.24-.04l67.86-23.228 5.62 16.701-66.52 27.337c-2.45-7.077-4.86-14.013-7.2-20.77Zm-54.292 48.481 58.052-23.864c.87 2.513 1.75 5.044 2.63 7.59l-58.361 23.261-2.321-6.987Zm-40.025 16.449 37.937-15.593 2.314 6.965-42.955 17.119 2.704-8.491Zm-35.688-52.162 1.771-26.274 26.688 3.075 6.569 20.072-15.923 5.624-19.105-2.497Zm-25.279-1.038 41.888 5.478-44.692 38.777 2.804-44.255Zm-45.98 7.759 2.718-13.415 41.024 5.364-.969 15.294-42.773-7.243Zm-.446 2.207 43.075 7.297-.901 14.274-44.744-8.887 2.57-12.684Zm-43.915-7.435 41.694 7.06-2.557 12.62-40.641-8.071 1.504-11.609Zm-12.747-16.274 12.344 1.858-4.734 36.549-12.647-3.228 5.037-35.179Zm-19.253-2.895 17.028 2.561-5.007 34.952-17.306-4.419 5.285-33.094Zm-14.491-46.846 19.262 2.698-6.643 41.591-19.335-2.907 6.716-41.382Zm-17.554-2.462 15.327 2.149-6.716 41.359-15.193-2.284 6.582-41.224Zm-10.735-1.503 8.504 1.191-6.58 41.201-8.491-1.276 6.567-41.116Zm-12.259-1.719 10.03 1.406-6.563 41.093-10.334-1.553 6.867-40.946Zm-16.949-2.376 14.718 2.063-6.861 40.924-14.859-2.236c2.253-13.119 4.618-26.874 7.002-40.751Zm-38.903 18.215 2.577-16.475 30.627 4.832c-.967 5.63-1.928 11.225-2.879 16.75l-30.325-5.107Zm-.349 2.225 30.294 5.102c-.844 4.918-1.678 9.766-2.5 14.541l-30.158-4.536 2.364-15.107Zm-2.22-.375-2.369 15.148-22.887-3.442 2.018-15.619 23.238 3.913Zm-20.849-22.425 23.772 3.749-2.574 16.453-23.3-3.926 2.102-16.276Zm-23.908-27.736 24.69 4.112-2.717 21.045-25.176-3.971 3.203-21.186Zm-2.221-.37-3.205 21.205-22.529-3.552 3.746-21.315 21.988 3.662Zm27.201 2.248-19.337-3.22 4.739-22.38c5.757.806 11.624 1.63 17.584 2.462l-2.986 23.138Zm30.354-19.322-3.717 23.759-24.416-4.068 2.996-23.195a31512.87 31512.87 0 0 0 25.137 3.504Zm1.739-11.116c-8.452-1.174-16.953-2.362-25.437-3.545l3.696-28.614c3.202.532 12.931 2.145 26.096 4.327l-4.355 27.832Zm36.018-7.883-31.917-3.767 2.474-15.813 31.899 5.287c-.795 4.633-1.616 9.411-2.456 14.293Zm31.386-9.496-1.396 12.197v.005l-1.61 14.041c-8.439-1.148-17.156-2.34-26.073-3.567 1.588-9.258 3.13-18.233 4.592-26.736 8.09 1.34 16.367 2.714 24.487 4.06Zm30.572-16.212-2.091 18.652-52.587-8.719c1.084-6.325 2.122-12.367 3.102-18.068l51.576 8.135Zm1.65-14.713-1.398 12.475-51.447-8.116c.605-3.532 1.185-6.913 1.74-10.14l51.105 5.781Zm-19.538-30.462-2.996 25.648-28.191-3.187 2.42-14.1 28.767-8.361Zm-26.046-7.532 27.815-7.577 3.879 11.122-4.651 1.353c-.006.002-.01.004-.015.004l-29.328 8.525c.98-5.709 1.761-10.271 2.3-13.427Zm27.072-9.709-26.654 7.262c.2-1.169.34-1.992.398-2.354.982-5.873.028-13.427-.87-18.452 6.448-2.011 13.158-4.314 20.018-6.834l7.108 20.378Zm18.706-5.094-16.527 4.503-7.176-20.567a640.732 640.732 0 0 0 16.968-6.601l6.735 22.665Zm.236-7.112-4.874-16.406c18.521-7.564 37.225-16.057 53.967-24.039l1.053 24.526-50.146 15.919Zm5.825 19.606-5.183-17.446 49.603-15.759.86 20.043-45.28 13.162Zm26.94 3.259 1.35-8.699a1.119 1.119 0 0 0-.017-.433l17.108-4.973.633 14.771-19.074-.666Zm-2.492 16.044 2.143-13.802 19.52.681.648 15.094-22.311-1.973Zm23.291 24.84-26.679-3.019 3.043-19.59 22.753 2.01.883 20.599Zm23.951-39.101-23.046 7.649-1.045-24.354 15.528-8.197 8.563 24.902Zm-1.462-11.182-5.083-14.784 27.11-14.311 2.232 19.973-24.259 9.122Zm3.601 10.472-2.869-8.342 23.787-8.945 1.116 9.976-22.034 7.311Zm25.353 22.367-15.773 5.497-8.85-25.736 21.558-7.153 3.065 27.392Zm34.733-12.104-32.553 11.344-3.061-27.358 27.061-8.979 8.553 24.993Zm4.254-1.482-8.534-24.929 20.604-6.836 7.885 24.81-19.955 6.955Zm22.589 65.994-21.863-63.864 19.91-6.94 20.537 64.631c-6.395 2.13-12.585 4.185-18.584 6.173Zm33.872 43.202-19.064 5.677-12.818-37.699c6.443-2.126 13.104-4.333 19.956-6.608l11.926 38.63Zm19.238-15.794a11142.564 11142.564 0 0 1-11.051 34.683l-17.974-58.229c6.235-2.072 12.63-4.202 19.156-6.38l9.869 29.926Zm9.399-29.879a6443.816 6443.816 0 0 1-8.238 26.211l-8.894-26.971c4.998-1.671 10.076-3.371 15.22-5.094l1.912 5.854Zm-1.143-18.012-11.045-33.844 24.909-11.327 3.07 10.074c-1.53 6.147-4.9 17.692-9.454 32.585-2.509.843-5.008 1.683-7.48 2.512Zm9.964 30.53-5.304-16.252c.461-1.485.916-2.951 1.362-4.396 3.892-1.304 7.812-2.622 11.772-3.953l-7.83 24.601Zm26.28-2.451-23.2 7.603 10.04-31.532c1.34-.454 2.69-.907 4.04-1.361l9.12 25.29Zm32.71-51.337c-14.24 4.821-28.14 9.518-41.62 14.063l22.54-70.818 19.08 56.755Zm-2.72-15.16-15.21-45.223 2.34-7.346 11.46-3.992 11.38 33.181a1.11 1.11 0 0 0 1.41.702l20.18-6.647 6.8 16.36-38.36 12.965Zm44.2 1.085c-13.33 4.53-26.47 8.988-39.35 13.352l-4.14-12.303 38.51-13.014 4.98 11.965Zm2.13-.726-4.97-11.96 26.45-8.939 3.94 12.251c-8.53 2.904-17.01 5.792-25.42 8.648Zm32.26 12.262-25.08 8.288-3.18-9.979c8.31-2.825 16.62-5.653 24.91-8.482l3.35 10.173Zm2.14-.706-3.35-10.194c12.71-4.332 25.39-8.659 37.92-12.943-.42 4.11-.84 8.163-1.26 12.131l-33.31 11.006Zm5.43 16.502-4.73-14.362 32.36-10.689c-.6 5.703-1.17 11.235-1.73 16.557l-25.9 8.494Zm7.77 23.63-7.07-21.491 24.94-8.178c-.9 8.68-1.75 16.753-2.53 24.054l-15.34 5.615Zm12.74 24.453-4.21 1.452-7.82-23.764 14.37-5.262a656.21 656.21 0 0 0-2.34 27.574Zm.52 70.172c.66 6.537 1.34 10.806 1.71 12.813l-48.57 19.962-3.79-11.275 50.65-21.5Zm-58.42-1.617 57.01-20.135c.26 7.707.7 14.177 1.18 19.402l-51.14 21.709-1.42-4.222v-.002l-5.63-16.752Zm-64.95 39.773c-1.77-5.112-3.5-10.111-5.2-14.998l68.03-24.024 5.26 15.663-67.87 23.232c-.08.028-.14.083-.22.127Zm-60.139 30.795 58.969-20.431c1.61 4.652 3.24 9.376 4.9 14.166l-58.025 23.853-5.844-17.588Zm-15.255-20.998 5.285-1.867 13.727 41.309-36.332 14.934 17.32-54.376Zm-4.969-32.07 5.401 15.878-4.044 12.69-11.974 4.228c3.311-10.2 6.895-21.269 10.617-32.796Zm-23.161-1.568 20.466-6.359 1.482 4.358a22986.873 22986.873 0 0 1-11.239 34.728l-10.709-32.727Zm-22.979-2.759 20.655 2.894 4.241 12.964-25.766-2.968.87-12.89Zm-25.15-5.799 2.328-36.727 23.369.937-2.63 39.025-23.067-3.235Zm-.998 15.777.857-13.522 23.055 3.231-.874 12.943-23.038-2.652Zm-.142 2.249 23.029 2.653-1.77 26.237-22.898-2.996 1.639-25.894Zm-39.114-6.772 2.88-14.219 34.996 4.906-.858 13.578-37.018-4.265Zm-.448 2.216 37.322 4.298-1.637 25.861-40.716-5.323 5.031-24.836Zm-25.112 22.209 7.558-41.571 18.648 2.614-8.365 41.289-17.841-2.332Zm-25.622-1.081 43.015 5.626-2.699 13.332-41.853-7.088 1.537-11.87Zm-8.257-46.295 11.772 1.648-5.455 42.103-12.314-1.854 5.997-41.897Zm-18.567-2.604 16.34 2.291-5.995 41.876-16.993-2.555 6.648-41.612Zm-14.581-45.58c6.696.892 13.117 1.741 19.175 2.533l-6.47 40.512-19.253-2.701 6.548-40.344Zm-17.681-2.375c5.277.712 10.444 1.406 15.45 2.076l-6.548 40.331-15.333-2.148 6.431-40.259Zm18.308-21.63-1.407 12.555c-8.296-1.109-17.048-2.291-26.154-3.528l1.477-12.899 26.084 3.872Zm.252-2.242-26.081-3.87 1.264-11.039c9.079 1.504 17.913 2.968 26.006 4.312l-1.189 10.597Zm7.418-45.952 22.496 2.544-5.343 34.403-20.908-3.467 3.755-33.48Zm33.866 3.87v35.845c-.068-.011-.144-.019-.208-.03l-14.283-2.369 5.359-34.52 9.139 1.034c0 .013-.007.026-.007.04Zm-18.63 60.097 3.791-24.425 14.262 2.365c.173.029.388.05.577.078v24.377a4197.394 4197.394 0 0 1-18.63-2.395Zm13.548 13.074-5.84 40.8-16.306-2.285 6.474-40.533a4165.58 4165.58 0 0 0 15.672 2.018Zm13.452 1.671-5.324 41.087-11.74-1.647 5.845-40.827c4.039.509 7.778.97 11.219 1.387Zm4.679-36.115-3.238 24.982c-2.356-.286-4.887-.599-7.562-.933v-24.415c3.761.314 8.54.364 10.8.366Zm.292-2.253c-2.13-.002-7.286-.041-11.092-.369v-35.891l15.56 1.76-4.468 34.5Zm6.759-34.656 21.519-7.501 20.899 62.62c-17.577 5.538-28.618 8.752-31.241 8.986-2.116 0-8.915-.704-19.23-1.943l8.053-62.162Zm21.873-10.008h-.001c-.002 0-.002.002-.002.002l-21.837 7.609-1.237-28.818 23.68-7.857 8.86 25.766-9.463 3.298Zm34.713 12.457 14.948 43.321a3556.496 3556.496 0 0 1-26.969 8.669l-20.918-62.681 26.111-9.1 6.828 19.791Zm14.478-5.858-12.701 4.103-6.479-18.777 12.906-4.498 6.274 19.172Zm4.941 7.855-9.087-27.768 17.78-6.198 9.682 28.286-18.375 5.68Zm5.027 15.366-4.327-13.225 18.405-5.691 4.415 12.902-18.493 6.014Zm6.753 20.644-6.053-18.504 18.523-6.024 6.281 18.349a7437.76 7437.76 0 0 1-18.751 6.179Zm7.542 23.046-4.055-12.389a7443.59 7443.59 0 0 0 19.389-6.364l4.202 12.358-19.536 6.395Zm8.129 24.841-7.429-22.702 19.562-6.401 7.872 23.145-20.005 5.958Zm-1.555 2.483 13.701 41.877-19.723-2.763 2.647-39.248 3.375.134Zm-27.931-17.965 19.918-6.518 7.265 22.202-28.105-1.127.922-14.557Zm15.163-21.048 4.055 12.389-19.065 6.24.889-14.041a5891.49 5891.49 0 0 0 14.121-4.588Zm-15.456-6.741-14.58-42.25 12.667-4.092 13.884 42.43a8923.54 8923.54 0 0 1-11.971 3.912Zm-31.883 35.95 3.041-15.013a2981.067 2981.067 0 0 0 27.873-8.863l-.888 14.05-30.026 9.826Zm-3.737 18.449 3.222-15.91 30.388-9.946-1.886 29.759-31.724-3.903Zm-.449 2.213 32.032 3.941-1.298 20.453-34.69-4.861 3.956-19.533Zm-21.389-2.632 19.149 2.354-3.95 19.5-18.695-2.623 3.496-19.231Zm22.6-14.686-3.003 14.828-19.369-2.383v-5.124l22.372-7.321Zm-23.849 5.437a1.125 1.125 0 0 0-.774 1.07l.015 5.663-26.3-3.235 2.593-20.007c10.941 1.309 18.303 2.069 20.673 2.069 2.433 0 13.592-3.131 31.207-8.591l-3.052 15.057-24.362 7.974Zm-4.87 30.388-7.573 41.587-23.096-3.018 5.454-42.105 25.215 3.536Zm-24.923-5.768 2.447-18.891 26.376 3.246-3.495 19.195-25.328-3.55Zm153.27 12.034-20.44 6.354-13.851-42.328 20.029-5.964 14.262 41.938Zm3.365 2.903-.851-2.504v-.001l-14.616-42.98 19.003-5.658 6.324 20.483a17739.31 17739.31 0 0 1-9.86 30.66Zm8.876 33.092-2.137.752 1.157-3.63.98 2.878Zm7.236-43.505-9.506 29.837-5.392-15.855c3.212-9.951 6.509-20.199 9.805-30.474l5.093 16.492Zm12.452-39.101-11.258 35.346-5.086-16.481c3.761-11.743 7.502-23.468 11.093-34.789l5.251 15.924Zm1.165-3.656-5.255-15.934a6767.28 6767.28 0 0 0 8.236-26.173l5.279 16.175-8.26 25.932Zm39.77 64.849-16.46 5.815-20.906-63.375 8.316-26.104c4.46 12.832 15.25 43.878 29.05 83.664Zm6.95-73.261-24.5 8.973c-4.65-13.371-7.84-22.566-9.08-26.139l24.5-8.034 9.08 25.2Zm30.04-57.314v.002l5.13 15.236-42.87 14.056-9.13-25.307c14.13-4.758 28.62-9.65 43.3-14.621l3.57 10.634Zm1.78-1.773-3.22-9.584c13.14-4.45 26.43-8.96 39.75-13.49l3.17 9.961-39.7 13.113Zm44.95 3.371-39.46 12.94-4.77-14.176 39.67-13.104 4.56 14.34Zm2.14-.7-4.57-14.345 25.11-8.294 4.72 14.357-25.26 8.282Zm7.84 24.655-7.16-22.508 25.28-8.288 7.1 21.563-25.22 9.233Zm8.11 25.465-7.42-23.318 25.23-9.238 7.81 23.723-25.62 8.833Zm-31.9 39.803v-.002l-2.51-7.457c.01-.004.02-.002.03-.006l38.39-12.318 6.34 19.923-37.73 13.324-4.52-13.464Zm-42.63 16.253 40.86-14.435 4.17 12.397-40.6 14.338-4.43-12.3Zm-11.86-26.273-24.94 8.596c-2.69-7.738-5.13-14.773-7.29-20.982l24.53-8.982 7.7 21.368Zm35.44-39.562-41.79 15.303-9.06-25.128 42.83-14.041 8.02 23.866Zm2.12-.775-8.01-23.793 39.43-12.926 7.19 22.581-38.61 14.138Zm4.8 13.418c-.09.037-.16.1-.24.158l-3.85-11.441 38.58-14.125 3.39 10.648-37.88 14.76Zm3.45 11.125-3.01-8.955c.13-.001.25-.022.38-.072l37.75-14.71 3.33 10.482-38.45 13.255Zm5.46 16.236-4.75-14.103 38.42-13.244 4.78 14.995-38.4 12.32c-.02.008-.03.025-.05.032Zm-49.14-1.178-7.72-21.405 41.75-15.286 7.52 22.366-41.55 14.325Zm42.26-12.191 7.61 22.63-40.9 14.45-8.21-22.77 41.5-14.31Zm-68.59 23.651 24.96-8.607 13.41 37.204-25.34 8.953c-4.75-13.67-9.13-26.313-13.03-37.55Zm-49.722 59.711-1.951-5.738 21.922-68.826 19.941 60.467-39.912 14.097Zm59.972-16.406c2.43 7.009 4.95 14.27 7.54 21.735l-58.939 20.418-7.136-21.478 58.535-20.675Zm131.28-51.14-18.47 6.521-6.66-20.933v-.004l-5.13-16.111 31.13-10.73c-.96 16.126-1.12 29.889-.87 41.257ZM768.223 349.776l1.656-14.756 25.7-7.47-3.774 24.311-23.582-2.085Zm23.234 4.314-3.033 19.538-22.589-2.553 2.136-19.061 23.486 2.076Zm-39.834-16.108-3.866-11.088 16.426-4.472 3.258 10.963-15.818 4.597Zm15.913-2.281-3.939 35.122-20.546-2.324 3.104-26.585 21.381-6.213Zm-7.269 85.008 1.309-11.676 20.815 3.452-3.804 24.502a7887.22 7887.22 0 0 1-19.85-2.629l1.528-13.641c.002 0 .002-.002.002-.002v-.006Zm-31.405 20.97c2.868.391 5.701.773 8.511 1.154l-6.429 40.249-8.505-1.193 6.423-40.21Zm-11.935-1.625 9.705 1.323-6.422 40.199-10.011-1.404 6.728-40.118Zm-16.789-2.3c4.893.674 9.752 1.338 14.558 1.995l-6.727 40.111-14.711-2.061c2.309-13.438 4.631-26.943 6.88-40.045Zm-34.186-16.081 1.523-9.733 31.883 3.761-1.777 10.345a22770.243 22770.243 0 0 1-31.629-4.373Zm-5.466 34.934 3.726-23.818c10.489 1.456 21.038 2.917 31.463 4.353l-4.23 24.623-30.959-5.158Zm-.349 2.225 30.925 5.152c-1.166 6.797-2.339 13.61-3.503 20.388l-30.66-4.833 3.238-20.707Zm-16.927 18.547-12.364-1.95 2.714-21.023 12.979 2.162-3.329 20.811Zm5.55-20.441 9.158 1.525-3.243 20.723-9.241-1.456 3.326-20.792Zm-62.108-35.01c8.889 1.253 18.322 2.582 28.142 3.959l-4.726 22.322-27.239-4.536 3.823-21.745Zm-11.017-27.417 12.8 1.504-2.132 14.5c-4.304-.606-8.564-1.209-12.762-1.803l2.094-14.201Zm14.743-11.706-1.615 10.981-12.797-1.504 1.713-11.611 12.699 2.134Zm-13.477-4.547h-.006l-14.519-2.44 4.673-22.079 27.552.353-3.896 26.486-13.804-2.32Zm-3.502 15.991-2.089 14.148c-5.221-.738-10.354-1.466-15.368-2.177l2.895-13.682 14.562 1.711Zm-14.093-3.923 2.604-12.304 13.548 2.276-1.731 11.723-14.421-1.695Zm383.43 216.673-2.681 8.415-12.65 5.04 2.622-8.232 12.709-5.223Zm-11.816 2.425 1.361-4.269c.222-.678 7.123-21.745 16.768-51.446l12.012-4.244-17.433 54.734-12.708 5.225Zm191.64-64.324 48.61-19.376 4.42 12.877-48.3 20.576-4.73-14.077Zm-28.19 51.358-6.14-18.198 37.7-16.059 6.24 18.538-37.8 15.719Zm14.5 43.03-13.78-40.889 37.8-15.719 14.13 42.045c-12.44 4.737-25.27 9.633-38.15 14.563Zm51.92 26.38-37.93 15.144-12.56-37.266c12.88-4.926 25.71-9.82 38.16-14.56l12.33 36.682Zm8.02 23.839-37.84 15.361-7.39-21.918 37.93-15.145 7.3 21.702Zm-18.25-61.322c17.64-6.714 34.45-13.092 49.43-18.765l12.27 35.696-49.38 19.716-12.32-36.647ZM759.239 258.737l23.41-49.153 9.745 5.04c.002.002.002.003.004.003h.004l26.951 13.943-60.114 30.167Zm59.787-27.483-5.51 28.586c-29.764 14.338-66.872 30.946-97.532 40.705l-1.754-16.703 104.796-52.588ZM690.008 331.968c-.353-1.745-1.221-7.989-1.887-12.912.602-.095 1.198-.181 1.803-.283 7.11-1.201 15.015-3.142 23.438-5.638.81 4.687 1.614 11.363.776 16.39-.313 1.876-2.589 15.172-5.997 35.028l-23.414-2.649c1.448-6.549 5.871-27.017 5.281-29.936ZM516.91 401.143l2.191-30.313 21.219 3.564-1.917 29.334c-6.403-.911-12.561-1.79-18.396-2.622a5.684 5.684 0 0 0-1.042-.053l-2.055.09Zm2.023 11.181c5.07.725 30.8 4.394 65.489 9.289l-3.814 21.69-65.951-10.985 1.437-19.869 2.839-.125Zm674.557 350.81-37.92 14.915-10.03-29.762 37.89-15.079 10.06 29.926Zm8.42 26.535-8.17 2.841-7.22-24.211 7.66-3.012 7.73 24.382Zm-16.38-57.295 22.81-9.08 10.73 29.574c.03.067.09.102.13.162l-23.61 9.281-10.06-29.937ZM947.729 271.059l6.735 20.645-15.661 4.932-8.708-26.402 16.912-5.675 1.11 3.81-.405 1.344c-.132.44-.125.909.017 1.346Zm-81.435-65.352 22.279-10.624 10.007 22.328-23.097 10.895-9.189-22.599Zm7.149 23.561-16.839 7.944-9.975-20.856 17.654-9.619 9.16 22.531Zm-212.916 22.98 15.576-.549 3.059 33.727-17.408 1.503-1.227-34.681Zm18.764 35.426.586 21.22a242.17 242.17 0 0 1-45.615 1.695l-1.119-18.93 46.148-3.985Zm-228.355 3.868 69.319.89-4.222 58.406-63.611-.816-1.486-58.48Zm1.458 146.033.508 19.951-10.978.201-2.86-19.402 13.33-.75Zm-18.276-32.805-7.79-52.832 23.899.306 1.314 51.764-17.423.762Zm17.711 10.492.509 20.061-13.602.766-2.968-20.123 16.061-.704Zm759.691 397.251-6.8-21.435 43.17-14.993 1.43 21.977-37.8 14.451Zm38.49-3.895 1.65 25.196-29.98 10.729-7.11-22.414 35.44-13.511Zm-36.12 11.358-1.69-5.312 37.28-14.25.38 5.853-35.97 13.709Zm-48.41-667.615.54-9.283 27.56-.312c-.3 2.996-.64 6.338-1.01 10.011l-27.09-.416Zm-49.08-.754 2.27-7.993 45.09-.51-.53 9.222-46.83-.719Zm-30.79-.472 1.2-7.161 29.51-.334-2.25 7.931-28.46-.436Zm78.67 3.459h.01l28.06.431-4.1 40.428-109.99-.181 6.98-41.89 79.04 1.212Zm-589.378 62.018 16.044-17.168 9.568 4.536.377 39.379-25.989-26.747Zm26.021 30.008.138 14.235-36.398-33.282 8.7-9.313 27.56 28.36Zm-214.6 44.091 62.36.801 1.486 58.481-53.116-.682c-.289-1.831-.504-3.067-.627-3.563-.665-2.655-5.031-26.714-10.103-55.037Zm-51.788 1.855 47.213-1.853c5.149 28.752 9.612 53.342 10.308 56.129.185.737.599 3.315 1.189 7.339l-51.998 5.501-6.712-67.116Zm-64.802 2.548 62.549-2.458 6.725 67.262-53.937 5.706c-4.146-20.531-9.983-48.442-15.337-70.51Zm-4.582.18c6.729 27.712 14.408 65.591 18.373 85.622-13.13-13.767-22.422-23.481-23.945-25.006-3.609-3.608-14.794-8.615-39.46-19.176-5.992-2.565-12.058-5.165-17.782-7.682l-1.42-31.235 64.234-2.523Zm-65.225-19.292a1.093 1.093 0 0 0-.105-.42l-16.203-35.122c13.088-.698 34.629-1.532 60.486-2.415 5.204 11.937 9.468 21.401 11.613 25.478 2.23 4.237 5.413 15.404 8.889 29.54l-63.792 2.507-.888-19.568Zm-21.023 22.681 19.764-.776 1.371 30.128c-8.578-3.802-16.225-7.381-21.447-10.332-6.244-3.53-12.394-8.626-18.032-14.653l18.344-4.367Zm-3.507-57.724c1.599-.118 3.567-.239 5.805-.366l16.485 35.732.879 19.333-19.86.78a1.06 1.06 0 0 0-.216.03l-19.684 4.687c-9.985-11.239-18.111-25.389-21.769-38.98-.753-2.794-1.828-8.017-3.129-14.995 18.094-3.281 32.887-5.596 41.489-6.221Zm-7.857-31.069 8.714 19.725c-.583.039-1.16.076-1.675.116-8.979.653-24.19 3.022-42.674 6.367a2560.19 2560.19 0 0 1-4.007-23.533l39.642-2.675Zm-.967-2.192-39.047 2.634a6088.593 6088.593 0 0 1-5.712-35.255l25.488-11.004 19.271 43.625Zm2.389-.16-19.594-44.358 36.126-15.596 22.245 57.339-38.777 2.615Zm70.336 19.409c-26.962.936-48.843 1.809-60.65 2.519l-8.719-19.737 60.282-4.065a4520.18 4520.18 0 0 0 9.087 21.283Zm10.433-68.157 11.559 24.825-29.979 13.079a7949.118 7949.118 0 0 1-10.257-24.371l28.677-13.533Zm-10.799-23.193 9.849 21.153-28.597 13.496c-3.821-9.119-7.131-17.058-9.47-22.675l28.218-11.974Zm-.952-2.044-28.13 11.939-2.77-6.668-.256-.629 26.77-14.067 4.386 9.425Zm25.268-27.541L234.64 121.04l-20.007-42.965 32.166-12.256 16.448 40.193Zm2.003-1.053-8.326-20.345 28.058-12.021 7.422 18.1-27.154 14.266Zm35.201 5.363-28.048 12.118-6.3-15.396 27.154-14.269 7.194 17.547Zm2.067-.892-7.258-17.708 4.98-2.617 7.838 17.92-5.56 2.405Zm13.44 15.618-5.895 2.781-6.69-16.318 5.605-2.421 6.98 15.958Zm2.036-.961-6.948-15.891 13.452-5.811 6.787 15.43-13.291 6.272Zm14.196-4.212 8.809 20.024-13.591 5.712-8.51-19.462 13.292-6.274Zm3.168-3.983-3.564-8.103 37.255-15.56 3.159 6.275-36.85 17.388Zm4.933 11.215-4.026-9.154 36.954-17.44 4.928 9.79-37.856 16.804Zm6.468 14.704-5.56-12.643 37.962-16.851 6.041 12.005-38.443 17.489Zm44.166-6.117-39.374 17.011-3.884-8.834 38.546-17.537 4.712 9.36Zm2.059-.891-4.73-9.397 30.279-13.774 6.018 9.533-31.567 13.638Zm4.162 8.266-3.149-6.252 31.769-13.725 3.274 5.187-31.894 14.79Zm19.578 6.076a1.086 1.086 0 0 0-.498.091 1.077 1.077 0 0 0-.428.366l-12.297 6.089-5.343-10.61 32.094-14.883 1.228 1.947h.002l4.659 7.385-19.417 9.615Zm12.382-3.622 8.243-4.08 11.946 18.926-9.682 4.478-10.507-19.324Zm-.979 27.118 10.515-4.863 10.612 19.516-12.915 3.365-8.212-18.018Zm-13.053 6.038 11.011-5.094 8.042 17.649-11.256 2.935-7.797-15.49Zm-4.926 43.143-.952-24.928 12.346-.267 10.586 24.597-21.98.598Zm-33.919 12.202a47697.15 47697.15 0 0 1 70.944-1.941l1.452 57.181-62.705-.808a39561.357 39561.357 0 0 1-9.691-54.432Zm-47.412 1.363c14.401-.424 28.84-.84 42.859-1.236a36879.92 36879.92 0 0 0 9.673 54.326l-47.038 1.848-5.494-54.938Zm-2.257.065 5.498 54.962-62.87 2.47c-3.664-14.924-7.065-26.858-9.486-31.457-1.988-3.782-5.91-12.46-10.754-23.546 23.645-.798 50.521-1.63 77.612-2.429Zm-23.606-34.696 18.469 23.587c-27.165.807-53.935 1.641-77.287 2.438a4349.492 4349.492 0 0 1-9.162-21.44l67.98-4.585Zm-33.678.015-35.233 2.376c-.62-1.459-1.238-2.921-1.856-4.381l30.052-13.111 7.037 15.116Zm9.884-55.871 14.825 36.23-26.523 10.409-15.695-33.71L279.16 144.9Zm-4.835-11.816 3.982 9.733-27.49 12.971-4.591-9.859 28.099-12.845Zm-.853-2.085-28.196 12.887-9.688-20.807 28.512-14.982 9.372 22.902Zm6.873 10.855-7.089-17.331 28.048-12.118 6.72 16.388-27.679 13.061Zm33.541 1.237-27.971 12.376-4.715-11.528 27.679-13.061 5.007 12.213Zm4.946 6.125-7.914-19.302 5.943-2.803 8.471 19.374-6.5 2.731Zm12.955 12.029-6.817 2.943-5.285-12.889 6.55-2.752 5.552 12.698Zm2.068-.895-5.544-12.676 13.595-5.712 5.511 12.529-13.562 5.859Zm23.927 17.708-23.421 9.034-8.536-20.819 7.894-3.41c.002-.002.004 0 .006-.002l.003-.004 14.596-6.305 9.458 21.506Zm14.79-7.051-10.65 5.274-9.465-21.516 11.011-4.756 9.104 20.998Zm12.727-6.302-3.209 1.589c-.002 0-.006 0-.008.002-.005.002-.007.005-.013.007l-7.478 3.704-9.057-20.89 11.329-4.895 8.436 20.483Zm2.021-1.002-8.39-20.375 13.008-5.62 3.68 7.31.001.003 5.871 11.667-14.17 7.015Zm19.768 4.103-19.176 9.326c-.006.003-.009.007-.015.011l-3.926-9.272 18.531-9.174 4.586 9.109Zm-11.713 27.132c-.015-.086-.017-.172-.052-.256l-2.84-6.705 20.528-8.398 7.459 14.821-25.095.538Zm12.146 17.087.376 9.858c-10.732.295-22.036.607-33.655.935l-1.911-10.793h35.19Zm-.576-15.084.49 12.833h-35.502l-2.13-12.036 37.142-.797Zm-18.182-17.754c.043-.015.09-.009.133-.03l19.204-9.339 3.898 7.745-20.392 8.342-2.843-6.718Zm-19.355 16.307-.601-3.403a2.302 2.302 0 0 0-.157-.517l-5.822-13.235 19.122-9.467 11.056 26.116-23.598.506Zm-32.021 2.94 27.86-.597c.93 5.251 2.503 14.158 4.443 25.11-14.885.42-30.222.863-45.471 1.314l-18.549-23.688 31.717-2.139Zm-2.171-9.259 23.473-9.058 5.729 13.023c.084.473.233 1.314.433 2.453l-26.77.573-2.865-6.991Zm-34.322 2.892 28.795-10.431 6.009 14.655-31.704 2.139-1.04-1.327-2.06-5.036Zm-14.125-34.517 27.972-12.376 2.441 5.955v.002l11.654 28.42-28.797 10.429-13.27-32.43Zm14.16 40.55c.039.095.092.187.155.267l.192.246-29.59 1.996-3.272-7.024 26.424-10.37 6.091 14.885Zm117.296-47.189 8.861-4.387 10.479 19.271-10.371 4.798-8.969-19.682Zm6.927 20.626-11.092 5.132-4.439-8.818c-.002-.006-.002-.013-.003-.023-.004-.007-.013-.011-.017-.02l-5.089-10.108 11.695-5.791 8.945 19.628ZM694.65 691.223l-36.801-6.138 14.017-64.642c13.391 5.219 30.195 8.941 49.22 13.139 18.472 4.079 38.886 8.589 59.985 15.269l-17.181 83.138-112.375-17.696 5.856-27.005 36.908 6.156a1.124 1.124 0 0 0 1.295-.924 1.127 1.127 0 0 0-.924-1.297Zm214.557 41.253a89.108 89.108 0 0 0-2.733 3.2l1.486-4.661c.414.487.838.972 1.247 1.461Zm-.736-17.905a275.875 275.875 0 0 0-8.306-8.618l9.975-31.304a802.673 802.673 0 0 1 7.502 11.131l-9.171 28.791Zm371.309 14.932-13.86-41.017 14.5-5.687 14.46 41.578-15.1 5.126Zm30.97 45.076-13.94 5.331-15.59-46.142 15.08-5.117 14.45 45.928Zm-6.25-27.384-6.07-19.268 22.9-7.773 6.15 18.779-22.98 8.262Zm8.36 26.579-7.69-24.429 23.01-8.271 7.8 23.862-23.12 8.838Zm2.38 7.572-1.7-5.419 23.14-8.848 1.78 5.42-23.22 8.847Zm.68 2.152 23.24-8.857 8.16 24.942-23.67 8.471-7.73-24.556Zm-15.85 6.044 13.74-5.24 7.72 24.51-13.34 4.773-8.12-24.043Zm-2.54-7.498 13.9-5.313 1.71 5.419-13.8 5.257-1.81-5.363Zm.43 8.299 8.11 24.002-6.85 2.45h-.01l-8.48 3.036-7.91-23.716 15.14-5.772Zm-304.287-658.03 88.427 12.468-8.22 49.358-93.947-12.591-.872-.573 14.612-48.662Zm5.145-49.595 22.952 2.088-.88 46.796-26.371-3.717 4.299-45.167Zm-4.273-2.65-29.755-2.704 2.666-33.8 30.348 2.26-3.259 34.245Zm-34.46 28.286-42.112-24.811.756-8.107 43.64 3.968-2.284 28.95Zm4.528-28.746 29.719 2.703-4.166 43.766-27.924-16.451 2.371-30.018ZM673.829 71.63l69.661 29.92-13.976 40.567-71.633-31.704a7340.8 7340.8 0 0 1 15.948-38.783Zm-17.449-9.948 6.712-14.821 15.82 6.683c-.954 2.282-3.222 7.714-6.292 15.116l-16.24-6.978Zm15.377 9.057a8258.064 8258.064 0 0 0-9.059 21.94c-2.318-.99-8.385-3.583-17.057-7.285l9.809-21.66 16.307 7.005Zm-515.213 71.535 4.751 13.307-12.837 5.54-7.982-18.067-1.872-15.871c6.572 1.468 13.023 2.907 19.161 4.275l-1.277 10.299c-.022.175-.002.35.056.517Zm-128.365-9.869c-3.68-7.516-11.035-18.135-20.513-30.386 17.028 1.816 36.641 4.004 38.653 4.506.491.123 3.945.905 9.492 2.152l4.846 27.112-28.563 5.497c-1.34-3.306-2.651-6.298-3.915-8.881Zm6.401-44.371L23.927 71.196l12.684-6.593 8.777 19.653-10.808 3.778Zm5.62 13.095c-7.21-.887-18.345-2.114-27.41-3.09l20.846-7.287 6.564 10.377Zm-4.384-11.143 10.494-3.668 7.747 17.349a754.852 754.852 0 0 1-6.646-1.51c-.565-.142-2.11-.371-4.313-.659l-7.282-11.512Zm-31.594-8.55 17.7-9.198 10.476 16.56-20.158 7.048-8.018-14.41Zm1200.688 61.203 113.29-1.282-.27 13.345-114.06-1.751c.38-3.812.73-7.265 1.04-10.312Zm.56-5.641c.84-8.424 1.44-20.867 1.84-35.235l22.81 2.373-1.43 35.703c0 .099.03.189.05.282l-23.61.265c.12-1.198.24-2.34.34-3.388Zm53.03-29.911-.61 32.704-26.99.304c.02-.056.04-.106.05-.166l1.41-35.56 26.14 2.718Zm29.74 3.095v29.265l-28.1.318.6-32.445 27.5 2.862Zm-80.5-27.625 111.58 3.6-.5 24.943-111.44-11.594c.14-5.433.26-11.118.36-16.949Zm.25-19.027 67.77 2.87h.02l39.8 1.685 76.25 5.796c-.02.076-.05.147-.05.228v12.133l-70.34-2.27a1.113 1.113 0 0 0-.93-.573c-.44.015-.76.216-.96.513l-111.77-3.606c.09-5.509.15-11.127.21-16.776Zm.15-48.808 25.38 2.575v45.06l-25.51-1.08c.14-16.094.16-32.3.13-46.555Zm27.63 2.804 14.46 1.465-.62 44.048-13.84-.586V17.526Zm16.71 1.693 23.62 2.395-1.39 42.487-22.85-.967.62-43.915Zm25.87 2.623 38.88 3.942-2.63 40.007-37.63-1.593 1.38-42.356Zm113.43 96.848-29.72-3.093.85-28.033 28.87.93v30.196Zm-31.97-3.326-38.75-4.03.51-25.103 39.09 1.26-.85 27.873Zm-.71 23.285-38.6.434.52-25.493 38.72 4.031-.64 21.028Zm-.57 18.599-38.35-2.457.27-13.46 38.58-.437-.5 16.354Zm-40.28-18.138-27.76.313v-29.008l28.28 2.942-.52 25.753ZM9.492 3.888l8.252 18.473L.322 33.886 0 33.378v4.213l9.94 15.712L0 59.388v2.64l11.144-6.823 9.568 15.124-17.585 9.139L0 73.845v4.626l1.13 2.033-1.13.588v2.537l2.225-1.156L10.082 96.6l-2.515.88a3235.38 3235.38 0 0 1-3.763-.4A732.658 732.658 0 0 0 0 92.32v18.142l.166.213-.166.134v2.895l1.533-1.239c7.636 10.056 13.495 18.683 16.536 24.892 2.494 5.092 5.188 11.883 7.999 19.818h-7.284l-7.664-22.568a1.114 1.114 0 0 0-.172-.319L0 119.937v3.711l9.046 11.857 7.868 23.158c.155.457.582.763 1.064.763h8.881a532.789 532.789 0 0 1 2.774 8.227L0 170.888v2.266l30.346-3.313a873.08 873.08 0 0 1 5.537 17.783L0 192.974v2.277l36.532-5.446c5.93 19.881 11.932 41.863 17.355 61.807A6608.119 6608.119 0 0 0 0 263.206v11.545a6802.944 6802.944 0 0 1 56.853-12.232c8.435 30.945 13.535 48.934 16.712 54.336 7.876 13.388 133.865 80.101 175.178 101.724l52.556 110.656c-1.998-.104-3.993-.21-5.998-.287a5.652 5.652 0 0 0-2.856.655c-58.143 30.899-147.175 77.711-154.131 80.032-4.323 1.198-25.076-7.124-44.417-17.818a5.633 5.633 0 0 0-7.65 2.201 5.598 5.598 0 0 0-.68 3.125L0 642.092v5.085l87.668-46.051c.244.196.496.385.78.542 12.365 6.839 42.329 22.357 53.411 18.65 9.847-3.28 134.456-69.399 154.523-80.06 79.07 3.308 151.818 29.572 161.388 33.147l43.697 42.901 34.838 119.909-17.848 84.375c-8.041 20.593-20.464 52.06-22.192 55.515-1.305 2.612-4.884 15.57-13.349 46.751l-2.847 10.477h11.667c.679-2.507 1.363-5.019 2.044-7.528 5.348-19.701 11.411-42.028 12.553-44.666 2.408-4.814 18.99-47.187 22.361-55.817l26.186 8.068-2.617 61.315a1.12 1.12 0 0 0 .845 1.138l45.021 11.551-5.625 25.939h11.519l16.55-76.324 52.571 14.282-15.945 62.042h2.324l3.498-13.613 52.108 13.546-.016.067h4.642l11.594-46.231 89.072 24.195-7.693 22.036h2.384l7.485-21.442 22.169 6.02-4.779 15.422h4.715l4.411-14.24 52.42 14.24h42.941l-18.585-5.049 31.19-81.456 19.916 4.357c7.293 16.171 13.061 28.017 19.4 34.61 13.715 14.267 57.255 27.418 90.375 34.343 21.65 4.525 42.51 7.362 61.24 8.488l-2.11 4.707h4.93l2-4.439c19.6.883 36.61-.214 49.29-3.386 17.44-4.358 36.72-7.595 54.89-9.985l1.16 17.81h11.28l-1.25-19.195c28.8-3.356 52.96-4.584 59.41-4.872 4.42 2.754 18.61 11.872 33.1 24.067h16.98c-20.68-19.54-44.29-33.745-45.72-34.595a5.5 5.5 0 0 0-3.08-.791c-.45.017-27.69 1.045-61.43 4.95l-1.48-22.663 72.22-1.398 61.8 47.234v-14.166l-53-40.507 22.56-7.455c.03-.008.04-.024.06-.032.02-.007.04-.004.06-.013l19.3-8.788 11.02 33.159v-7.134l-8.97-26.962 8.97-4.085v-2.471l-9.68 4.407-19.44-58.479 12.59-4.504 16.53 45.987v-6.654l-14.41-40.059 14.41-4.691v-2.369l-16.21 5.277c0 .002-.01.006-.01.008-.01.002-.01 0-.02.003l-13.59 4.865-8.78-26.393v-.019l-18.32-52.22 33.12-11.239 23.81 71.622v-7.134l-2-6.001c.09-.015.17-.017.25-.049l1.75-.715v-2.43l-2.6 1.062c-.03.013-.06.039-.08.056l-5.44-16.341 8.12-4.82v-2.609l-8.84 5.243-12.84-38.606 18.55-6.298 3.13 8.299v-6.382l-.99-2.642.99-.337v-4.755l-2.59.878-17.28-45.874 19.87-7.795v-2.417l-87.09 34.15c-.01-.08-.01-.158-.04-.237l-5-13.481 77.4-48.177 14.73 22.242v-10.685l-1.07.911-10.03-15.141 11.1-9.807v-2.983l-12.34 10.907-13.89-20.972 20.29-16.905 5.94 8.576v-3.952l-4.2-6.068 4.2-3.502v-2.929l-5.49 4.573-13.03-18.814 18.52-15.37v-2.923l-19.81 16.436-15.82-22.848c8.88-6.448 17.52-12.791 25.51-18.762l10.12 14.041v-3.849l-8.32-11.542c2.88-2.159 5.64-4.252 8.32-6.294v-5.606c-3.46 2.67-7.1 5.436-10.92 8.301l-13.75-19.066 24.67-17.52v-2.763l-25.98 18.459-11.22-15.558.12-.062 37.08-26.857v-2.769l-38.25 27.711-.28.14-18.08-25.082 45.63-40.701c3.59 4.61 7.29 9.314 10.98 13.981v-3.621c-3.16-4.014-6.29-7.993-9.31-11.857l9.31-8.301v-3.017l-10.69 9.537c-2.8-3.593-5.49-7.08-8.05-10.416 0-.013-.01-.026-.01-.036-.01-.009-.02-.013-.03-.018-4.33-5.654-8.25-10.864-11.55-15.382l14.57-12.708 15.76 19.649v-3.599l-14.06-17.53 14.06-12.26v-5.976l-4.25 3.706c-4.6-14.573-14.35-45.538-18.55-59.209 5.33-1.842 10.04-3.47 14.1-4.87l8.7 1.025v-11.337l-8.67-1.019c-.06-.007-.12.002-.18-.004-.08-.007-.15-.028-.22-.029l-49.1-2.201-8.76-28.786 66.93 7.33v-2.266l-67.64-7.407-6.21-20.382 73.85 3.291v-2.253l-161.82-7.213s-.01.004-.02.004-.02-.006-.03-.006l-38.57-.063c1.58-15.477 2.97-29.236 4.08-40.272l115.32 1.77 40.61 2.598c.01 0 .01.004.02.004h.04l40.37 2.584v-2.25l-39.22-2.512.51-16.524 38.71-.437v-2.245l-38.65.436.64-20.768 38.01 3.955v-2.264l-5.97-.622V74.109c0-.021-.01-.04-.01-.062l5.98.455v-2.256l-83.15-6.323 2.7-41.076c0-.013-.01-.024-.01-.037 0-.013.01-.022.01-.036V0h-2.25v23.53l-38.88-3.943.64-19.587h-2.25l-.64 19.36-23.66-2.401.24-16.959h-2.25l-.23 16.73-42.14-4.272c-.01-4.375-.03-8.545-.05-12.458h-11.26c.01 3.575.03 7.347.04 11.316l-51.03-5.175.91-6.141h-2.28l-1.04 7.02v.014l-2.48 16.712c-11.51-.8-23.8-1.65-36.14-2.496L1107.91 0h-4.55l-3.07 20.94c-37.1-2.54-73.69-4.982-89.17-5.818-1.72-.094-3.67-.246-5.82-.45L1006.69 0h-4.52l-1.36 14.205C980.136 11.883 945.442 5.953 912.877 0h-24.786a4200.989 4200.989 0 0 0 34.811 6.42l-1.975 21.194-59.733-4.49L867.97 0h-2.346l-6.558 22.38L824.378 0h-4.153l38.18 24.633-5.951 20.307-53.468-31.504a2.68 2.68 0 0 0-.247-.125L768.023 0h-11.321l40.116 17.386 92.563 54.537-16.531 27.552-135.896-61.966L730.234 0h-4.575l6.382 35.627L626.657.11c.018-.037.035-.073.05-.11h-7.422l2.153.726a14418.217 14418.217 0 0 0-28.139 62.31C537.027 38.992 467.005 9.06 463.566 7.512c-2.031-.912-5.253-3.974-8.531-7.513h-3.053c3.8 4.228 7.953 8.348 10.662 9.567 1.967.886 25.624 11.017 56.028 24.02-1.945 4.17-9.16 19.596-10.649 22.055-1.158 1.907-1.055 9.187-.413 23.777.189 4.247.349 7.917.254 8.98-.095 1.057-1.077 8.067-2.386 17.221l-31.557 1.547-7.163-32.23a1.117 1.117 0 0 0-.308-.554L391.511 0h-3.196l21.073 20.916-30.3 24.018-2.96-4.69L343.954 0h-2.88l9.542 11.934-21.362 21.254-10.011-19.858v-.004l-.004-.002L312.525 0h-2.518l6.716 13.311L294.95 24.03 284.379 0h-4.918l.92 2.09-35.87 12.54L238.838 0h-2.413l.029.08-25.407 8.716L207.094 0h-2.468l11.093 24.698-22.306 7.8L178.283 0h-2.484l6.49 13.94-22.306 9.494L150.418 0h-4.865l17.586 43.084-57.788 20.205L131.35 0h-2.436l-19.52 47.518L86.085 0h-2.507l24.674 50.3-5.023 12.232L71.659 0H59.05l14.537 28.795-44.608 13.197-17.907-40.09v-.005c-.002 0-.002-.002-.003-.002L10.222 0H7.756l.818 1.831L0 5.89v2.492l9.492-4.493Z" fill="#CAD1E1"/></svg>