<svg width="860" height="184" fill="none" xmlns="http://www.w3.org/2000/svg"><mask id="path-1-inside-1_2902_234" fill="#fff"><path d="M0 112s57.333 72 118.621 72c61.287 0 92.919-72 150.253-72 57.333 0 82.046 36 133.448 36s34.082-66 127.517-66S611.149 0 860 0"/></mask><path d="M0 112c-.782.623-.782.623-.781.624l.002.003.008.011.033.04.127.158a162.3 162.3 0 0 0 2.435 2.909 248.168 248.168 0 0 0 7.363 8.189c6.354 6.773 15.468 15.805 26.507 24.84C57.734 166.811 87.618 185 118.621 185v-2c-30.285 0-59.71-17.811-81.66-35.774-10.955-8.965-20.005-17.933-26.316-24.66a245.23 245.23 0 0 1-7.302-8.123 153.975 153.975 0 0 1-2.4-2.866l-.122-.151-.03-.037a.036.036 0 0 0-.007-.009.012.012 0 0 1-.001-.003L0 112Zm118.621 73c31.043 0 54.536-18.249 77.23-36.216C218.656 130.729 240.618 113 268.874 113v-2c-29.078 0-51.599 18.271-74.265 36.216C171.832 165.249 148.865 183 118.621 183v2Zm150.253-72c28.435 0 48.777 8.916 68.534 17.91 19.749 8.991 38.966 18.09 64.914 18.09v-2c-25.454 0-44.295-8.901-64.086-17.91-19.783-9.006-40.464-18.09-69.362-18.09v2Zm133.448 36c13.11 0 21.896-4.225 29.129-10.56 3.597-3.15 6.798-6.811 9.947-10.693 3.178-3.917 6.239-7.975 9.688-12.106 6.843-8.197 14.941-16.333 27.088-22.435C490.324 87.103 506.6 83 529.839 83v-2c-23.478 0-40.076 4.147-52.563 10.419-12.49 6.273-20.794 14.637-27.725 22.94-3.439 4.119-6.609 8.311-9.706 12.128-3.126 3.853-6.243 7.411-9.711 10.448-6.896 6.04-15.221 10.065-27.812 10.065v2Zm127.517-66c47.039 0 67.732-20.73 107.258-41.111C676.682 21.476 735.7 1 860 1v-2C735.449-1 676.104 19.524 636.18 40.111 596.197 60.73 576.235 81 529.839 81v2Z" fill="#6E38F7" mask="url('#path-1-inside-1_2902_234')"/></svg>