<svg width="20" height="20" fill="none" xmlns="http://www.w3.org/2000/svg"><path fill-rule="evenodd" clip-rule="evenodd" d="M16.521 4.527c-1.307-.36-6.526-.36-6.526-.36s-5.21 0-6.517.34c-.7.195-1.276.771-1.472 1.482-.34 1.307-.34 4.015-.34 4.015s0 2.718.34 4.004c.196.71.762 1.277 1.472 1.472 1.318.35 6.517.35 6.517.35s5.22 0 6.527-.34a2.071 2.071 0 0 0 1.461-1.471c.35-1.297.35-4.005.35-4.005s.01-2.718-.35-4.025a2.058 2.058 0 0 0-1.462-1.462Zm-8.184 7.968V7.502l4.334 2.502-4.334 2.49Z" fill="#6E38F7"/></svg>