<svg width="18" height="14" fill="none" xmlns="http://www.w3.org/2000/svg"><path d="M17.333 1.937a6.827 6.827 0 0 1-1.963.538A3.425 3.425 0 0 0 16.872.583a6.849 6.849 0 0 1-2.172.83 3.414 3.414 0 0 0-2.495-1.08c-2.208 0-3.83 2.06-3.332 4.198A9.707 9.707 0 0 1 1.827.96a3.424 3.424 0 0 0 1.058 4.565 3.405 3.405 0 0 1-1.548-.428C1.299 6.68 2.435 8.162 4.079 8.492a3.427 3.427 0 0 1-1.544.059 3.422 3.422 0 0 0 3.194 2.374 6.875 6.875 0 0 1-5.062 1.417 9.68 9.68 0 0 0 5.241 1.536c6.349 0 9.936-5.362 9.72-10.171a6.962 6.962 0 0 0 1.705-1.77Z" fill="#6E38F7"/></svg>