<svg width="1400" height="934" viewBox="0 0 1400 934" fill="none" xmlns="http://www.w3.org/2000/svg">
<path d="M26.9211 42.9091L11.8608 52.1267L1.52507 35.7896L18.6741 24.4459L26.9211 42.9091ZM35.6907 62.5445L22.7192 69.2851L13.0667 54.0288L27.8469 44.9811L35.6907 62.5445ZM74.6163 30.8392L93.1523 67.5547L47.5197 83.5109L29.904 44.0664L74.6163 30.8392ZM100.891 114.149C82.6747 110.081 66.4832 106.46 56.7989 104.283L48.4419 85.5736L94.1136 69.6043C94.8304 74.3661 97.4325 91.6365 100.891 114.149ZM110.63 176.48L97.8301 178.388L93.4584 150.491H93.4565L88.0376 115.892C92.3963 116.865 96.9491 117.884 101.627 118.927C104.328 136.468 107.477 156.694 110.63 176.48ZM112.622 63.1325L118.565 118.097C116.599 117.658 114.641 117.221 112.694 116.786C108.345 88.5621 105.172 67.4371 105.082 66.836C105.032 66.5 104.944 66.1752 104.836 65.856L112.622 63.1325ZM142.193 52.7931L161.556 100.85L158.321 126.969C146.533 124.339 133.616 121.457 120.885 118.614L114.806 62.3691L142.193 52.7931ZM163.99 45.1715L201.288 136.55C194.21 134.973 178.883 131.555 160.528 127.462L163.826 100.839C163.849 100.649 163.824 100.457 163.753 100.279L144.321 52.0483L163.99 45.1715ZM160.832 25.5173L183.239 15.9824L191.277 33.2453L167.395 41.5968L160.832 25.5173ZM211.572 76.832L185.786 86.6544L168.246 43.6837L192.233 35.2968L211.572 76.832ZM229.044 22.4261L237.806 43.8405L204.603 56.2632C204.566 56.2763 204.542 56.3061 204.506 56.3229L194.369 34.5501L229.044 22.4261ZM211.973 10.8584L237.27 2.18027L242.385 15.3757L217.855 23.9512L211.973 10.8584ZM259.978 11.6088L268.486 32.3605L239.915 43.0509L231.172 21.6813L259.978 11.6088ZM281.29 4.15707L298.663 43.652L278.673 51.268L262.108 10.864L281.29 4.15707ZM317.738 15.3216L327.367 34.4008L302.926 42.1605L295.857 26.0923L317.738 15.3216ZM347.747 61.6168L318.291 77.0915L303.837 44.2325L328.533 36.3925L347.747 61.6168ZM352.029 13.7013L374.295 41.5464L377.197 46.144L349.75 60.564L330.428 35.196L352.029 13.7013ZM392.646 70.6179L366.485 82.5347L351.124 62.3672L378.392 48.0387L392.646 70.6179ZM410.997 22.512L464.632 75.7475L474.576 120.499L461.55 126.948L456.111 117.602C456.109 117.6 456.109 117.596 456.109 117.596C456.107 117.594 456.105 117.593 456.103 117.591L441.463 92.4392C441.463 92.4392 441.463 92.4392 441.463 92.4355C441.461 92.4355 441.461 92.4355 441.461 92.4355L435.652 82.4563C435.652 82.4563 435.652 82.4544 435.65 82.4525C435.65 82.4507 435.648 82.4507 435.648 82.4488L428.715 70.5413C428.406 70.0075 427.721 69.8264 427.187 70.1288L403.499 83.6043L380.287 46.8328L410.997 22.512ZM505.154 107.891C502.279 127.954 498.146 156.251 498.085 156.679C498.066 156.802 498.068 156.925 498.09 157.048L502.019 178.246L475.048 193.676L466.571 183.521L457.737 169.527L476.911 121.533C476.922 121.505 476.918 121.475 476.928 121.445C476.956 121.352 476.976 121.257 476.98 121.158C476.982 121.106 476.976 121.055 476.973 121.003C476.967 120.958 476.974 120.915 476.965 120.872L474.415 109.398L505.154 107.891ZM509.949 89.9136L534.666 96.3219L536.366 106.236C536.43 106.605 536.674 106.919 537.018 107.072L567.691 120.712C555.774 147.933 546.623 169.635 545.629 174.274C545.528 174.744 545.403 175.315 545.261 175.943L513.182 172.114C513.158 172.112 513.134 172.118 513.107 172.118C513.055 172.114 513.003 172.118 512.949 172.123C512.857 172.133 512.77 172.153 512.682 172.183C512.656 172.194 512.628 172.191 512.6 172.202C512.585 172.207 512.574 172.222 512.559 172.23C512.536 172.241 512.512 172.243 512.491 172.256L504.09 177.061L500.339 156.821C500.961 152.561 508.715 99.4355 509.949 89.9136ZM509.949 56.8083C511.525 54.2061 518.825 38.5877 520.744 34.4736C529.943 38.4067 539.713 42.5843 549.662 46.8365L534.899 94.0557L510.139 87.6363C510.151 85.9712 510.022 82.9677 509.859 79.3203C509.538 72.0328 508.941 58.4696 509.949 56.8083ZM592.379 65.0907C584.283 83.1507 575.951 101.871 568.594 118.651L538.483 105.259L536.809 95.4912L551.744 47.7269C565.359 53.5453 579.24 59.4776 592.379 65.0907ZM596.516 66.8565C629.16 80.8043 656.352 92.4149 661.843 94.7613C654.466 112.724 646.089 133.342 639.492 150.179L620.28 141.635L631.809 118.673C632.089 118.117 631.865 117.441 631.309 117.163C630.758 116.883 630.077 117.109 629.797 117.663L618.221 140.721L572.705 120.478C579.878 104.121 588.129 85.5699 596.516 66.8565ZM614.723 26.4245L661.018 45.9835L653.847 61.8203H653.845L643.571 84.5077C631.622 79.4061 615.356 72.4584 597.436 64.8032C603.256 51.8224 609.123 38.8061 614.723 26.4245ZM625.722 2.16907L732.493 38.1491L743.407 99.0696L674.692 69.5501C678.688 59.9125 681.309 53.6461 681.421 53.3773C681.662 52.8061 681.393 52.1472 680.822 51.9064L615.651 24.3749C619.147 16.6469 622.528 9.1952 625.722 2.16907ZM871.685 101.418L866.632 109.84C866.617 109.865 866.617 109.894 866.602 109.919C866.589 109.943 866.565 109.956 866.553 109.982L859.227 124.447L793.449 98.3472C792.9 98.1269 792.279 98.3715 792.019 98.8997L781.95 119.567L748.261 101.353C748.296 101.115 748.306 100.878 748.263 100.641L737.436 40.1949L871.685 101.418ZM875.357 104.046C882.33 111.179 890.919 120.101 897.986 127.656L871.605 110.305L875.357 104.046ZM893.26 74.2075L989.408 130.859L975.135 178.392L905.779 132.782C896.689 122.713 882.31 107.933 876.555 102.051L893.26 74.2075ZM916.487 75.2323L915.828 82.2789L901.565 73.8752L916.487 75.2323ZM854.455 46.1179L860.546 25.3325L920.717 29.8555L916.694 72.9904L897.027 71.2021L854.455 46.1179ZM921.465 46.1104L943.914 48.4792L943.221 62.2067C943.189 62.8283 943.667 63.3565 944.289 63.3883C944.307 63.3883 944.328 63.3883 944.345 63.3883C944.942 63.3883 945.439 62.9216 945.47 62.3205L946.155 48.7163L964.637 50.6669L962.545 77.1587L918.938 73.1939L921.465 46.1104ZM922.962 30.0253L965.983 33.5795L965.298 42.2725V42.2744C965.298 42.2763 965.298 42.2763 965.298 42.2781L964.813 48.4213L945.894 46.4259C945.704 46.2355 945.45 46.1048 945.161 46.0899C944.914 46.0693 944.694 46.1515 944.5 46.2784L921.672 43.8685L922.962 30.0253ZM925.127 6.81893C939.717 9.43227 954.311 11.9467 967.525 14.0523L966.162 31.3339L923.173 27.7835L925.127 6.81893ZM968.317 32.6424C968.317 32.6424 968.317 32.6424 968.317 32.6405L969.758 14.4051C981.486 16.2549 992.036 17.7595 1000.39 18.6909L998.017 43.5848L967.633 41.3205L968.317 32.6424ZM1003.16 37.0459L1022.65 37.9736L1021.81 82.5477L999.031 80.4776L1003.16 37.0459ZM1004.87 19.1539C1007.09 19.3629 1009.1 19.5216 1010.88 19.6168C1014.22 19.7979 1018.55 20.0536 1023.66 20.3691L1022.74 35.7243L1003.38 34.804L1004.87 19.1539ZM1056.93 88.0021L1055.16 136.433L1023.13 131.919L1024.02 85.0099L1056.93 88.0021ZM1024.92 36.9395L1025.91 20.5091C1044.38 21.6608 1071.84 23.5051 1099.64 25.4091L1090.35 88.7805L1024.06 82.7531L1024.92 36.9395ZM1104.14 25.7171C1116.47 26.5627 1128.76 27.4139 1140.28 28.2128L1130.75 92.4541L1094.85 89.1893L1104.14 25.7171ZM1142.53 28.3696C1166.9 30.0645 1187.47 31.5131 1196.88 32.1757C1196.85 53.9653 1196.66 78.0024 1196.13 98.4013L1168.29 95.8683C1168.11 95.7227 1167.9 95.6144 1167.65 95.5995C1167.42 95.5733 1167.22 95.6461 1167.03 95.7544L1132.99 92.6576L1142.53 28.3696ZM1145.5 8.37013L1196.87 13.5781C1196.88 18.0917 1196.88 22.8069 1196.88 27.6621C1187.38 26.992 1167.15 25.5677 1143.19 23.9027L1145.5 8.37013ZM1212.99 247.443L1194.36 246.607C1195.79 232.592 1197.17 218.997 1198.46 206.311L1212.99 247.443ZM1237.28 197.785L1241.68 213.614L1208.63 221.588L1200.21 197.723L1237.28 197.785ZM1266.28 199.041L1278.21 250.367L1253.93 249.278L1239.63 197.854L1266.28 199.041ZM1290.79 200.135C1290.79 200.14 1290.79 200.146 1290.79 200.151L1303.48 251.5L1280.55 250.473L1268.61 199.145L1290.79 200.135ZM1309.55 200.971L1324.22 252.429L1305.82 251.606L1293.14 200.239L1309.55 200.971ZM1323.76 201.604L1339.45 253.113L1326.6 252.538L1311.92 201.075L1323.76 201.604ZM1360.98 265.347C1331.1 275.664 1299.55 286.526 1267.35 297.584L1257.1 260.687L1360.98 265.347ZM1393.9 332.478L1383.12 341.878L1372.51 328.643L1353.09 279.979C1361.19 277.185 1368.56 274.641 1375.08 272.39C1379.8 287.84 1391.14 323.734 1393.9 332.478ZM1367.02 355.921C1362.47 349.559 1359.53 345.025 1359.02 343.263C1356.41 334.41 1342.34 297.494 1337.67 285.296C1342.28 283.707 1346.72 282.177 1350.96 280.715L1370.48 329.633C1370.52 329.737 1370.58 329.834 1370.64 329.92L1381.42 343.36L1367.02 355.921ZM1378.81 375.501L1369.08 383.354L1358.33 369.473L1367.99 361.053C1371.15 365.381 1374.82 370.274 1378.81 375.501ZM1387.63 386.932L1378.3 395.255L1370.46 385.134L1380.18 377.289C1382.58 380.414 1385.07 383.643 1387.63 386.932ZM1342.09 427.554L1333.52 414.96L1368.71 386.549L1376.62 396.756L1342.09 427.554ZM1359.45 455.534L1305.98 482.907L1293.9 466.437L1290.14 455.575L1341.52 430.675L1359.45 455.534ZM1372.18 473.194L1346.84 491.197L1333.2 471.496L1360.77 457.373L1372.18 473.194ZM1387.28 494.133C1379.29 500.121 1370.68 506.447 1361.85 512.852L1348.13 493.046L1373.5 475.022L1387.28 494.133ZM1378.45 540.781L1358.57 557.275L1342.14 532.45C1348.95 527.604 1355.81 522.687 1362.54 517.811L1378.45 540.781ZM1392.77 561.456L1372.52 578.329L1359.83 559.162L1379.74 542.638L1392.77 561.456ZM1384.04 603.882L1307.07 651.769L1301.72 637.342L1370.25 583.065L1384.04 603.882ZM1310.76 668.188C1310.8 668.283 1310.88 668.336 1310.94 668.414L1281.78 679.849L1271.55 650.427L1299.39 639.124C1299.49 639.083 1299.59 639.029 1299.67 638.964L1299.86 638.811L1310.76 668.188ZM1359.63 651.739L1374.77 697.263L1297.02 723.653L1282.52 681.977L1359.63 651.739ZM1378.03 644.525L1395.28 690.301L1376.9 696.539L1361.73 650.916L1378.03 644.525ZM1356.26 757.185L1338.09 764.129L1323.46 719.43L1340.94 713.498L1356.26 757.185ZM1358.9 764.708L1340.57 771.695L1338.79 766.272L1357.01 759.31L1358.9 764.708ZM1368.05 792.167L1349.44 798.823L1341.27 773.84L1359.63 766.842L1368.05 792.167ZM1388.26 852.96L1369.89 861.329L1350.14 800.964L1368.76 794.304L1388.26 852.96ZM1344.83 869.743L1343.47 868.698C1343.18 868.482 1342.88 868.301 1342.56 868.142L1324.33 810.202L1348.02 801.724L1367.79 862.155L1344.83 869.743ZM1339.94 867.543L1326.51 867.802L1308.91 815.718L1322.2 810.96L1340.01 867.546C1339.99 867.548 1339.97 867.543 1339.94 867.543ZM1317.32 867.979L1300.98 818.556L1306.79 816.476L1324.15 867.849L1317.32 867.979ZM1306.87 868.183L1291.45 821.966L1298.86 819.314L1314.97 868.026L1306.87 868.183ZM1265.24 868.987L1264.42 856.408L1296.72 844.887L1304.52 868.228L1265.24 868.987ZM1262.84 832.203L1289.33 822.726L1296.01 842.751L1264.27 854.071L1262.84 832.203ZM1261.02 804.421L1280.71 796.917L1288.61 820.59L1262.68 829.868L1261.02 804.421ZM1260.49 796.206L1295.43 782.85L1297.24 788.209L1260.87 802.071L1260.49 796.206ZM1258.92 772.251L1288.39 762.016L1294.71 780.715L1260.33 793.854L1258.92 772.251ZM1256.94 742.009L1279.09 734.492L1287.67 759.883L1258.77 769.92L1256.94 742.009ZM1199.39 914.586C1187.32 917.603 1171.9 918.486 1155.01 917.808C1154.95 914.833 1154.86 910.838 1154.73 906.311L1255.76 896.399L1256.27 904.277C1237.5 906.724 1217.49 910.06 1199.39 914.586ZM1154.15 889.93L1155.83 890.295C1155.98 890.331 1156.14 890.348 1156.31 890.348C1156.4 890.348 1156.5 890.342 1156.59 890.329L1254.54 877.875L1255.46 891.905L1154.59 901.802C1154.47 898.001 1154.32 893.973 1154.15 889.93ZM1153.11 871.468L1181.28 861.386L1188.15 881.778L1156.41 885.814L1153.94 885.274C1153.71 880.406 1153.43 875.67 1153.11 871.468ZM1151.69 859.139C1151.46 858.011 1150.2 853.948 1148.09 847.467L1173.34 837.84L1180.56 859.253L1152.92 869.146C1152.56 864.976 1152.16 861.472 1151.69 859.139ZM1004.51 877.992C1000.33 873.647 995.876 865.2 990.75 854.194L998.206 855.826C1002.8 867.856 1005.47 874.94 1005.54 875.114C1005.81 875.819 1006.41 876.348 1007.15 876.516L1142.95 907.353C1143.11 907.39 1143.28 907.409 1143.45 907.409C1143.52 907.409 1143.59 907.405 1143.66 907.398L1150.23 906.756C1150.35 910.984 1150.44 914.736 1150.5 917.59C1092.6 914.385 1019.8 893.896 1004.51 877.992ZM983.567 838.324C969.888 807.709 951.285 766.121 920.117 727.991C924.917 723.639 930.369 719.413 936.342 715.458C948.726 736.167 959.791 757.109 966.784 774.859C978.925 805.676 989.318 832.614 996.281 850.793L988.394 849.068C986.849 845.667 985.245 842.079 983.567 838.324ZM957.665 842.348L887.128 796.413L900.181 755.429C902.162 749.218 906.319 742.59 912.121 736.032C941.976 772.871 960.008 813.195 973.287 842.916C973.767 843.987 974.234 845.033 974.699 846.072L957.665 842.348ZM923.705 927.692L852.445 908.333L885.731 800.877L954.994 845.981L923.705 927.692ZM848.098 907.153L837.025 904.144L870.985 797.556L881.539 799.191L848.098 907.153ZM770.609 886.101L779.884 783.44L868.734 797.205L834.852 903.554L770.609 886.101ZM734.087 876.182L746.067 828.41L773.295 831.344L768.402 885.502L734.087 876.182ZM729.743 875L677.044 860.685L678.752 827.958L689.218 824.934C689.612 824.818 689.913 824.501 690.004 824.1L695.339 800.567L746.926 806.478L729.743 875ZM715.676 931.082L663.583 917.538L675.317 871.881L727.003 885.922L715.676 931.082ZM622.961 845.992L634.327 793.574L693.088 800.309L687.954 822.954L677.355 826.019C676.894 826.151 676.57 826.562 676.543 827.042L674.821 860.08L622.961 845.992ZM610.939 848.309L573.901 836.896L588.261 782.387L623.258 791.497L610.939 848.309ZM598.605 905.195L554.551 893.889L557.103 834.075L610.46 850.517L598.605 905.195ZM529.415 823.187L540.665 769.996L586.081 781.818L571.747 836.231L529.415 823.187ZM631.159 755.05L623.734 789.305L587.746 779.933C587.744 779.931 587.744 779.931 587.742 779.931H587.739L541.132 767.792L547.333 738.476L631.159 755.05ZM528.173 667.88L647.433 679.997L632.113 750.65L547.353 733.889L528.173 667.88ZM511.866 611.75C511.597 610.824 511.093 609.98 510.405 609.304L508.818 607.747L510.44 521.836C521.143 524.991 531.048 532.429 541.501 540.337C551.882 548.19 562.617 556.308 575.301 561.12C580.418 563.059 585.415 564.646 590.247 566.184C609.831 572.404 626.746 577.776 646.541 603.514C650.265 608.352 655.299 612.274 661.392 615.615L656.509 638.137L564.172 624.65C563.879 624.607 563.575 624.682 563.334 624.865C563.093 625.046 562.934 625.315 562.895 625.611L557.071 668.55L527.496 665.547L511.866 611.75ZM455.153 457.483L454.645 437.448L509.996 434.334L508.394 456.503L455.153 457.483ZM506.835 478.063L455.709 479.339L455.211 459.73L508.232 458.741L506.835 478.063ZM506.173 509.299C485.891 505.635 443.524 503.085 417.42 501.788C416.817 497.133 415.863 489.767 414.687 480.721L454.587 481.619H454.612C454.615 481.619 454.621 481.617 454.625 481.617C454.63 481.617 454.636 481.619 454.64 481.619L506.72 480.318L506.173 509.299ZM504.396 603.406L464.813 564.543C464.27 564.008 463.622 563.591 462.913 563.313C462.525 563.162 443.318 555.776 413.689 547.863L417.506 513.074C444.386 514.423 487.949 517.061 505.956 520.703L504.396 603.406ZM409.285 546.706C383.161 539.926 349.746 533.015 314.173 530.102L291.599 482.576L297.121 411.503C337.551 453.955 390.285 509.425 391.125 510.309C392.136 511.373 393.525 512.001 394.992 512.055C395.244 512.066 402.364 512.34 413 512.852L409.285 546.706ZM285.516 367.842L339.941 362.083C340.041 362.113 340.14 362.141 340.249 362.141C340.284 362.141 340.323 362.139 340.361 362.135C340.523 362.12 340.67 362.068 340.803 361.991L393.57 356.41C395.056 366.695 397.426 384.167 400.116 404.359L295.141 393.101C293.145 391.007 291.2 388.967 289.311 386.984C288.411 382.37 287.101 375.719 285.516 367.842ZM281.897 462.144L258.104 412.052C257.579 410.947 256.71 410.045 255.627 409.478C176.667 368.191 89.404 319.665 83.2701 311.147C80.7277 306.828 74.4259 284.183 67.8925 260.21C87.0203 256.232 105.976 252.414 122.847 249.23C124.219 256.575 125.36 262.112 126.164 265.104C132.77 289.636 152.49 315.879 173.053 327.503C182.698 332.955 199.468 340.137 215.688 347.082C229.688 353.078 248.862 361.288 251.617 363.869C253.488 365.74 267.842 380.77 286.681 400.544L281.897 462.144ZM54.7381 212.283L73.7352 208.979L80.3731 246.12C75.2565 247.163 70.0952 248.227 64.9245 249.305C61.6933 237.418 58.2549 224.799 54.7381 212.283ZM47.7755 188.128L69.4325 184.899L73.3413 206.763L54.1259 210.105C52.024 202.662 49.8979 195.276 47.7755 188.128ZM39.4669 161.571L64.4429 156.974L69.0368 182.681L47.124 185.948C44.548 177.341 41.9795 169.103 39.4669 161.571ZM32.9448 143.416L46.6853 140.771L50.6147 157.231L38.7389 159.415C36.7621 153.573 34.8245 148.189 32.9448 143.416ZM64.0472 154.758L52.8323 156.822L48.8992 140.345L61.0531 138.006L64.0472 154.758ZM64.2768 143.241L63.0672 136.478C63.0672 136.476 63.0672 136.474 63.0672 136.472C63.0672 136.47 63.0653 136.468 63.0653 136.468L58.1952 109.211C65.1653 110.775 74.7339 112.918 85.6744 115.364L89.3424 138.77L64.2768 143.241ZM66.2611 154.351L64.6707 145.454L89.6915 140.995L91.0691 149.785L66.2611 154.351ZM71.2637 182.349L66.6568 156.567L91.4181 152.01L95.6032 178.72L71.2637 182.349ZM99.2899 202.248L75.5571 206.377L71.6613 184.567L95.9523 180.945L99.2899 202.248ZM105.379 241.114C97.9832 242.562 90.3411 244.091 82.5795 245.67L75.9528 208.593L99.6371 204.473L105.379 241.114ZM120.842 238.142C116.543 238.95 112.116 239.799 107.591 240.682L98.1773 180.613L110.985 178.703C114.492 200.67 117.981 221.921 120.842 238.142ZM116.458 141.083C115.412 134.368 114.397 127.82 113.432 121.565C120.99 123.252 128.699 124.973 136.274 126.663L138.103 142.163L116.458 141.083ZM138.63 144.445L146.391 162.015L121.447 172.784C119.881 162.936 118.319 152.998 116.812 143.354L138.63 144.445ZM163.367 154.687L158.754 141.77L159.971 131.951C175.59 135.436 188.974 138.419 196.933 140.194L163.367 154.687ZM229.281 203.469L210.09 204.764L187.561 146.69L200.672 141.029C201.789 141.277 202.701 141.48 203.366 141.63C205.897 147.728 217.493 175.653 229.281 203.469ZM232.643 122.089L205.968 136.104L186.637 88.7413L212.524 78.8779L232.643 122.089ZM245.948 63.7355L213.681 76.0275L205.451 58.3501L238.661 45.9256L245.948 63.7355ZM248.052 62.9328L240.768 45.136L269.341 34.4456L276.567 52.0688L248.052 62.9328ZM284.127 70.5096L256.071 82.5309L248.905 65.0179L277.422 54.152L284.127 70.5096ZM299.341 87.0483L294.405 89.6411L279.526 53.3512L283.879 51.6917L299.341 87.0483ZM301.338 85.9992L285.985 50.8909L299.568 45.7147L314.296 79.1915L301.338 85.9992ZM323.59 100.324L310.143 106.133L302.238 88.0563L315.198 81.2448L323.59 100.324ZM323.198 88.2504L319.194 79.1448L349.121 63.42L357.002 73.7688L323.198 88.2504ZM327.74 98.5712L324.106 90.3093L358.407 75.6131L364.37 83.44L327.74 98.5712ZM368.036 90.2123L330.887 105.728L328.645 100.632L365.598 85.3683L368.036 90.2123ZM374.227 97.5501L367.647 84.4779L393.857 72.5387L401.516 84.6739L374.227 97.5501ZM417.319 109.708L387.24 123.394L375.239 99.5587L402.726 86.5891L417.319 109.708ZM410.81 95.1869L404.699 85.5083L427.33 72.6376L433.123 82.5888L410.81 95.1869ZM417.066 105.097L412.013 97.0928L434.256 84.5339L438.941 92.5829L417.066 105.097ZM423.269 114.923L418.268 107.001L440.072 94.528L445.202 103.337L423.269 114.923ZM432.817 130.049L424.474 116.833L446.335 105.286L453.602 117.768L432.817 130.049ZM438.168 138.525L434.019 131.955L454.735 119.715L459.529 127.949L438.168 138.525ZM455.375 132.518L473.73 123.43L464.042 147.678L455.375 132.518ZM439.376 140.439L453.354 133.519L462.976 150.347L456.253 167.177L439.376 140.439ZM451.5 186.708L440.69 166.83L450.507 162.288L463.885 183.482L451.5 186.708ZM493.759 219.604C490.493 219.686 467.242 220.282 434.551 221.161L423.825 196.245L465.252 185.453L493.759 219.604ZM504.218 212.139L495.41 218.068L476.513 195.431L488.979 188.3L504.218 212.139ZM516.998 203.538L506.087 210.883L490.935 187.18L502.88 180.348L516.998 203.538ZM523.968 201.068L519.029 202.543L504.834 179.23L512.519 174.834L523.968 201.068ZM540.475 196.14L526.141 200.42L514.868 174.584L544.757 178.151C543.775 182.413 542.267 188.733 540.475 196.14ZM588.81 198.432L563 226.053L542.416 207.23C545.188 195.847 547.622 185.75 549.048 179.583L588.81 198.432ZM590.173 196.584L549.563 177.333C549.746 176.529 549.911 175.793 550.034 175.218C550.947 170.953 559.755 150.046 571.801 122.541L617.21 142.735L590.173 196.584ZM627.868 182.547C626.338 192.041 626.33 208.288 626.377 213.746L592.207 197.549L619.269 143.649L638.671 152.277C632.725 167.509 628.395 179.29 627.868 182.547ZM714.407 185.957L703.25 218.338L628.635 214.467C628.593 210.026 628.533 192.569 630.091 182.905C630.594 179.792 634.857 168.224 640.73 153.194L714.407 185.957ZM728.777 144.252L715.142 183.822L641.551 151.095C646.149 139.375 651.627 125.769 657.029 112.498L728.777 144.252ZM763.61 157.207L733.643 143.944L747.568 103.531L780.963 121.593L763.61 157.207ZM828.163 185.776L765.673 158.12L793.587 100.824L858.206 126.463L828.163 185.776ZM891.048 152.003L880.161 173.068L848.454 155.68L859.219 134.426L891.048 152.003ZM892.08 150.002L860.238 132.416L869.432 114.266L900.12 134.449L892.08 150.002ZM921.445 176.917L901.426 186.461L888.797 161.265L902.011 135.692L909.856 140.853C910.806 142.018 911.404 142.845 911.538 143.224C911.932 144.424 916.065 158.514 921.445 176.917ZM931.131 202.055C923.27 175.118 915.697 149.214 914.002 143.578L972.935 182.336L931.131 202.055ZM957.837 236.001L940.807 235.237C938.004 225.617 934.877 214.896 931.769 204.243L973.248 184.677L957.837 236.001ZM985.757 206.272C985.77 206.304 985.802 206.319 985.817 206.347C985.854 206.416 985.874 206.489 985.927 206.549C986.074 206.724 995.921 218.639 1003.56 238.05L962.474 236.208L977.31 186.809L985.757 206.272ZM1082.8 140.33L1057.4 136.75L1059.17 88.2056L1090.03 91.0131L1082.8 140.33ZM1116.96 141.383L1087.15 141.719L1094.52 91.4219L1130.24 94.6699L1116.96 141.383ZM1163.9 140.853L1119.31 141.355L1132.52 94.8771L1166.39 97.9571L1163.9 140.853ZM1193.81 140.513L1166.15 140.827L1168.63 98.1605L1196.07 100.656C1195.68 115.125 1195.1 127.6 1194.27 135.878C1194.13 137.282 1193.97 138.841 1193.81 140.513ZM1230.99 298.39L1234.6 308.823C1218.53 314.332 1202.38 319.861 1186.27 325.367C1188.54 303.393 1190.92 280.245 1193.21 257.824L1217.04 258.892L1230.99 298.39ZM1217.85 247.66L1209.39 223.722L1242.28 215.785L1251.56 249.172L1217.85 247.66ZM1238.86 307.362L1235.24 296.905L1221.89 259.11L1254.73 260.583L1265.22 298.318C1256.47 301.319 1247.68 304.338 1238.86 307.362ZM1274.49 331.675L1252.03 345.414L1242.54 318.015C1251.31 315.006 1259.89 312.062 1268.24 309.191L1274.49 331.675ZM1300.31 322.81L1276.57 330.749L1270.38 308.459C1278.02 305.833 1285.46 303.275 1292.67 300.793L1300.31 322.81ZM1330.99 329.709L1335.01 337.962L1311.09 346.718L1302.81 323.15C1302.81 323.15 1302.81 323.15 1302.81 323.148L1294.8 300.061C1302.98 297.248 1310.85 294.538 1318.38 291.945L1330.99 329.709ZM1337.13 337.187L1333.07 328.86L1320.51 291.211C1325.69 289.425 1330.71 287.696 1335.54 286.031C1338.9 294.797 1347.29 316.813 1352.6 331.52L1337.13 337.187ZM1343.57 350.392L1338.12 339.222L1353.37 333.639C1354.79 337.617 1355.93 340.907 1356.6 343.043L1343.57 350.392ZM1355.57 365.906L1344.95 352.195L1357.39 345.182C1358.58 347.609 1361.41 351.889 1365.34 357.388L1355.57 365.906ZM1323.33 399.999L1356.63 370.955L1367.33 384.769L1332.24 413.093L1323.33 399.999ZM1294.73 415.479L1318.76 403.874C1318.94 403.788 1319.11 403.676 1319.26 403.545L1321.62 401.488L1340.22 428.805L1307.82 444.507L1294.73 415.479ZM1289.4 453.432L1278.91 423.112L1292.7 416.457L1305.79 445.491L1289.4 453.432ZM1250.18 486.076L1246.88 476.543L1286.06 457.552L1289.47 467.398L1250.18 486.076ZM1256.46 504.157L1250.93 488.217L1290.49 469.405L1301.81 484.837L1256.46 504.157ZM1335.95 531.393C1314.34 546.694 1293.63 560.946 1279.43 570.373L1264.75 528.052L1264.94 527.972C1265.52 527.733 1265.79 527.072 1265.55 526.499C1265.31 525.924 1264.65 525.651 1264.08 525.892L1264.01 525.92L1257.2 506.289L1303.18 486.7L1335.95 531.393ZM1323.97 507.444L1307.33 484.745L1331.17 472.53L1345.01 492.501L1323.97 507.444ZM1325.3 509.258L1346.29 494.351L1360.02 514.173C1353.28 519.051 1346.42 523.958 1339.62 528.787L1325.3 509.258ZM1292.46 612.129L1280.89 574.778C1295.35 565.214 1316.5 550.635 1338.47 535.058L1355.09 560.164L1292.46 612.129ZM1293.22 614.426L1356.34 562.053L1369.01 581.183L1300.89 635.12L1293.22 614.426ZM1263.37 626.927L1291.23 615.55L1299.04 636.589L1298.4 637.099L1270.81 648.299L1263.37 626.927ZM1241.45 695.662L1231.5 666.684L1269.46 651.274L1279.68 680.673L1241.45 695.662ZM1242.19 697.792L1263.82 689.31L1277.65 730.225L1255.87 737.617L1242.19 697.792ZM1222.36 846.69L1251.81 836.149L1254.25 873.374L1231.73 876.238L1222.36 846.69ZM1220.23 847.448L1229.46 876.525L1190.43 881.489L1183.4 860.629L1220.23 847.448ZM1212.46 822.929L1219.55 845.301L1182.68 858.495L1175.45 837.036L1212.46 822.929ZM1210.09 815.468L1211.78 820.781L1174.73 834.902L1172.96 829.661L1210.09 815.468ZM1172.24 827.525L1164.65 804.996L1176.5 800.88L1183.74 823.131L1172.24 827.525ZM1145.66 840.099L1170.86 830.467L1172.62 835.703L1147.38 845.324C1146.85 843.703 1146.28 841.966 1145.66 840.099ZM1125.33 879.017L1087.19 870.677L1143.89 849.065C1145.88 855.157 1147.06 858.973 1147.27 860.024C1147.75 862.422 1148.17 866.195 1148.53 870.716L1125.33 879.017ZM1129.48 879.924L1148.71 873.042C1148.96 876.518 1149.18 880.333 1149.38 884.277L1129.48 879.924ZM1149.59 888.933C1149.79 893.452 1149.96 897.995 1150.09 902.244L1143.59 902.882L1009.33 872.392C1008.49 870.182 1006.46 864.817 1003.46 856.974L1149.59 888.933ZM1061.46 815.67L1079.23 868.933L1001.54 851.943C1000.1 848.165 998.487 843.965 996.722 839.373L1061.46 815.67ZM1029.35 719.296L1037.59 744.109C1037.59 744.111 1037.59 744.111 1037.59 744.111L1060.75 813.533L995.911 837.269C989.294 820.062 980.693 797.879 970.975 773.209C967.807 765.165 963.749 756.364 959.073 747.161L1029.35 719.296ZM950.902 706.903C954.537 705.021 963.176 701.333 975.343 696.375L986.485 733.579C986.513 733.675 986.595 733.725 986.645 733.807L958.041 745.151C952.694 734.757 946.596 723.891 940.121 713.044C943.579 710.898 947.173 708.833 950.902 706.903ZM922.589 685.083L928.008 668.071L1002.09 637.267L1014.9 675.802C999.856 681.699 986.466 687.015 975.61 691.421C975.425 691.376 975.229 691.361 975.035 691.419C974.762 691.501 974.553 691.684 974.413 691.906C961.656 697.095 952.586 700.963 948.834 702.905C945.004 704.883 941.328 706.987 937.793 709.173C932.857 701.023 927.735 692.925 922.589 685.083ZM920.823 690.627C925.279 697.467 929.708 704.491 934.002 711.571C927.81 715.643 922.173 719.985 917.203 724.468C915.497 722.445 913.746 720.434 911.966 718.435L920.823 690.627ZM896.301 718.084C899.129 721.022 901.858 724.002 904.508 727.013L895.894 754.053C895.894 754.059 895.89 754.062 895.888 754.068C895.888 754.07 895.888 754.07 895.888 754.072L882.902 794.845L872.366 793.214L896.301 718.084ZM759.287 775.695L760.239 771.897L785.379 650.246C812.175 659.079 839.933 671.574 866.133 691.29C876.497 699.089 885.909 707.495 894.516 716.272L870.115 792.863L759.287 775.695ZM751.99 804.797L758.188 780.078L777.655 783.095L775.451 807.483L751.99 804.797ZM751.438 806.995L775.249 809.725L773.498 829.102L746.62 826.205L751.438 806.995ZM753.745 779.289L747.479 804.278L634.803 791.373L642.206 757.234L753.745 779.289ZM651.039 716.498L763.433 734.194L755.851 770.894L754.841 774.917L643.16 752.834L651.039 716.498ZM647.913 677.783L559.311 668.778L564.973 627.041L656.031 640.343L647.913 677.783ZM511.149 484.245L575.284 537.178C575.508 537.363 575.764 537.503 576.04 537.589L619.717 551.363C622.517 552.698 650.35 565.925 671.991 574.961C669.644 588.616 667.8 599.349 666.704 605.72C661.982 603.113 658.161 600.154 655.465 596.648C633.517 568.116 613.252 561.678 593.654 555.453C588.967 553.965 584.119 552.423 579.294 550.594C568.12 546.355 558.04 538.731 548.294 531.358C537.006 522.822 525.336 513.994 511.943 510.52C511.545 510.418 511.091 510.319 510.658 510.216L511.149 484.245ZM511.564 412.647L510.16 432.07L454.587 435.197L454.078 415.165L511.564 412.647ZM452.48 352.272L496.634 352.837L492.382 402.218L453.792 403.907L452.48 352.272ZM406.248 416.339L411.917 416.946C412.199 416.978 412.483 416.985 412.763 416.974L433.505 416.067L439.841 459.034C439.923 459.588 440.399 459.995 440.955 459.995H440.976L452.96 459.773L453.456 479.341L414.394 478.46C412.138 461.123 409.149 438.239 406.248 416.339ZM412.851 501.566C405.974 501.239 400.607 501.013 397.708 500.898C388.345 491.049 343.33 443.701 307.151 405.711L401.643 415.845C405.47 444.743 409.698 477.182 412.851 501.566ZM424.047 351.908L431.855 404.871L412.694 405.709L404.723 404.854C401.658 381.838 398.873 361.344 397.4 351.566L424.047 351.908ZM524.597 260.811C522.893 267.691 521.787 272.134 521.741 272.324C521.711 272.449 521.69 272.576 521.679 272.705L520.415 290.188L450.878 289.294L449.424 232.023C470.902 231.452 486.521 231.05 492.152 230.907L524.597 260.811ZM527.681 248.343L498.105 221.082C497.954 220.942 497.782 220.834 497.62 220.715L496.86 219.806L519.006 204.9L539.861 198.673C536.129 214.071 531.38 233.361 527.681 248.343ZM535.466 255.519L531.457 251.825C534.492 239.544 538.358 223.86 541.807 209.724L561.463 227.696L535.466 255.519ZM600.602 263.487L574.183 291.204L537.122 257.046L563.125 229.217L600.602 263.487ZM609.347 271.484L582.394 298.775L575.837 292.731L602.265 265.007L609.347 271.484ZM630.668 287.93L603.331 262.931L603.17 246.176V246.174L602.777 205.051L626.438 216.268L630.668 287.93ZM630.745 251.041L628.718 216.726L641.781 217.403L642.949 250.611L630.745 251.041ZM644.28 288.439L633.011 289.412L630.877 253.29L643.027 252.862L644.28 288.439ZM645.198 250.533L644.037 217.521L657.069 218.198L658.198 250.075L645.198 250.533ZM659.51 287.123L646.526 288.245L645.277 252.782L658.278 252.327L659.51 287.123ZM675.899 249.454L660.447 249.997L659.325 218.314L673.141 219.031L675.899 249.454ZM678.153 249.375L675.412 219.149L703.05 220.584L705.973 248.397L678.153 249.375ZM709.591 282.8L681.404 285.232L678.356 251.621L706.21 250.641L709.591 282.8ZM741.653 229.089L726.841 260.161L710.627 249.585L707.5 219.83L709.912 212.83L741.653 229.089ZM748.203 191.763L757.221 196.429L742.622 227.056L710.651 210.679L718.728 187.238L748.203 191.763ZM747.906 189.441L719.475 185.073L732.909 146.08L762.625 159.232L747.906 189.441ZM768.482 179.641C768.335 179.913 768.309 180.232 768.406 180.525C768.499 180.82 768.714 181.061 768.992 181.192L779.253 186.032L772.093 201.587L750.051 190.183L764.686 160.145L776.22 165.249L768.482 179.641ZM780.194 183.988L771.027 179.663L778.284 166.163L786.686 169.882L780.194 183.988ZM801.272 193.932L782.232 184.947L788.747 170.793L808.351 179.469L801.272 193.932ZM824.141 204.721L803.311 194.893L810.411 180.382L827.385 187.893L824.141 204.721ZM842.667 215.951L824.669 225.757L827.904 208.986L842.667 215.951ZM862.413 205.191L845.115 214.618L828.345 206.703L831.587 189.881L862.413 205.191ZM864.36 203.646L832.24 187.693L847.435 157.69L879.127 175.069L864.36 203.646ZM887.65 193.028L867.388 202.69L880.561 177.203L887.65 193.028ZM889.683 192.059L881.881 174.645L887.516 163.738L899.394 187.43L889.683 192.059ZM911.396 211.365L900.616 216.451L890.605 194.115L900.403 189.444L911.396 211.365ZM913.433 210.405L902.436 188.474L922.085 179.109C924.28 186.626 926.664 194.783 929.07 203.028L913.433 210.405ZM872.557 232.176L874.427 231.293C874.634 231.478 874.877 231.61 875.153 231.61C875.295 231.61 875.439 231.584 875.579 231.526C876.034 231.342 876.29 230.892 876.267 230.427L929.708 205.216C932.704 215.486 935.713 225.809 938.431 235.129L872.557 232.176ZM946.376 262.397L929.391 268.1L921.99 245.661L941.759 246.547C943.594 252.844 945.179 258.283 946.376 262.397ZM949.306 264.406C948.091 260.236 946.292 254.057 944.134 246.654L954.498 247.119L949.306 264.406ZM985.96 281.785L958.759 290.351L952.228 270.333L959.134 247.328L975.688 248.069L985.96 281.785ZM1007.47 249.495C1009.35 255.952 1010.86 262.976 1011.69 270.482C1011.8 271.531 1011.91 272.558 1012.02 273.577L988.107 281.107L978.074 248.177L1007.47 249.495ZM1006.99 208.454L1017.15 238.661L1006.02 238.161C999.985 222.492 992.445 211.463 989.225 207.135L1006.99 208.454ZM1006.22 206.14L987.551 204.753L979.421 186.023L1000.4 188.834L1006.22 206.14ZM1068.88 210.795L1008.65 206.321L1002.88 189.166L1072.78 198.535L1068.88 210.795ZM1160.66 219.873L1158.9 245.017L1064.07 240.763L1072.79 213.343L1160.66 219.873ZM1162.21 197.661L1160.81 217.627L1073.5 211.139L1077.83 197.521L1162.21 197.661ZM1183.09 246.101L1161.15 245.118L1164.47 197.665L1188.02 197.704C1186.51 212.645 1184.83 229.064 1183.09 246.101ZM1212.52 358.951L1181.74 369.044C1182.77 359.171 1183.87 348.65 1185 337.73C1192.97 335.003 1200.87 332.3 1208.67 329.627L1212.52 358.951ZM1214.69 358.239L1210.84 328.884C1220.15 325.696 1229.31 322.554 1238.29 319.476L1247.93 347.344L1214.69 358.239ZM1254.84 367.315L1217.67 380.925L1214.99 360.511L1248.67 349.472L1254.84 367.315ZM1289.67 354.562L1259.07 365.766L1252.78 347.592L1275.48 333.711L1289.67 354.562ZM1291.85 353.765L1277.57 332.787L1301.05 324.936L1308.98 347.493L1291.85 353.765ZM1304.54 372.398L1293.16 355.684L1336 339.998L1341.6 351.501L1304.54 372.398ZM1305.81 374.261L1342.97 353.311L1353.87 367.388L1320.78 396.249L1305.81 374.261ZM1282.16 387.597L1303.84 375.372L1319.07 397.74L1316.53 399.95L1292.87 411.37L1282.16 387.597ZM1269.16 394.923L1280.18 388.705L1290.85 412.35L1277.43 418.828L1269.16 394.923ZM1235.59 444.026L1274.83 425.083L1285.32 455.409L1246.13 474.402L1235.59 444.026ZM1180.79 519.071L1178.06 511.134C1178.02 510.892 1177.95 510.505 1177.86 509.988L1244.84 477.531L1248.14 487.049L1180.79 519.071ZM1185.98 534.177L1181.53 521.214L1248.88 489.188L1254.38 505.042L1185.98 534.177ZM1232.76 538.912L1226.23 520.135C1226.16 519.925 1226.02 519.766 1225.85 519.639L1255.12 507.17L1261.93 526.785L1232.76 538.912ZM1261.08 581.791C1260.82 581.877 1256.54 583.477 1249.22 586.23L1233.5 541.044L1262.67 528.918L1277.5 571.655C1268.55 577.565 1262.54 581.306 1261.08 581.791ZM1250.7 590.483C1257.98 587.742 1262.24 586.15 1262.5 586.064C1264.19 585.501 1270.18 581.821 1278.93 576.066L1290.51 613.417L1262.63 624.798L1250.7 590.483ZM1223.44 643.227L1261.28 627.779L1268.72 649.146L1230.77 664.554L1223.44 643.227ZM1184.81 730.236L1171.61 690.997L1221.06 670.927L1234.62 710.414L1184.81 730.236ZM1221.21 752.237C1221.2 752.192 1221.21 752.145 1221.19 752.099L1210.43 722.462L1235.35 712.548L1245.68 742.614L1221.21 752.237ZM1204.04 788.932L1196.28 764.46L1245.85 744.968L1247.74 773.752L1204.04 788.932ZM1187.82 796.949L1202.59 791.818L1209.41 813.318L1194.75 818.925L1187.82 796.949ZM1185.69 797.686L1192.64 819.73L1185.85 822.326L1178.63 800.141L1185.69 797.686ZM1168.2 775.497L1184.41 769.125L1191.61 793.249L1176.23 798.588L1168.2 775.497ZM1156.29 780.185L1166.11 776.324L1174.11 799.327L1163.93 802.863L1156.29 780.185ZM1129.05 790.894L1154.19 781.008L1162.16 804.664C1162.16 804.666 1162.16 804.668 1162.16 804.668C1162.16 804.67 1162.17 804.67 1162.17 804.67L1170.14 828.331L1144.95 837.96C1141.02 826.138 1135.55 809.984 1129.05 790.894ZM1124.83 792.469C1132.87 816.051 1139.3 835.083 1143.19 846.923L1083.17 869.798L1081.79 869.495L1063.58 814.895L1124.83 792.469ZM1100.01 720.065C1108.83 745.687 1117.06 769.683 1124.1 790.339L1062.87 812.758L1040.07 744.401L1100.01 720.065ZM1018.41 679.245C1036.52 672.151 1056.89 664.261 1077.97 656.15C1085.23 677.154 1092.42 698.016 1099.28 717.933L1039.35 742.261L1018.41 679.245ZM1028.64 717.155L988.648 733.014C988.643 732.988 988.65 732.962 988.641 732.935L977.437 695.524C988.18 691.163 1001.43 685.903 1016.31 680.064L1028.64 717.155ZM1062.73 612.052C1067.29 625.234 1071.91 638.587 1076.51 651.903C1055.46 660.003 1035.11 667.886 1017 674.981L1004.18 636.399L1062.73 612.052ZM997.041 614.927L1055.59 591.401C1057.7 597.52 1059.84 603.699 1061.99 609.918L1003.46 634.256L997.041 614.927ZM937.289 638.934L994.948 615.767L1001.38 635.122L928.904 665.259L937.289 638.934ZM919.203 646.203L931.87 641.112L919.399 680.26C916.884 676.486 914.374 672.786 911.882 669.183L919.203 646.203ZM900.79 653.602L916.494 647.291L910.261 666.852C907.049 662.243 903.879 657.81 900.79 653.602ZM790.589 602.526C826.909 610.206 860.492 617.424 863.826 618.139C870.35 621.273 888.64 643.55 908.523 672.302L898.367 704.191C890.536 696.552 882.084 689.203 872.902 682.295C844.473 660.901 814.544 647.73 785.921 638.559L790.589 602.526ZM676.258 576.72C685.33 580.408 692.811 583.085 696.039 583.378C701.603 583.886 746.424 593.195 788.381 602.06L783.741 637.872C762.524 631.206 742.063 626.685 723.513 622.589C702.19 617.883 683.857 613.818 670.91 607.835C671.94 601.834 673.822 590.891 676.258 576.72ZM653.154 538.022L677.533 542.717C675.817 552.705 674.216 562.025 672.775 570.41C665.373 567.293 657.147 563.661 649.262 560.097L653.154 538.022ZM623.5 532.31L650.942 537.596L647.145 559.138C636.972 554.519 627.573 550.12 621.568 547.258L623.5 532.31ZM571.889 505.906L623.635 513.688L619.392 546.539L577.812 533.428L568.413 525.668L571.889 505.906ZM554.219 503.25L569.662 505.572L566.418 524.024L542.67 504.424L554.219 503.25ZM530.512 479.724L572.949 486.87L570.05 503.354L554.413 501.004C554.322 500.989 554.228 500.989 554.131 500.997L540.228 502.406L513.266 480.155L530.512 479.724ZM512.723 459.067L576.079 469.063L573.339 484.654L530.779 477.488C530.708 477.475 530.643 477.475 530.565 477.471L511.358 477.951L512.723 459.067ZM515.868 353.084L512.381 401.343L494.65 402.117L498.891 352.867L515.868 353.084ZM541.69 353.414L540.467 372.137L519.264 368.573L520.38 353.142L541.69 353.414ZM543.937 319.002L541.837 351.169L520.542 350.896L522.984 317.122L543.937 319.002ZM542.422 294.986L552.774 305.34L544.591 316.799L523.146 314.877L524.746 292.751L542.422 294.986ZM554.148 303.527L543.741 293.121C543.564 292.943 543.334 292.831 543.086 292.8L524.909 290.507L526.157 273.222C526.357 272.419 527.169 269.151 528.373 264.29L561.243 294.588L554.148 303.527ZM570.463 326.726L546.887 317.458L555.15 305.887L562.903 296.119L574.65 306.947L570.463 326.726ZM601.494 317.974L597.18 337.23L572.589 327.561L576.576 308.722L580.035 311.911C580.606 312.437 581.28 312.838 582.015 313.092C582.738 313.341 589.753 315.704 601.494 317.974ZM612.955 296.141C611.541 300.789 610.749 305.066 610.318 308.019C597.942 306.044 589.583 303.66 586.751 302.788L584.05 300.302L611.009 273.002L628.708 289.186C623.752 288.934 614.988 289.47 612.955 296.141ZM612.549 308.36C612.97 305.48 613.745 301.286 615.111 296.796C617.023 290.509 627.745 291.265 630.887 291.627L631.997 310.447C624.814 309.969 618.29 309.219 612.549 308.36ZM648.351 322.293L643.834 357.282L597.182 352.007L599.101 338.957L603.706 318.39C615.052 320.462 630.336 322.336 648.351 322.293ZM685.895 319.407C686.564 324.346 687.435 330.6 687.801 332.416C688.205 334.408 684.835 350.989 682.478 361.652L674.359 360.733C674.354 360.733 674.352 360.73 674.346 360.728C674.341 360.728 674.333 360.73 674.328 360.73L646.07 357.534L650.625 322.273C661.513 322.151 673.351 321.315 685.895 319.407ZM711.599 301.903C703.071 304.485 695.111 306.481 688.05 307.673C686.056 308.009 684.083 308.308 682.121 308.588L681.537 287.482L709.826 285.038L711.599 301.903ZM737.363 269.715L713.978 281.449L710.929 252.469L737.363 269.715ZM758.009 256.084L755.961 260.381L739.691 268.546L728.743 261.404L735.454 247.328L758.009 256.084ZM763.271 245.035L758.979 254.046L736.426 245.289L740.82 236.068L763.271 245.035ZM770.821 229.178L764.239 242.999L741.793 234.031L748.431 220.106L770.821 229.178ZM780.647 208.548L771.792 227.143L749.401 218.071L759.226 197.465L772.15 204.152H772.152L780.647 208.548ZM792.389 212.087L774.095 202.623L781.29 186.993L800.283 195.955L792.389 212.087ZM819.971 226.354L794.388 213.121L802.319 196.917L823.702 207.004L819.971 226.354ZM854.567 238.174L819.045 254.931L824.117 228.622L844.648 217.435L854.567 238.174ZM876.187 267.501L854.101 278.094L842.761 258.024C854.442 252.121 863.486 247.361 868.398 244.746L876.187 267.501ZM907.551 275.43L886.122 282.625L872.711 243.451L897.747 244.574L907.551 275.43ZM909.688 274.714L900.146 244.683L919.583 245.553L927.255 268.815L909.688 274.714ZM934.554 290.95L916.511 296.188L910.366 276.851L927.959 270.949L934.554 290.95ZM965.567 325.726L950.165 331.093L939.506 298.775L955.162 293.843L965.567 325.726ZM989.684 294.002C989.684 294.002 989.684 294.002 989.684 294.004L996.106 315.082L969.819 324.244L959.457 292.49L986.617 283.937L989.684 294.002ZM1013.17 285.471L991.502 292.255L988.762 283.261L1012.26 275.862C1012.61 279.223 1012.91 282.419 1013.17 285.471ZM1021 250.102L1037.94 300.502L1016.65 307.922C1016.52 297.332 1015.59 285.434 1013.92 270.237C1013.12 262.881 1011.66 255.972 1009.85 249.601L1021 250.102ZM1059.41 240.555L1019.56 238.769L1009.43 208.635L1068.18 213L1059.41 240.555ZM1076.72 286.989L1062.15 251.946L1164.14 256.519L1076.72 286.989ZM1178.39 291.975L1121.18 310.832L1110.48 277.605L1170.2 256.792L1181.95 257.318C1180.78 268.77 1179.58 280.405 1178.39 291.975ZM1179.01 395.08C1179.77 387.826 1180.61 379.911 1181.48 371.498L1212.82 361.222L1215.52 381.715L1179.01 395.08ZM1223.88 411.815L1175.75 432.087C1176.29 423.015 1177.08 413.183 1178.21 402.601C1178.38 400.971 1178.56 399.286 1178.74 397.576L1215.99 383.942L1223.88 411.815ZM1264.34 394.774L1225.97 410.937L1218.1 383.169L1255.58 369.445L1264.34 394.774ZM1259.81 367.896L1290.98 356.483L1302.57 373.507L1280.25 386.094C1280.25 386.094 1280.24 386.094 1280.24 386.094C1280.24 386.096 1280.24 386.098 1280.24 386.099L1268.41 392.767L1259.81 367.896ZM1226.59 413.116L1265.08 396.9L1273.34 420.799L1234.13 439.729L1226.59 413.116ZM1175.87 492.636C1175.46 487.308 1175.1 480.863 1174.92 473.314L1233.55 445.008L1240.55 465.181L1175.87 492.636ZM1176.07 495.001L1241.29 467.313L1244.09 475.391L1177.5 507.666C1177.1 504.922 1176.56 500.698 1176.07 495.001ZM1134.25 579.873L1128.01 561.316L1176.33 540.734L1182.84 559.671L1134.25 579.873ZM1198.53 605.366C1183.56 611.037 1166.76 617.411 1149.13 624.124L1134.97 582.014L1183.57 561.807L1198.53 605.366ZM1193.25 555.343L1186.71 536.312L1224.05 520.408C1224.03 520.561 1224.05 520.72 1224.1 520.875L1230.68 539.778L1193.25 555.343ZM1209.07 601.38L1193.99 557.474L1231.42 541.91L1247.11 587.024C1237.97 590.46 1224.83 595.416 1209.07 601.38ZM1210.53 605.633C1226.31 599.667 1239.46 594.711 1248.59 591.274L1260.55 625.649L1222.71 641.095L1210.53 605.633ZM1163.6 667.169L1212.99 647.45L1220.32 668.793L1170.9 688.858L1163.6 667.169ZM1138.13 726.301L1131.69 707.203L1169.52 691.846L1176.29 711.962L1138.13 726.301ZM1144.82 746.151L1138.85 728.433L1177.01 714.097L1182.71 731.071L1144.82 746.151ZM1143.44 749.119L1153.47 778.872L1128.32 788.762C1125.17 779.509 1121.77 769.587 1118.2 759.164L1143.44 749.119ZM1129.6 708.053L1142.72 746.984L1117.47 757.032C1113.26 744.748 1108.81 731.774 1104.19 718.368L1129.6 708.053ZM1121.49 683.986L1128.88 705.915L1103.46 716.236C1100.97 709.005 1098.44 701.652 1095.88 694.213L1121.49 683.986ZM1108.2 644.553L1120.77 681.849L1095.14 692.083C1090.88 679.73 1086.55 667.156 1082.19 654.532C1090.8 651.218 1099.5 647.881 1108.2 644.553ZM1093 599.465L1106.76 640.293C1098.06 643.627 1089.34 646.97 1080.72 650.285C1076.11 636.927 1071.48 623.536 1066.9 610.316L1093 599.465ZM1086.15 579.122L1092.28 597.324L1066.17 608.184C1064.02 601.981 1061.89 595.819 1059.77 589.719L1086.15 579.122ZM1053.81 572.497L1120.46 545.935L1125.21 560.062L1086.41 576.589C1086.41 576.589 1086.41 576.589 1086.41 576.589L1059.04 587.587C1057.28 582.51 1055.54 577.476 1053.81 572.497ZM991.232 597.442L1049.62 574.17C1051.34 579.152 1053.09 584.188 1054.85 589.273L996.33 612.784L991.232 597.442ZM944.584 616.032L989.135 598.276L994.237 613.627L938.175 636.151L944.584 616.032ZM926.522 623.23L939.17 618.19L932.755 638.329L920.089 643.418L926.522 623.23ZM923.813 624.309L917.379 644.506L899.41 651.728C895.81 646.856 892.33 642.305 889.039 638.169L923.813 624.309ZM927.308 613.338L924.698 621.533L887.568 636.332C886.166 634.59 884.802 632.929 883.48 631.355L927.308 613.338ZM883.012 602.986C883.473 602.935 883.842 602.61 883.962 602.162L933.462 559.214L946.374 554.654C937.009 583.488 930.356 603.794 930.136 604.464L928.202 610.538L881.953 629.548C876.441 623.106 871.763 618.313 868.334 615.722L883.012 602.986ZM837.764 576.421L882.81 585.368L882.017 597.888L863.951 613.562C860.063 612.726 847.834 610.099 831.641 606.642L837.764 576.421ZM795.071 567.941L835.555 575.982L829.44 606.172C818.011 603.736 804.778 600.921 791.17 598.043L795.071 567.941ZM759.226 570.252L791.435 578.476L788.962 597.576C777.9 595.239 766.649 592.874 755.966 590.647L759.226 570.252ZM743.295 531.681L762.64 534.591L753.76 590.188C747.001 588.78 740.499 587.434 734.444 586.193L743.295 531.681ZM725.881 529.064L741.07 531.347L732.239 585.741C726.817 584.633 721.79 583.613 717.311 582.723L725.881 529.064ZM715.165 527.451L723.654 528.728L715.101 582.284C711.962 581.661 709.137 581.112 706.67 580.643L715.165 527.451ZM702.587 525.56L712.938 527.117L704.456 580.225C700.413 579.473 697.624 579.003 696.448 578.894C695.779 578.835 694.848 578.631 693.737 578.329L702.587 525.56ZM685.492 522.99L700.36 525.226L691.563 577.687C687.889 576.511 682.823 574.564 677.038 572.184C679.463 558.072 682.364 541.195 685.492 522.99ZM656.572 518.64L681.038 522.319C679.967 528.552 678.922 534.632 677.914 540.497L653.544 535.804L656.572 518.64ZM625.862 514.022L654.345 518.306L651.334 535.379L623.788 530.074L625.862 514.022ZM625.946 495.796L623.924 511.455L572.279 503.69L575.169 487.245L625.946 495.796ZM578.305 469.414L628.333 477.307L626.233 493.562L575.559 485.029L578.305 469.414ZM580.218 445.521L576.468 466.857L512.885 456.831L514.494 434.575L580.218 445.521ZM559.686 377.649L553.707 405.903C549.255 405.27 544.889 404.65 540.639 404.046L542.55 374.771L559.686 377.649ZM564.753 353.711L560.153 375.445L542.698 372.512L543.943 353.444L564.753 353.711ZM565.227 351.471L544.09 351.198L546.155 319.59L569.99 328.961L565.227 351.471ZM594.929 351.852L567.523 351.499L572.117 329.795L596.749 339.479L594.929 351.852ZM636.055 417.506C619.955 415.255 603.956 413.006 588.532 410.829L596.855 354.23L643.545 359.511L636.055 417.506ZM668.423 391.306C655.166 389.109 645.393 387.488 642.27 386.969L645.783 359.763L672.879 362.828L668.423 391.306ZM707.76 366.772C706.222 375.73 704.471 385.933 702.576 396.967C691.055 395.058 680.062 393.236 670.645 391.673L675.117 363.08L707.76 366.772ZM816.137 296.303L815.101 272.162C815.395 271.945 815.625 271.652 815.787 271.311C824.861 266.958 833.297 262.789 840.747 259.039L852.066 279.069L816.137 296.303ZM861.243 295.31L817.094 318.605L816.239 298.738L853.175 281.03L861.243 295.31ZM863.234 294.259L855.208 280.054L876.919 269.646L881.963 284.377L863.234 294.259ZM894.236 320.229L867.649 329.05L863.994 296.391L882.696 286.52L894.236 320.229ZM890.204 294.547L886.846 284.743L908.232 277.568L911.788 288.76L890.204 294.547ZM919.16 311.957L898.509 318.812L890.934 296.682L912.47 290.907L919.16 311.957ZM921.297 311.248L917.194 298.336L935.262 293.091L939.282 305.28L921.297 311.248ZM929.854 338.173L921.978 313.393L939.986 307.418L948.039 331.834L929.854 338.173ZM970.071 398.64C963.579 400.811 957.243 402.926 951.082 404.979L930.535 340.318L948.745 333.973L970.071 398.64ZM987.457 392.814C982.289 394.548 977.2 396.254 972.205 397.925L950.871 333.232L966.265 327.865L987.457 392.814ZM1004.93 344.036L979.979 355.382L970.517 326.385L996.761 317.238L1004.93 344.036ZM998.232 314.339L992.159 294.409L1013.37 287.771C1014 295.508 1014.35 302.344 1014.4 308.706L998.232 314.339ZM1009.66 351.854L998.889 316.495L1014.41 311.087C1014.36 325.069 1012.83 337.002 1009.66 351.854ZM1039.17 304.149L1013.76 383.97C1009.75 385.321 1005.76 386.665 1001.83 387.987C1006.73 371.902 1010.21 359.888 1011.35 354.67C1014.97 338.242 1016.67 325.511 1016.66 310.302L1038.66 302.635L1039.17 304.149ZM1040.63 299.565L1040.07 299.761L1023.41 250.21L1055.87 251.664L1040.63 299.565ZM1045.94 297.713L1060.16 253.034L1074.59 287.73L1045.94 297.713ZM1088.65 321.552L1069.69 327.798L1058.68 295.659L1075.45 289.813L1088.65 321.552ZM1090.79 320.846L1077.58 289.07L1108.35 278.346L1119.04 311.535L1090.79 320.846ZM1125.08 330.277L1098.45 339.274L1091.66 322.931L1119.73 313.678L1125.08 330.277ZM1174.54 329.377C1160.22 334.27 1145.96 339.134 1131.84 343.945L1127.55 330.631C1127.55 330.63 1127.55 330.63 1127.55 330.63C1127.55 330.628 1127.55 330.628 1127.55 330.628L1121.87 312.975L1178.14 294.427C1176.93 306.258 1175.72 317.998 1174.54 329.377ZM1175.62 434.586L1224.5 413.993L1232.08 440.722L1174.84 468.352C1174.72 458.687 1174.91 447.421 1175.62 434.586ZM1119.01 534.544L1167.37 514.666L1170.44 523.594L1121.84 542.963L1119.01 534.544ZM1116.92 535.403L1119.75 543.797L1053.07 570.369C1052.19 567.808 1051.3 565.262 1050.43 562.735L1116.92 535.403ZM1042.49 539.833C1042.57 539.823 1042.65 539.819 1042.73 539.793L1110.59 516.565L1116.21 533.266L1049.69 560.603C1047.24 553.526 1044.83 546.59 1042.49 539.833ZM988.198 588.314L1046.25 564.45C1047.12 566.963 1048 569.494 1048.88 572.04L990.519 595.301L988.198 588.314ZM948.173 604.763L986.11 589.17L988.424 596.135L945.469 613.254L948.173 604.763ZM912.485 552.601L914.256 526.327L940.944 529.402L947.513 549.474L931.59 555.098L912.485 552.601ZM887.206 551.563L929.094 557.041L884.402 595.818L887.206 551.563ZM841.226 559.322L843.944 545.907L884.968 551.271L883.999 566.565L841.226 559.322ZM840.78 561.529L883.855 568.826L882.954 583.1L838.21 574.213L840.78 561.529ZM796.865 554.094L838.559 561.154L836.002 573.774L795.361 565.703L796.865 554.094ZM784.118 537.82L796.462 539.678L791.728 576.227L779.081 572.999L784.118 537.82ZM764.865 534.925L781.893 537.486L776.886 572.438L759.58 568.019L764.865 534.925ZM750.374 488.079L769.636 490.777L762.993 532.368L743.658 529.461L750.374 488.079ZM732.82 485.617L748.147 487.766L741.431 529.125L726.238 526.841L732.82 485.617ZM722.085 484.114L730.589 485.305L724.009 526.506L715.518 525.23L722.085 484.114ZM709.826 482.395L719.856 483.801L713.293 524.894L702.959 523.341L709.826 482.395ZM692.877 480.019L707.595 482.082L700.734 523.006L685.875 520.77C688.128 507.651 690.493 493.896 692.877 480.019ZM653.974 498.234L656.551 481.759L687.178 486.591C686.211 492.221 685.25 497.816 684.299 503.341L653.974 498.234ZM653.625 500.459L683.919 505.561C683.075 510.479 682.241 515.327 681.419 520.102L651.261 515.566L653.625 500.459ZM651.405 500.084L649.036 515.232L626.149 511.79L628.167 496.171L651.405 500.084ZM630.556 477.659L654.328 481.408L651.754 497.861L628.454 493.935L630.556 477.659ZM606.648 449.923L631.338 454.035L628.621 475.08L603.445 471.109L606.648 449.923ZM604.427 449.553L601.222 470.758L578.693 467.206L582.439 445.891L604.427 449.553ZM631.628 451.801L612.291 448.581L617.03 426.201C622.787 427.007 628.654 427.831 634.614 428.663L631.628 451.801ZM661.982 432.479L658.265 456.238L633.849 452.17L636.845 428.975C645.109 430.13 653.518 431.303 661.982 432.479ZM663.721 421.363C655.269 420.189 646.768 419.001 638.284 417.818L641.98 389.204C645.182 389.736 654.911 391.349 668.076 393.531L663.721 421.363ZM699.739 413.48L667.822 409.713L670.296 393.9C679.706 395.459 690.685 397.279 702.195 399.187C701.4 403.82 700.579 408.598 699.739 413.48ZM731.125 403.984L729.729 416.181C729.729 416.183 729.729 416.183 729.729 416.183C729.729 416.185 729.729 416.185 729.729 416.186L728.119 430.227C719.68 429.079 710.963 427.887 702.046 426.66C703.634 417.402 705.176 408.427 706.638 399.924C714.728 401.264 723.005 402.638 731.125 403.984ZM761.697 387.772L759.606 406.424C743.671 403.781 724.885 400.667 707.019 397.705C708.103 391.38 709.141 385.338 710.121 379.637L761.697 387.772ZM763.347 373.059L761.949 385.534L710.502 377.418C711.107 373.886 711.687 370.505 712.242 367.278L763.347 373.059ZM743.809 342.597L740.813 368.245L712.622 365.058C713.511 359.878 714.323 355.148 715.042 350.958L743.809 342.597ZM717.763 335.065L745.578 327.488L749.457 338.61L744.806 339.963C744.8 339.965 744.796 339.967 744.791 339.967L715.463 348.492C716.443 342.783 717.224 338.221 717.763 335.065ZM744.835 325.356L718.181 332.618C718.381 331.449 718.521 330.626 718.579 330.264C719.561 324.391 718.607 316.837 717.709 311.812C724.157 309.801 730.867 307.498 737.727 304.978L744.835 325.356ZM763.541 320.262L747.014 324.765L739.838 304.198C745.427 302.12 751.104 299.904 756.806 297.597L763.541 320.262ZM763.777 313.15L758.903 296.744C777.424 289.18 796.128 280.687 812.87 272.705L813.923 297.231L763.777 313.15ZM769.602 332.756L764.419 315.31L814.022 299.551L814.882 319.594L769.602 332.756ZM796.542 336.015L797.892 327.316C797.916 327.167 797.907 327.019 797.875 326.883L814.983 321.91L815.616 336.681L796.542 336.015ZM794.05 352.059L796.193 338.257L815.713 338.938L816.361 354.032L794.05 352.059ZM817.341 376.899L790.662 373.88L793.705 354.29L816.458 356.3L817.341 376.899ZM841.292 337.798L818.246 345.447L817.201 321.093L832.729 312.896L841.292 337.798ZM839.83 326.616L834.747 311.832L861.857 297.521L864.089 317.494L839.83 326.616ZM843.431 337.088L840.562 328.746L864.349 319.801L865.465 329.777L843.431 337.088ZM868.784 359.455L853.011 364.952L844.161 339.216L865.719 332.063L868.784 359.455ZM903.517 347.351L870.964 358.695L867.903 331.337L894.964 322.358L903.517 347.351ZM907.771 345.869L899.237 320.94L919.841 314.104L927.726 338.914L907.771 345.869ZM930.36 411.863L908.497 347.999L928.407 341.059L948.944 405.69C942.549 407.82 936.359 409.875 930.36 411.863ZM964.232 455.065L945.168 460.742L932.35 423.043C938.793 420.917 945.454 418.71 952.306 416.435L964.232 455.065ZM983.47 439.271C979.909 450.518 976.179 462.213 972.419 473.954L954.445 415.725C960.68 413.653 967.075 411.523 973.601 409.345L983.47 439.271ZM992.869 409.392C990.297 417.646 987.523 426.461 984.631 435.603L975.737 408.632C980.735 406.961 985.813 405.261 990.957 403.538L992.869 409.392ZM991.726 391.38L980.681 357.536L1005.59 346.209L1008.66 356.283C1007.13 362.43 1003.76 373.975 999.206 388.868C996.697 389.711 994.198 390.551 991.726 391.38ZM1001.69 421.91L996.386 405.658C996.847 404.173 997.302 402.707 997.748 401.262C1001.64 399.958 1005.56 398.64 1009.52 397.309L1001.69 421.91ZM1027.97 419.459L1004.77 427.062L1014.81 395.53C1016.15 395.076 1017.5 394.623 1018.85 394.169L1027.97 419.459ZM1060.68 368.122C1046.44 372.943 1032.54 377.64 1019.06 382.185L1041.6 311.367L1060.68 368.122ZM1057.96 352.962L1042.75 307.739L1045.09 300.393L1056.55 296.401L1067.93 329.582C1068.08 330.047 1068.52 330.342 1068.99 330.342C1069.11 330.342 1069.22 330.323 1069.34 330.284L1089.52 323.637L1096.32 339.997L1057.96 352.962ZM1102.16 354.047C1088.83 358.577 1075.69 363.035 1062.81 367.399L1058.67 355.096L1097.18 342.082L1102.16 354.047ZM1104.29 353.321L1099.32 341.361L1125.77 332.422L1129.71 344.673C1121.18 347.577 1112.7 350.465 1104.29 353.321ZM1136.55 365.583L1111.47 373.871L1108.29 363.892C1116.6 361.067 1124.91 358.239 1133.2 355.41L1136.55 365.583ZM1138.69 364.877L1135.34 354.683C1148.05 350.351 1160.73 346.024 1173.26 341.74C1172.84 345.85 1172.42 349.903 1172 353.871L1138.69 364.877ZM1144.12 381.379L1139.39 367.017L1171.75 356.328C1171.15 362.031 1170.58 367.563 1170.02 372.885L1144.12 381.379ZM1151.89 405.009L1144.82 383.518L1169.76 375.34C1168.86 384.02 1168.01 392.093 1167.23 399.394L1151.89 405.009ZM1164.63 429.462L1160.42 430.914L1152.6 407.15L1166.97 401.888C1165.93 411.734 1165.17 420.913 1164.63 429.462ZM1165.15 499.634C1165.81 506.171 1166.49 510.44 1166.86 512.447L1118.29 532.409L1114.5 521.134L1165.15 499.634ZM1106.73 498.017L1163.74 477.882C1164 485.589 1164.44 492.059 1164.92 497.284L1113.78 518.993L1112.36 514.771L1112.36 514.769L1106.73 498.017ZM1041.78 537.79C1040.01 532.678 1038.28 527.679 1036.58 522.792L1104.61 498.768L1109.87 514.431L1042 537.663C1041.92 537.691 1041.86 537.746 1041.78 537.79ZM981.641 568.585L1040.61 548.154C1042.22 552.806 1043.85 557.53 1045.51 562.32L987.485 586.173L981.641 568.585ZM966.386 547.587L971.671 545.72L985.398 587.029L949.066 601.963L966.386 547.587ZM961.417 515.517L966.818 531.395L962.774 544.085L950.8 548.313C954.111 538.113 957.695 527.044 961.417 515.517ZM938.256 513.949L958.722 507.59L960.204 511.948C956.267 524.147 952.465 535.89 948.965 546.676L938.256 513.949ZM915.277 511.19L935.932 514.084L940.173 527.048L914.407 524.08L915.277 511.19ZM890.127 505.391L892.455 468.664L915.824 469.601L913.194 508.626L890.127 505.391ZM889.129 521.168L889.986 507.646L913.041 510.877L912.167 523.82L889.129 521.168ZM888.987 523.417L912.016 526.07L910.246 552.307L887.348 549.311L888.987 523.417ZM849.873 516.645L852.753 502.426L887.749 507.332L886.891 520.91L849.873 516.645ZM849.425 518.861L886.747 523.159L885.11 549.02L844.394 543.697L849.425 518.861ZM824.313 541.07L831.871 499.499L850.519 502.113L842.154 543.402L824.313 541.07ZM798.691 539.989L841.706 545.615L839.007 558.947L797.154 551.859L798.691 539.989ZM790.434 493.694L802.206 495.342L796.751 537.445L784.437 535.591L790.434 493.694ZM771.867 491.09L788.207 493.381L782.212 535.257L765.219 532.702L771.867 491.09ZM757.286 445.51C763.982 446.402 770.403 447.251 776.461 448.043L769.991 488.555L750.738 485.854L757.286 445.51ZM739.605 443.135C744.882 443.847 750.049 444.541 755.055 445.211L748.507 485.542L733.174 483.394L739.605 443.135ZM757.913 421.505L756.506 434.06C748.21 432.951 739.458 431.769 730.352 430.532L731.829 417.633L757.913 421.505ZM758.165 419.263L732.084 415.393L733.348 404.354C742.427 405.858 751.261 407.322 759.354 408.666L758.165 419.263ZM765.583 373.311L788.079 375.855L782.736 410.258C776.867 409.285 769.733 408.102 761.828 406.791L765.583 373.311ZM799.449 377.181V413.026C799.381 413.015 799.305 413.007 799.241 412.996C798.45 412.864 793.154 411.986 784.958 410.627L790.317 376.107L799.456 377.141C799.456 377.154 799.449 377.167 799.449 377.181ZM780.819 437.278L784.61 412.853C792.796 414.21 798.082 415.087 798.872 415.218C799.045 415.247 799.26 415.268 799.449 415.296V439.673C793.828 438.965 787.582 438.161 780.819 437.278ZM794.367 450.352L788.527 491.152L772.221 488.867L778.695 448.334C784.261 449.06 789.499 449.736 794.367 450.352ZM807.819 452.023L802.495 493.11L790.755 491.463L796.6 450.636C800.639 451.145 804.378 451.606 807.819 452.023ZM812.498 415.908L809.26 440.89C806.904 440.604 804.373 440.291 801.698 439.957V415.542C805.459 415.856 810.238 415.906 812.498 415.908ZM812.79 413.655C810.66 413.653 805.504 413.614 801.698 413.286V377.395L817.258 379.155L812.79 413.655ZM819.549 378.999L841.068 371.498L861.967 434.118C844.39 439.656 833.349 442.87 830.726 443.104C828.61 443.104 821.811 442.4 811.496 441.161L819.549 378.999ZM841.422 368.991H841.421C841.419 368.991 841.419 368.993 841.419 368.993L819.582 376.602L818.345 347.784L842.025 339.927L850.885 365.693L841.422 368.991ZM876.135 381.448L891.083 424.769C880.977 428.057 871.948 430.959 864.114 433.438L843.196 370.757L869.307 361.657L876.135 381.448ZM890.613 375.59L877.912 379.693L871.433 360.916L884.339 356.418L890.613 375.59ZM895.554 383.445L886.467 355.677L904.247 349.479L913.929 377.765L895.554 383.445ZM900.581 398.811L896.254 385.586L914.659 379.895L919.074 392.797L900.581 398.811ZM907.334 419.455L901.281 400.951L919.804 394.927L926.085 413.276C919.565 415.434 913.315 417.493 907.334 419.455ZM914.876 442.501L910.821 430.112C917.024 428.086 923.494 425.962 930.21 423.748L934.412 436.106L914.876 442.501ZM923.005 467.342L915.576 444.64L935.138 438.239L943.01 461.384L923.005 467.342ZM921.45 469.825L935.151 511.702L915.428 508.939L918.075 469.691L921.45 469.825ZM893.519 451.86L913.437 445.342L920.702 467.544L892.597 466.417L893.519 451.86ZM908.682 430.812L912.737 443.201L893.672 449.441L894.561 435.4C899.084 433.937 903.79 432.408 908.682 430.812ZM893.226 424.071L878.646 381.821L891.313 377.729L905.197 420.159C901.062 421.514 897.071 422.817 893.226 424.071ZM861.343 460.021L864.384 445.008C872.482 442.484 881.838 439.507 892.257 436.145L891.369 450.195L861.343 460.021ZM857.606 478.47L860.828 462.56L891.216 452.614L889.33 482.373L857.606 478.47ZM857.157 480.683L889.189 484.624L887.891 505.077L853.201 500.216L857.157 480.683ZM835.768 478.051L854.917 480.405L850.967 499.905L832.272 497.282L835.768 478.051ZM858.368 463.365L855.365 478.193L835.996 475.81V470.686L858.368 463.365ZM834.519 468.802C834.057 468.953 833.745 469.385 833.745 469.872L833.76 475.535L807.46 472.3L810.053 452.293C820.994 453.602 828.356 454.362 830.726 454.362C833.159 454.362 844.318 451.231 861.933 445.771L858.881 460.828L834.519 468.802ZM829.649 499.19L822.076 540.777L798.98 537.759L804.434 495.654L829.649 499.19ZM804.726 493.422L807.173 474.531L833.549 477.777L830.054 496.972L804.726 493.422ZM957.996 505.456L937.556 511.81L923.705 469.482L943.734 463.518L957.996 505.456ZM961.361 508.359L960.51 505.855C960.51 505.855 960.51 505.855 960.51 505.854L945.894 462.874L964.897 457.216L971.221 477.699C967.915 488.012 964.6 498.318 961.361 508.359ZM970.237 541.451L968.1 542.203L969.257 538.573L970.237 541.451ZM977.473 497.946L967.967 527.783L962.575 511.928C965.787 501.977 969.084 491.729 972.38 481.454L977.473 497.946ZM989.925 458.845L978.667 494.191L973.581 477.71C977.342 465.967 981.083 454.242 984.674 442.921L989.925 458.845ZM991.09 455.189L985.835 439.255C988.717 430.157 991.484 421.366 994.071 413.082L999.35 429.257L991.09 455.189ZM1030.86 520.038L1014.4 525.853L993.494 462.478L1001.81 436.374C1006.27 449.206 1017.06 480.252 1030.86 520.038ZM1037.81 446.777L1013.31 455.75C1008.66 442.379 1005.47 433.184 1004.23 429.611L1028.73 421.577L1037.81 446.777ZM1067.85 389.463C1067.85 389.463 1067.85 389.463 1067.85 389.465L1072.98 404.701L1030.11 418.757L1020.98 393.45C1035.11 388.692 1049.6 383.8 1064.28 378.829L1067.85 389.463ZM1069.63 387.69L1066.41 378.106C1079.55 373.656 1092.84 369.146 1106.16 364.616L1109.33 374.577L1069.63 387.69ZM1114.58 391.061L1075.12 404.001L1070.35 389.825L1110.02 376.721L1114.58 391.061ZM1116.72 390.361L1112.15 376.016L1137.26 367.722L1141.98 382.079L1116.72 390.361ZM1124.56 415.016L1117.4 392.508L1142.68 384.22L1149.78 405.783L1124.56 415.016ZM1132.67 440.481L1125.25 417.163L1150.48 407.925L1158.29 431.648L1132.67 440.481ZM1100.77 480.284C1100.77 480.282 1100.77 480.282 1100.77 480.282L1098.26 472.825C1098.27 472.821 1098.28 472.823 1098.29 472.819L1136.68 460.501L1143.02 480.424L1105.29 493.748L1100.77 480.284ZM1058.14 496.537L1099 482.102L1103.17 494.499L1062.57 508.837L1058.14 496.537ZM1046.28 470.264L1021.34 478.86C1018.65 471.122 1016.21 464.087 1014.05 457.878L1038.58 448.896L1046.28 470.264ZM1081.72 430.702L1039.93 446.005L1030.87 420.877L1073.7 406.836L1081.72 430.702ZM1083.84 429.927L1075.83 406.134L1115.26 393.208L1122.45 415.789L1083.84 429.927ZM1088.64 443.345C1088.55 443.382 1088.48 443.445 1088.4 443.503L1084.55 432.062L1123.13 417.937L1126.52 428.585L1088.64 443.345ZM1092.09 454.47L1089.08 445.515C1089.21 445.514 1089.33 445.493 1089.46 445.443L1127.21 430.733L1130.54 441.215L1092.09 454.47ZM1097.55 470.706L1092.8 456.603L1131.22 443.359L1136 458.354L1097.6 470.674C1097.58 470.682 1097.57 470.699 1097.55 470.706ZM1048.41 469.528L1040.69 448.123L1082.44 432.837L1089.96 455.203L1048.41 469.528ZM1090.67 457.337L1098.28 479.967L1057.38 494.417L1049.17 471.647L1090.67 457.337ZM1022.08 480.988L1047.04 472.381L1060.45 509.585L1035.11 518.538C1030.36 504.868 1025.98 492.225 1022.08 480.988ZM972.358 540.699L970.407 534.961L992.329 466.135L1012.27 526.602L972.358 540.699ZM1032.33 524.293C1034.76 531.302 1037.28 538.563 1039.87 546.028L980.931 566.446L973.795 544.968L1032.33 524.293ZM1163.61 473.153L1145.14 479.674L1138.48 458.741C1138.48 458.741 1138.48 458.741 1138.48 458.739C1138.48 458.737 1138.48 458.737 1138.48 458.737L1133.35 442.626L1164.48 431.896C1163.52 448.022 1163.36 461.785 1163.61 473.153ZM768.223 349.776L769.879 335.02L795.579 327.55L791.805 351.861L768.223 349.776ZM791.457 354.09L788.424 373.628L765.835 371.075L767.971 352.014L791.457 354.09ZM751.623 337.982L747.757 326.894L764.183 322.422L767.441 333.385L751.623 337.982ZM767.536 335.701L763.597 370.823L743.051 368.499L746.155 341.914L767.536 335.701ZM760.267 420.709L761.576 409.033C769.446 410.338 776.548 411.516 782.391 412.485L778.587 436.987C772.361 436.171 765.725 435.292 758.737 434.358L760.265 420.717C760.267 420.717 760.267 420.715 760.267 420.715C760.267 420.713 760.267 420.711 760.267 420.709ZM728.862 441.679C731.73 442.07 734.563 442.452 737.373 442.833L730.944 483.082L722.439 481.889L728.862 441.679ZM716.927 440.054C720.192 440.5 723.425 440.94 726.632 441.377L720.21 481.576L710.199 480.172L716.927 440.054ZM700.138 437.754C705.031 438.428 709.89 439.092 714.696 439.749L707.969 479.86L693.258 477.799C695.567 464.361 697.889 450.856 700.138 437.754ZM665.952 421.673L667.475 411.94L699.358 415.701C698.774 419.1 698.18 422.557 697.581 426.046C687.223 424.622 676.635 423.157 665.952 421.673ZM660.486 456.607L664.212 432.789C674.701 434.245 685.25 435.706 695.675 437.142C694.284 445.234 692.869 453.475 691.445 461.765L660.486 456.607ZM660.137 458.832L691.062 463.984C689.896 470.781 688.723 477.594 687.559 484.372L656.899 479.539L660.137 458.832ZM643.21 477.379L630.846 475.429L633.56 454.406L646.539 456.568L643.21 477.379ZM648.76 456.938L657.918 458.463L654.675 479.186L645.434 477.73L648.76 456.938ZM586.652 421.928C595.541 423.181 604.974 424.51 614.794 425.887L610.068 448.209L582.829 443.673L586.652 421.928ZM575.635 394.511L588.435 396.015L586.303 410.515C581.999 409.909 577.739 409.306 573.541 408.712L575.635 394.511ZM590.378 382.805L588.763 393.786L575.966 392.282L577.679 380.671L590.378 382.805ZM576.901 378.258C576.899 378.258 576.899 378.258 576.897 378.258H576.895L562.376 375.818L567.049 353.739L594.601 354.092L590.705 380.578L576.901 378.258ZM573.399 394.249L571.31 408.397C566.089 407.659 560.956 406.931 555.942 406.22L558.837 392.538L573.399 394.249ZM559.306 390.326L561.91 378.022L575.458 380.298L573.727 392.021L559.306 390.326ZM942.736 606.999L940.055 615.414L927.405 620.454L930.027 612.222L942.736 606.999ZM930.92 609.424L932.281 605.155C932.503 604.477 939.404 583.41 949.049 553.709L961.061 549.465L943.628 604.199L930.92 609.424ZM1122.56 545.1L1171.17 525.724L1175.59 538.601L1127.29 559.177L1122.56 545.1ZM1094.37 596.458L1088.23 578.26L1125.93 562.201L1132.17 580.739L1094.37 596.458ZM1108.87 639.488L1095.09 598.599L1132.89 582.88L1147.02 624.925C1134.58 629.662 1121.75 634.558 1108.87 639.488ZM1160.79 665.868L1122.86 681.012L1110.3 643.746C1123.18 638.82 1136.01 633.926 1148.46 629.186L1160.79 665.868ZM1168.81 689.707L1130.97 705.068L1123.58 683.15L1161.51 668.005L1168.81 689.707ZM1150.56 628.385C1168.2 621.671 1185.01 615.293 1199.99 609.62L1212.26 645.316L1162.88 665.032L1150.56 628.385ZM759.239 258.737L782.649 209.584L792.394 214.624C792.396 214.626 792.396 214.627 792.398 214.627C792.4 214.627 792.402 214.627 792.402 214.627L819.353 228.57L759.239 258.737ZM819.026 231.254L813.516 259.84C783.752 274.178 746.644 290.786 715.984 300.545L714.23 283.842L819.026 231.254ZM690.008 331.968C689.655 330.223 688.787 323.979 688.121 319.056C688.723 318.961 689.319 318.875 689.924 318.773C697.034 317.572 704.939 315.631 713.362 313.135C714.172 317.822 714.976 324.498 714.138 329.525C713.825 331.401 711.549 344.697 708.141 364.553L684.727 361.904C686.175 355.355 690.598 334.887 690.008 331.968ZM516.91 401.143L519.101 370.83L540.32 374.394L538.403 403.728C532 402.817 525.842 401.938 520.007 401.106C519.661 401.055 519.312 401.04 518.965 401.053L516.91 401.143ZM518.933 412.324C524.003 413.049 549.733 416.718 584.422 421.613L580.608 443.303L514.657 432.318L516.094 412.449L518.933 412.324ZM1193.49 763.134L1155.57 778.049L1145.54 748.287L1183.43 733.208L1193.49 763.134ZM1201.91 789.669L1193.74 792.51L1186.52 768.299L1194.18 765.287L1201.91 789.669ZM1185.53 732.374L1208.34 723.294L1219.07 752.868C1219.1 752.935 1219.16 752.97 1219.2 753.03L1195.59 762.311L1185.53 732.374ZM947.729 271.059L954.464 291.704L938.803 296.636L930.095 270.234L947.007 264.559C947.455 266.099 947.83 267.385 948.117 268.369L947.712 269.713C947.58 270.153 947.587 270.622 947.729 271.059ZM866.294 205.707L888.573 195.083L898.58 217.411L875.483 228.306L866.294 205.707ZM873.443 229.268L856.604 237.212L846.629 216.356L864.283 206.737L873.443 229.268ZM660.527 252.248L676.103 251.699L679.162 285.426L661.754 286.929L660.527 252.248ZM679.291 287.674L679.877 308.894C663.077 311.127 647.603 311.351 634.262 310.589L633.143 291.659L679.291 287.674ZM450.936 291.542L520.255 292.432L516.033 350.838L452.422 350.022L450.936 291.542ZM452.394 437.575L452.902 457.526L441.924 457.727L439.064 438.325L452.394 437.575ZM434.118 404.77L426.328 351.938L450.227 352.244L451.541 404.008L434.118 404.77ZM451.829 415.262L452.338 435.323L438.736 436.089L435.768 415.966L451.829 415.262ZM1211.52 812.513L1204.72 791.078L1247.89 776.085L1249.32 798.062L1211.52 812.513ZM1250.01 808.618L1251.66 833.814L1221.68 844.543L1214.57 822.129L1250.01 808.618ZM1213.89 819.976L1212.2 814.664L1249.48 800.414L1249.86 806.267L1213.89 819.976ZM1165.48 152.361L1166.02 143.078L1193.58 142.766C1193.28 145.762 1192.94 149.104 1192.57 152.777L1165.48 152.361ZM1116.4 151.607L1118.67 143.614L1163.76 143.104L1163.23 152.326L1116.4 151.607ZM1085.61 151.135L1086.81 143.974L1116.32 143.64L1114.07 151.571L1085.61 151.135ZM1164.28 154.594C1164.28 154.594 1164.29 154.594 1164.29 154.594H1164.29L1192.35 155.025C1191.22 166.163 1189.82 179.969 1188.25 195.453L1078.26 195.272L1085.24 153.382L1164.28 154.594ZM574.902 216.612L590.946 199.444L600.514 203.98L600.891 243.359L574.902 216.612ZM600.923 246.62L601.061 260.855L564.663 227.573L573.363 218.26L600.923 246.62ZM386.323 290.711L448.683 291.512L450.169 349.993L397.053 349.311C396.764 347.48 396.549 346.244 396.426 345.748C395.761 343.093 391.395 319.034 386.323 290.711ZM334.535 292.566L381.748 290.713C386.897 319.465 391.36 344.055 392.056 346.842C392.241 347.579 392.655 350.157 393.245 354.181L341.247 359.682L334.535 292.566ZM269.733 295.114L332.282 292.656L339.007 359.918L285.07 365.624C280.924 345.093 275.087 317.182 269.733 295.114ZM265.151 295.294C271.88 323.006 279.559 360.885 283.524 380.916C270.394 367.149 261.102 357.435 259.579 355.91C255.97 352.302 244.785 347.295 220.119 336.734C214.127 334.169 208.061 331.569 202.337 329.052L200.917 297.817L265.151 295.294ZM199.926 276.002C199.918 275.856 199.885 275.714 199.821 275.582L183.618 240.46C196.706 239.762 218.247 238.928 244.104 238.045C249.308 249.982 253.572 259.446 255.717 263.523C257.947 267.76 261.13 278.927 264.606 293.063L200.814 295.57L199.926 276.002ZM178.903 298.683L198.667 297.907L200.038 328.035C191.46 324.233 183.813 320.654 178.591 317.703C172.347 314.173 166.197 309.077 160.559 303.05L178.903 298.683ZM175.396 240.959C176.995 240.841 178.963 240.72 181.201 240.593L197.686 276.325L198.565 295.658L178.705 296.438C178.633 296.44 178.56 296.451 178.489 296.468L158.805 301.155C148.82 289.916 140.694 275.766 137.036 262.175C136.283 259.381 135.208 254.158 133.907 247.18C152.001 243.899 166.794 241.584 175.396 240.959ZM167.539 209.89L176.253 229.615C175.67 229.654 175.093 229.691 174.578 229.731C165.599 230.384 150.388 232.753 131.904 236.098C130.676 229.113 129.321 221.142 127.897 212.565L167.539 209.89ZM166.572 207.698L127.525 210.332C125.696 199.274 123.756 187.275 121.813 175.077L147.301 164.073L166.572 207.698ZM168.961 207.538L149.367 163.18L185.493 147.584L207.738 204.923L168.961 207.538ZM239.297 226.947C212.335 227.883 190.454 228.756 178.647 229.466L169.928 209.729L230.21 205.664C233.296 212.94 236.376 220.158 239.297 226.947ZM249.73 158.79L261.289 183.615L231.31 196.694C227.739 188.251 224.237 179.922 221.053 172.323L249.73 158.79ZM238.931 135.597L248.78 156.75L220.183 170.246C216.362 161.127 213.052 153.188 210.713 147.571L238.931 135.597ZM237.979 133.553L209.849 145.492C208.156 141.419 207.144 138.981 207.079 138.824L206.823 138.195L233.593 124.128L237.979 133.553ZM263.247 106.012L234.64 121.04L214.633 78.0752L246.799 65.8187L263.247 106.012ZM265.25 104.959L256.924 84.6141L284.982 72.5928L292.404 90.6939L265.25 104.959ZM300.451 110.322L272.403 122.44L266.103 107.044L293.257 92.7752L300.451 110.322ZM302.518 109.43L295.26 91.7224L300.24 89.1053L308.078 107.025L302.518 109.43ZM315.958 125.048L310.063 127.829L303.373 111.511L308.978 109.09L315.958 125.048ZM317.994 124.087L311.046 108.196L324.498 102.385L331.285 117.815L317.994 124.087ZM332.19 119.875L340.999 139.899L327.408 145.611L318.898 126.149L332.19 119.875ZM335.358 115.892L331.794 107.789L369.049 92.2283L372.208 98.504L335.358 115.892ZM340.291 127.107L336.265 117.953L373.219 100.513L378.147 110.303L340.291 127.107ZM346.759 141.811L341.199 129.168L379.161 112.317L385.202 124.322L346.759 141.811ZM390.925 135.694L351.551 152.705L347.667 143.871L386.213 126.334L390.925 135.694ZM392.984 134.803L388.254 125.406L418.533 111.632L424.551 121.165L392.984 134.803ZM397.146 143.069L393.997 136.817L425.766 123.092L429.04 128.279L397.146 143.069ZM416.724 149.145C416.556 149.139 416.388 149.162 416.226 149.236C416.043 149.318 415.908 149.451 415.798 149.602L403.501 155.691L398.158 145.081L430.252 130.198L431.48 132.145C431.482 132.145 431.48 132.145 431.482 132.145L436.141 139.53L416.724 149.145ZM429.106 145.523L437.349 141.443L449.295 160.369L439.613 164.847L429.106 145.523ZM428.127 172.641L438.642 167.778L449.254 187.294L436.339 190.659L428.127 172.641ZM415.074 178.679L426.085 173.585L434.127 191.234L422.871 194.169L415.074 178.679ZM410.148 221.822L409.196 196.894L421.542 196.627L432.128 221.224C425.171 221.413 417.814 221.613 410.148 221.822ZM376.229 234.024C402.577 233.283 427.256 232.613 447.173 232.083L448.625 289.264L385.92 288.456C382.687 270.389 379.206 250.8 376.229 234.024ZM328.817 235.387C343.218 234.963 357.657 234.547 371.676 234.151C374.636 250.839 378.11 270.379 381.349 288.477L334.311 290.325L328.817 235.387ZM326.56 235.452L332.058 290.414L269.188 292.884C265.524 277.96 262.123 266.026 259.702 261.427C257.714 257.645 253.792 248.967 248.948 237.881C272.593 237.083 299.469 236.251 326.56 235.452ZM302.954 200.756L321.423 224.343C294.258 225.15 267.488 225.984 244.136 226.781C241.209 219.989 238.101 212.707 234.974 205.341L302.954 200.756ZM269.276 200.771L234.043 203.147C233.423 201.688 232.805 200.226 232.187 198.766L262.239 185.655L269.276 200.771ZM279.16 144.9L293.985 181.13L267.462 191.539L251.767 157.829L279.16 144.9ZM274.325 133.084L278.307 142.817L250.817 155.788L246.226 145.929L274.325 133.084ZM273.472 130.999L245.276 143.886L235.588 123.079L264.1 108.097L273.472 130.999ZM280.345 141.854L273.256 124.523L301.304 112.405L308.024 128.793L280.345 141.854ZM313.886 143.091L285.915 155.467L281.2 143.939L308.879 130.878L313.886 143.091ZM318.832 149.216L310.918 129.914L316.861 127.111L325.332 146.485L318.832 149.216ZM331.787 161.245L324.97 164.188L319.685 151.299L326.235 148.547L331.787 161.245ZM333.855 160.35L328.311 147.674L341.906 141.962L347.417 154.491L333.855 160.35ZM357.782 178.058L334.361 187.092L325.825 166.273L333.719 162.863C333.721 162.861 333.723 162.863 333.725 162.861C333.726 162.861 333.726 162.859 333.728 162.857L348.324 156.552L357.782 178.058ZM372.572 171.007L361.922 176.281L352.457 154.765L363.468 150.009L372.572 171.007ZM385.299 164.705L382.09 166.294C382.088 166.294 382.084 166.294 382.082 166.296C382.077 166.298 382.075 166.301 382.069 166.303L374.591 170.007L365.534 149.117L376.863 144.222L385.299 164.705ZM387.32 163.703L378.93 143.328L391.938 137.708L395.618 145.018C395.618 145.021 395.618 145.021 395.619 145.021L401.49 156.688L387.32 163.703ZM407.088 167.806L387.912 177.132C387.906 177.135 387.903 177.139 387.897 177.143L383.971 167.871L402.502 158.697L407.088 167.806ZM395.375 194.938C395.36 194.852 395.358 194.766 395.323 194.682L392.483 187.977L413.011 179.579L420.47 194.4L395.375 194.938ZM407.521 212.025L407.897 221.883C397.165 222.178 385.861 222.49 374.242 222.818C373.557 218.947 372.915 215.327 372.331 212.025H407.521ZM406.945 196.941L407.435 209.774H371.933C371.062 204.852 370.335 200.749 369.803 197.738L406.945 196.941ZM388.763 179.187C388.806 179.172 388.853 179.178 388.896 179.157L408.1 169.818L411.998 177.563L391.606 185.905L388.763 179.187ZM369.408 195.494C369.042 193.426 368.829 192.216 368.807 192.091C368.775 191.914 368.723 191.74 368.65 191.574L362.828 178.339L381.95 168.872L393.006 194.988L369.408 195.494ZM337.387 198.434L365.247 197.837C366.177 203.088 367.75 211.995 369.69 222.947C354.805 223.367 339.468 223.81 324.219 224.261L305.67 200.573L337.387 198.434ZM335.216 189.175L358.689 180.117L364.418 193.14C364.502 193.613 364.651 194.454 364.851 195.593L338.081 196.166L335.216 189.175ZM300.894 192.067L329.689 181.636L335.698 196.291L303.994 198.43L302.954 197.103L300.894 192.067ZM286.769 157.55L314.741 145.174L317.182 151.129V151.131L328.836 179.551L300.039 189.98L286.769 157.55ZM300.929 198.1C300.968 198.195 301.021 198.287 301.084 198.367L301.276 198.613L271.686 200.609L268.414 193.585L294.838 183.215L300.929 198.1ZM418.225 150.911L427.086 146.524L437.565 165.795L427.194 170.593L418.225 150.911ZM425.152 171.537L414.06 176.669L409.621 167.851C409.619 167.845 409.619 167.838 409.618 167.828C409.614 167.821 409.605 167.817 409.601 167.808L404.512 157.7L416.207 151.909L425.152 171.537ZM694.65 691.223L657.849 685.085L671.866 620.443C685.257 625.662 702.061 629.384 721.086 633.582C739.558 637.661 759.972 642.171 781.071 648.851L763.89 731.989L651.515 714.293L657.371 687.288L694.279 693.444C694.342 693.454 694.404 693.459 694.465 693.459C695.005 693.459 695.483 693.071 695.574 692.52C695.677 691.906 695.262 691.327 694.65 691.223ZM909.207 732.476C908.255 733.54 907.344 734.606 906.474 735.676L907.96 731.015C908.374 731.502 908.798 731.987 909.207 732.476ZM908.471 714.571C905.787 711.663 903.021 708.79 900.165 705.953L910.14 674.649C912.626 678.272 915.133 681.989 917.642 685.78L908.471 714.571ZM1279.78 729.503L1265.92 688.486L1280.42 682.799L1294.88 724.377L1279.78 729.503ZM1310.75 774.579L1296.81 779.91L1281.22 733.768L1296.3 728.651L1310.75 774.579ZM1304.5 747.195L1298.43 727.927L1321.33 720.154L1327.48 738.933L1304.5 747.195ZM1312.86 773.774L1305.17 749.345L1328.18 741.074L1335.98 764.936L1312.86 773.774ZM1315.24 781.346L1313.54 775.927L1336.68 767.079L1338.46 772.499L1315.24 781.346ZM1315.92 783.498L1339.16 774.641L1347.32 799.583L1323.65 808.054L1315.92 783.498ZM1300.07 789.542L1313.81 784.302L1321.53 808.812L1308.19 813.585L1300.07 789.542ZM1297.53 782.044L1311.43 776.731L1313.14 782.15L1299.34 787.407L1297.53 782.044ZM1297.96 790.343L1306.07 814.345L1299.22 816.795H1299.21L1290.73 819.831L1282.82 796.115L1297.96 790.343ZM993.673 132.313L1082.1 144.781L1073.88 194.139L979.933 181.548L979.061 180.975L993.673 132.313ZM998.818 82.7176L1021.77 84.8064L1020.89 131.602L994.519 127.885L998.818 82.7176ZM994.545 80.0688L964.79 77.364L967.456 43.5643L997.804 45.8248L994.545 80.0688ZM960.085 108.354L917.973 83.5427L918.729 75.4357L962.369 79.4043L960.085 108.354ZM964.613 79.6077L994.332 82.3107L990.166 126.077L962.242 109.626L964.613 79.6077ZM673.829 71.6296L743.49 101.55L729.514 142.117L657.881 110.413C663.764 95.9765 669.495 82.0904 673.829 71.6296ZM656.38 61.6821L663.092 46.8608L678.912 53.5435C677.958 55.8264 675.69 61.2584 672.62 68.6597L656.38 61.6821ZM671.757 70.7392C669.15 77.028 666.042 84.5451 662.698 92.6781C660.38 91.6888 654.313 89.096 645.641 85.3944L655.45 63.7336L671.757 70.7392ZM156.544 142.274L161.295 155.581L148.458 161.121L140.476 143.054L138.604 127.183C145.176 128.651 151.627 130.09 157.765 131.458L156.488 141.757C156.466 141.932 156.486 142.107 156.544 142.274ZM28.1792 132.405C24.4981 124.889 17.1435 114.27 7.6664 102.019C24.6941 103.835 44.3072 106.023 46.3195 106.525C46.8104 106.648 50.2637 107.43 55.8115 108.677L60.6573 135.789L32.0936 141.286C30.7533 137.98 29.4429 134.988 28.1792 132.405ZM34.58 88.0339L23.9269 71.1965L36.6109 64.6035L45.388 84.2557L34.58 88.0339ZM40.2005 101.129C32.9896 100.242 21.8549 99.0155 12.7904 98.0392L33.6355 90.7517L40.2005 101.129ZM35.8157 89.9864L46.3101 86.3184L54.0568 103.667C50.1797 102.795 47.7997 102.254 47.4115 102.157C46.8459 102.015 45.3003 101.786 43.0976 101.498L35.8157 89.9864ZM4.2224 81.4352L21.9221 72.2381L32.3979 88.7973L12.2397 95.8459L4.2224 81.4352ZM1204.91 142.639L1318.2 141.357L1317.93 154.702L1203.87 152.951C1204.25 149.139 1204.6 145.686 1204.91 142.639ZM1205.47 136.998C1206.31 128.574 1206.91 116.131 1207.31 101.763L1230.12 104.136L1228.69 139.839C1228.69 139.938 1228.72 140.028 1228.74 140.121L1205.13 140.386C1205.25 139.188 1205.37 138.046 1205.47 136.998ZM1258.5 107.087L1257.89 139.791L1230.9 140.095C1230.92 140.039 1230.94 139.989 1230.95 139.929L1232.36 104.369L1258.5 107.087ZM1288.24 110.182V139.447L1260.14 139.765L1260.74 107.32L1288.24 110.182ZM1207.74 82.5571L1319.32 86.1579L1318.82 111.1L1207.38 99.5064C1207.52 94.0725 1207.64 88.3885 1207.74 82.5571ZM1207.99 63.5301L1275.76 66.3992C1275.77 66.3992 1275.77 66.3992 1275.77 66.3992H1275.78L1315.58 68.0848L1391.83 73.8808C1391.81 73.9573 1391.78 74.0283 1391.78 74.1085V86.2419L1321.44 83.972C1321.25 83.6435 1320.91 83.4083 1320.51 83.3989C1320.07 83.4139 1319.75 83.6155 1319.55 83.9123L1207.78 80.3059C1207.87 74.7973 1207.93 69.1787 1207.99 63.5301ZM1208.14 14.7224L1233.52 17.2965V62.3579L1208.01 61.2771C1208.15 45.1827 1208.17 28.9763 1208.14 14.7224ZM1235.77 17.5261L1250.23 18.9915L1249.61 63.0392L1235.77 62.4531V17.5261ZM1252.48 19.2192L1276.1 21.6141L1274.71 64.1013L1251.86 63.1344L1252.48 19.2192ZM1278.35 21.8419L1317.23 25.7843L1314.6 65.7907L1276.97 64.1984L1278.35 21.8419ZM1391.78 118.69L1362.06 115.597L1362.91 87.5635L1391.78 88.4949V118.69ZM1359.81 115.364L1321.06 111.334L1321.57 86.2307L1360.66 87.4907L1359.81 115.364ZM1359.1 138.649L1320.5 139.083L1321.02 113.59L1359.74 117.621L1359.1 138.649ZM1358.53 157.248L1320.18 154.791L1320.45 141.331L1359.03 140.894L1358.53 157.248ZM1318.25 139.11L1290.49 139.423V110.415L1318.77 113.357L1318.25 139.11ZM9.492 3.88827L17.7445 22.3608L0.321067 33.8856L0 33.3779V37.5909L9.94 53.3027L0 59.388V62.0275L11.144 55.2048L20.7125 70.3285L3.12667 79.4677L0 73.8453V78.4709L1.12933 80.5037L0 81.0917V83.6285L2.22507 82.4731L10.0819 96.6L7.56747 97.4792C6.2048 97.3355 4.94293 97.2011 3.80427 97.0797C2.56853 95.5173 1.29173 93.9251 0 92.3197V110.462C0.0541333 110.531 0.112 110.606 0.166133 110.675L0 110.809V113.704L1.53253 112.465C9.16907 122.521 15.0285 131.148 18.0693 137.357C20.5632 142.449 23.2568 149.24 26.068 157.175H18.7843L11.1197 134.607C11.0805 134.491 11.0208 134.383 10.948 134.288L0 119.937V123.648L9.04587 135.505L16.9139 158.663C17.0688 159.12 17.4963 159.426 17.9779 159.426H26.8595C27.7723 162.057 28.6981 164.808 29.6333 167.653L0 170.888V173.154L30.3464 169.841C32.1683 175.459 34.02 181.429 35.8829 187.624L0 192.974V195.251L36.5325 189.805C42.4629 209.686 48.4643 231.668 53.8869 251.612C35.0709 255.573 16.5125 259.584 0 263.206V274.751C17.2704 270.962 36.9413 266.707 56.8531 262.519C65.2885 293.464 70.3883 311.453 73.5653 316.855C81.4408 330.243 207.43 396.956 248.743 418.579L301.299 529.235C299.301 529.131 297.306 529.025 295.301 528.948C294.304 528.913 293.322 529.137 292.445 529.603C234.302 560.502 145.27 607.314 138.314 609.635C133.991 610.833 113.238 602.511 93.8971 591.817C91.1773 590.315 87.7539 591.3 86.2475 594.018C85.7005 595.009 85.4896 596.092 85.5661 597.143L0 642.092V647.177L87.668 601.126C87.9125 601.322 88.1645 601.511 88.4483 601.668C100.813 608.507 130.777 624.025 141.859 620.318C151.706 617.038 276.315 550.919 296.382 540.258C375.452 543.566 448.2 569.83 457.77 573.405L501.467 616.306L536.305 736.215L518.457 820.59C510.416 841.183 497.993 872.65 496.265 876.105C494.96 878.717 491.381 891.675 482.916 922.856C481.979 926.305 481.023 929.82 480.069 933.333H491.736C492.415 930.826 493.099 928.314 493.78 925.805C499.128 906.104 505.191 883.777 506.333 881.139C508.741 876.325 525.323 833.952 528.694 825.322L554.88 833.39L552.263 894.705C552.238 895.237 552.591 895.711 553.108 895.843L598.129 907.394L592.504 933.333H604.023L620.573 857.009L673.144 871.291L657.199 933.333H659.523L663.021 919.72L715.129 933.266L715.113 933.333H719.755L731.349 887.102L820.421 911.297L812.728 933.333H815.112L822.597 911.891L844.766 917.911L839.987 933.333H844.702L849.113 919.093L901.533 933.333H944.474L925.889 928.284L957.079 846.828L976.995 851.185C984.288 867.356 990.056 879.202 996.395 885.795C1010.11 900.062 1053.65 913.213 1086.77 920.138C1108.42 924.663 1129.28 927.5 1148.01 928.626L1145.9 933.333H1150.83L1152.83 928.894C1172.43 929.777 1189.44 928.68 1202.12 925.508C1219.56 921.15 1238.84 917.913 1257.01 915.523L1258.17 933.333H1269.45L1268.2 914.138C1297 910.782 1321.16 909.554 1327.61 909.266C1332.03 912.02 1346.22 921.138 1360.71 933.333H1377.69C1357.01 913.793 1333.4 899.588 1331.97 898.738C1331.04 898.182 1329.97 897.895 1328.89 897.947C1328.44 897.964 1301.2 898.992 1267.46 902.897L1265.98 880.234L1338.2 878.836L1400 926.07V911.904L1347 871.397L1369.56 863.942C1369.59 863.934 1369.6 863.918 1369.62 863.91C1369.64 863.903 1369.66 863.906 1369.68 863.897L1388.98 855.109L1400 888.268V881.134L1391.03 854.172L1400 850.087V847.616L1390.32 852.023L1370.88 793.544L1383.47 789.04L1400 835.027V828.373L1385.59 788.314L1400 783.623V781.254L1383.79 786.531C1383.79 786.533 1383.78 786.537 1383.78 786.539C1383.77 786.541 1383.77 786.539 1383.76 786.542L1370.17 791.407L1361.39 765.014C1361.39 765.012 1361.39 765.01 1361.39 765.009C1361.39 765.005 1361.39 764.999 1361.39 764.995L1343.07 712.775L1376.19 701.536L1400 773.158V766.024L1398 760.023C1398.09 760.008 1398.17 760.006 1398.25 759.974L1400 759.259V756.829L1397.4 757.891C1397.37 757.904 1397.34 757.93 1397.32 757.947L1391.88 741.606L1400 736.786V734.177L1391.16 739.42L1378.32 700.814L1396.87 694.516L1400 702.815V696.433L1399.01 693.791L1400 693.454V688.699L1397.41 689.577L1380.13 643.703L1400 635.908V633.491L1312.91 667.641C1312.9 667.561 1312.9 667.483 1312.87 667.404L1307.87 653.923L1385.27 605.746L1400 627.988V617.303L1398.93 618.214L1388.9 603.073L1400 593.266V590.283L1387.66 601.19L1373.77 580.218L1394.06 563.313L1400 571.889V567.937L1395.8 561.869L1400 558.367V555.438L1394.51 560.011L1381.48 541.197L1400 525.827V522.904L1380.19 539.34L1364.37 516.492C1373.25 510.044 1381.89 503.701 1389.88 497.73L1400 511.771V507.922L1391.68 496.38C1394.56 494.221 1397.32 492.128 1400 490.086V484.48C1396.54 487.15 1392.9 489.916 1389.08 492.781L1375.33 473.715L1400 456.195V453.432L1374.02 471.891L1362.8 456.333L1362.92 456.271L1400 429.414V426.645L1361.75 454.356L1361.47 454.496L1343.39 429.414L1389.02 388.713C1392.61 393.323 1396.31 398.027 1400 402.694V399.073C1396.84 395.059 1393.71 391.08 1390.69 387.216L1400 378.915V375.898L1389.31 385.435C1386.51 381.842 1383.82 378.355 1381.26 375.019C1381.26 375.006 1381.25 374.993 1381.25 374.983C1381.24 374.974 1381.23 374.97 1381.22 374.965C1376.89 369.311 1372.97 364.101 1369.67 359.583L1384.24 346.875L1400 366.524V362.925L1385.94 345.395L1400 333.135V327.159L1395.75 330.865C1391.15 316.292 1381.4 285.327 1377.2 271.656C1382.53 269.814 1387.24 268.186 1391.3 266.786C1392.87 266.971 1395.85 267.322 1400 267.811V256.474C1395.28 255.92 1392.23 255.56 1391.33 255.455C1391.27 255.448 1391.21 255.457 1391.15 255.451C1391.07 255.444 1391 255.423 1390.93 255.422L1341.83 253.221L1333.07 224.435L1400 231.765V229.499L1332.36 222.092L1326.15 201.71L1400 205.001V202.748L1238.18 195.535C1238.18 195.535 1238.17 195.539 1238.16 195.539C1238.15 195.539 1238.14 195.533 1238.13 195.533L1199.56 195.47C1201.14 179.993 1202.53 166.234 1203.64 155.198L1318.96 156.968L1359.57 159.566C1359.58 159.566 1359.58 159.57 1359.59 159.57H1359.62C1359.63 159.57 1359.63 159.57 1359.63 159.57L1400 162.154V159.904L1360.78 157.392L1361.29 140.868L1400 140.431V138.186L1361.35 138.622L1361.99 117.854L1400 121.809V119.545L1394.03 118.923V74.1085C1394.03 74.088 1394.02 74.0693 1394.02 74.0469L1400 74.5024V72.2456L1316.85 65.9232L1319.55 24.8472C1319.55 24.8341 1319.54 24.8229 1319.54 24.8099C1319.54 24.7968 1319.55 24.7875 1319.55 24.7744V0H1317.3V23.5293L1278.42 19.5869L1279.06 0H1276.81L1276.17 19.3592L1252.51 16.9587L1252.75 0H1250.5L1250.27 16.7309L1208.13 12.4581C1208.12 8.08267 1208.1 3.91253 1208.08 0H1196.82C1196.83 3.57467 1196.85 7.3472 1196.86 11.3157L1145.83 6.14133L1146.74 0H1144.46L1143.42 7.02053C1143.42 7.0224 1143.42 7.02613 1143.42 7.028C1143.42 7.02987 1143.42 7.03173 1143.42 7.0336L1140.94 23.7459C1129.43 22.9451 1117.14 22.0957 1104.8 21.2501L1107.91 0H1103.36L1100.29 20.9403C1063.19 18.3997 1026.6 15.9581 1011.12 15.1219C1009.4 15.0285 1007.45 14.8755 1005.3 14.672L1006.69 0H1002.17L1000.81 14.2053C980.136 11.8832 945.442 5.9528 912.877 0H888.091C899.134 2.08133 910.987 4.2784 922.902 6.41947L920.927 27.6136L861.194 23.1243L867.97 0H865.624L859.066 22.3795L824.378 0H820.225L858.405 24.6325L852.454 44.94L798.986 13.4363C798.903 13.3896 798.821 13.3467 798.739 13.3112L768.023 0H756.702L796.818 17.3861L889.381 71.9227L872.85 99.4747L736.954 37.5088L730.234 0H725.659L732.041 35.6272L626.657 0.110133C626.675 0.0728 626.692 0.0373333 626.707 0H619.285L621.438 0.726133C614.6 15.7733 604.218 38.6923 593.299 63.0355C537.027 38.9928 467.005 9.0608 463.566 7.51333C461.535 6.60053 458.313 3.5392 455.035 0H451.982C455.782 4.228 459.935 8.34773 462.644 9.56667C464.611 10.4533 488.268 20.5837 518.672 33.5869C516.727 37.7571 509.512 53.1832 508.023 55.6416C506.865 57.5493 506.968 64.8293 507.61 79.4192C507.799 83.6659 507.959 87.3357 507.864 88.3997C507.769 89.4563 506.787 96.4656 505.478 105.62L473.921 107.167L466.758 74.9373C466.71 74.7264 466.605 74.5341 466.45 74.3829L391.511 0H388.315L409.388 20.916L379.088 44.9344L376.128 40.2435L343.954 0H341.074L350.616 11.9336L329.254 33.1875L319.243 13.3299C319.243 13.328 319.243 13.328 319.243 13.3261C319.241 13.3261 319.241 13.3243 319.239 13.3243L312.525 0H310.007L316.723 13.3112L294.95 24.0296L284.379 0H279.461L280.381 2.09067L244.511 14.6309L238.838 0H236.425L236.454 0.0802667L211.047 8.79573L207.094 0H204.626L215.719 24.6979L193.413 32.4987L178.283 0H175.799L182.289 13.9403L159.983 23.4341L150.418 0H145.553L163.139 43.0845L105.351 63.2893L131.35 0H128.914L109.394 47.5179L86.0851 0H83.5781L108.252 50.2992L103.229 62.5315L71.6595 0H59.0483L73.5859 28.7952L28.9781 41.9925L11.0712 1.90213C11.0712 1.90027 11.0712 1.8984 11.0712 1.89653C11.0693 1.89653 11.0693 1.89467 11.0675 1.89467L10.2219 0H7.756L8.5736 1.8312L0 5.88933V8.38133L9.492 3.88827Z" fill="#CAD1E1"/>
</svg>
