<svg width="860" height="184" viewBox="0 0 860 184" fill="none" xmlns="http://www.w3.org/2000/svg">
<mask id="path-1-inside-1_2902_234" fill="white">
<path d="M0 112C0 112 57.3333 184 118.621 184C179.908 184 211.54 112 268.874 112C326.207 112 350.92 148 402.322 148C453.724 148 436.404 82 529.839 82C623.274 82 611.149 0 860 0"/>
</mask>
<path d="M0 112C-0.78228 112.623 -0.781903 112.623 -0.781307 112.624C-0.780817 112.625 -0.780002 112.626 -0.779023 112.627C-0.777063 112.629 -0.774232 112.633 -0.77053 112.638C-0.763128 112.647 -0.752249 112.66 -0.737918 112.678C-0.709256 112.714 -0.666787 112.767 -0.610714 112.836C-0.49857 112.974 -0.332007 113.179 -0.112655 113.445C0.326042 113.977 0.975928 114.755 1.82397 115.745C3.51998 117.723 6.00897 120.547 9.18665 123.934C15.5408 130.707 24.6548 139.739 35.6942 148.774C57.7333 166.811 87.6181 185 118.621 185V183C88.3359 183 58.9104 165.189 36.9609 147.226C26.0061 138.261 16.9563 129.293 10.6452 122.566C7.49031 119.203 5.02133 116.402 3.34252 114.443C2.50315 113.464 1.86141 112.695 1.43034 112.172C1.21481 111.911 1.05195 111.711 0.943394 111.577C0.889116 111.51 0.848416 111.46 0.821495 111.426C0.808035 111.409 0.79802 111.397 0.791476 111.389C0.788203 111.384 0.785799 111.381 0.784265 111.38C0.783498 111.379 0.783002 111.378 0.782618 111.377C0.78234 111.377 0.78228 111.377 0 112ZM118.621 185C149.664 185 173.157 166.751 195.851 148.784C218.656 130.729 240.618 113 268.874 113V111C239.796 111 217.275 129.271 194.609 147.216C171.832 165.249 148.865 183 118.621 183V185ZM268.874 113C297.309 113 317.651 121.916 337.408 130.91C357.157 139.901 376.374 149 402.322 149V147C376.868 147 358.027 138.099 338.236 129.09C318.453 120.084 297.772 111 268.874 111V113ZM402.322 149C415.432 149 424.218 144.775 431.451 138.44C435.048 135.29 438.249 131.629 441.398 127.747C444.576 123.83 447.637 119.772 451.086 115.641C457.929 107.444 466.027 99.3076 478.174 93.2061C490.324 87.1032 506.6 83 529.839 83V81C506.361 81 489.763 85.1468 477.276 91.4189C464.786 97.6924 456.482 106.056 449.551 114.359C446.112 118.478 442.942 122.67 439.845 126.487C436.719 130.34 433.602 133.898 430.134 136.935C423.238 142.975 414.913 147 402.322 147V149ZM529.839 83C576.878 83 597.571 62.2709 637.097 41.8888C676.682 21.4761 735.7 1 860 1V-1C735.449 -1 676.104 19.5239 636.18 40.1112C596.197 60.7291 576.235 81 529.839 81V83Z" fill="#6E38F7" mask="url(#path-1-inside-1_2902_234)"/>
</svg>
