<svg width="20" height="20" viewBox="0 0 20 20" fill="none" xmlns="http://www.w3.org/2000/svg">
<path fill-rule="evenodd" clip-rule="evenodd" d="M16.5215 4.52707C15.2142 4.16675 9.99484 4.16675 9.99484 4.16675C9.99484 4.16675 4.78583 4.16675 3.47844 4.50647C2.77842 4.70207 2.20201 5.27849 2.00641 5.9888C1.66669 7.2962 1.66669 10.0037 1.66669 10.0037C1.66669 10.0037 1.66669 12.7215 2.00641 14.0083C2.20201 14.7186 2.76813 15.2847 3.47844 15.4803C4.79613 15.8303 9.99484 15.8303 9.99484 15.8303C9.99484 15.8303 15.2142 15.8303 16.5215 15.4906C17.2319 15.295 17.798 14.7392 17.9833 14.0186C18.3333 12.7215 18.3333 10.014 18.3333 10.014C18.3333 10.014 18.3436 7.2962 17.9833 5.9888C17.798 5.27849 17.2319 4.71237 16.5215 4.52707ZM8.33742 12.4949V7.50219L12.6714 10.0037L8.33742 12.4949Z" fill="#6E38F7"/>
</svg>
