<svg width="20" height="17" viewBox="0 0 20 17" fill="none" xmlns="http://www.w3.org/2000/svg">
<path d="M2.37167 3.90591C2.39667 3.66008 2.3025 3.41758 2.11917 3.25258L0.2525 1.00258V0.666748H6.05083L10.5325 10.4959L14.4725 0.666748H20V1.00258L18.4033 2.53341C18.2658 2.63841 18.1975 2.81091 18.2258 2.98175V14.2301C18.1975 14.4001 18.2658 14.5726 18.4033 14.6776L19.9625 16.2084V16.5442H12.1192V16.2084L13.735 14.6401C13.8933 14.4817 13.8933 14.4351 13.8933 14.1926V5.10091L9.4025 16.5076H8.79583L3.56667 5.10091V12.7459C3.52333 13.0667 3.63 13.3909 3.85583 13.6226L5.95667 16.1709V16.5076H0V16.1709L2.10083 13.6226C2.32583 13.3901 2.42583 13.0642 2.37167 12.7459V3.90591V3.90591Z" fill="#6E38F7"/>
</svg>
