<svg width="18" height="18" viewBox="0 0 18 18" fill="none" xmlns="http://www.w3.org/2000/svg">
<path d="M11.7454 17.3334V11.3123H13.9894L14.3255 8.70682H11.7454V7.04335C11.7454 6.28899 11.9549 5.77492 13.0366 5.77492L14.4163 5.77431V3.44391C14.1777 3.41215 13.3587 3.34121 12.4058 3.34121C10.4166 3.34121 9.05471 4.55545 9.05471 6.78531V8.70682H6.80488V11.3123H9.05471V17.3334H2.66669C1.56212 17.3334 0.666687 16.438 0.666687 15.3334L0.666687 2.66675C0.666687 1.56218 1.56212 0.666748 2.66669 0.666748L15.3334 0.666748C16.4379 0.666748 17.3334 1.56218 17.3334 2.66675V15.3334C17.3334 16.438 16.4379 17.3334 15.3334 17.3334H11.7454Z" fill="#6E38F7"/>
</svg>
