<svg width="18" height="14" viewBox="0 0 18 14" fill="none" xmlns="http://www.w3.org/2000/svg">
<path d="M17.3334 1.93672C16.7202 2.20895 16.0611 2.39228 15.3695 2.47492C16.0757 2.052 16.6181 1.38186 16.8729 0.583252C16.2125 0.974919 15.4806 1.25964 14.7014 1.41311C14.0785 0.74853 13.1889 0.333252 12.2056 0.333252C9.99794 0.333252 8.37572 2.39297 8.87433 4.53117C6.03335 4.38881 3.51391 3.0277 1.8271 0.958946C0.93127 2.49575 1.36252 4.50617 2.88474 5.52422C2.32502 5.50617 1.79724 5.3527 1.33683 5.09645C1.29933 6.68047 2.43474 8.16242 4.07919 8.49228C3.59794 8.62284 3.07085 8.65339 2.53474 8.55061C2.96946 9.90895 4.23196 10.8971 5.72919 10.9249C4.29169 12.052 2.48058 12.5555 0.666687 12.3416C2.17988 13.3117 3.9778 13.8777 5.90835 13.8777C12.257 13.8777 15.8438 8.51589 15.6271 3.70686C16.2952 3.22422 16.875 2.62214 17.3334 1.93672Z" fill="#6E38F7"/>
</svg>
